<svg xmlns="http://www.w3.org/2000/svg" xmlns:xlink="http://www.w3.org/1999/xlink" width="15" height="15" viewBox="0 0 15 15">
    <defs>
        <path id="a" d="M0 23.167h23.166V0H0z"/>
    </defs>
    <g fill="none" fill-rule="evenodd">
        <mask id="b" fill="#fff">
            <use xlink:href="#a"/>
        </mask>
        <path fill="#231F20" d="M12.101 0H2.9A2.902 2.902 0 0 0 0 2.899V12.1C0 13.7 1.3 15 2.9 15H12.1C13.7 15 15 13.7 15 12.101V2.9c0-1.599-1.3-2.9-2.899-2.9zm.832 1.729l.332-.002V4.27l-2.535.008-.009-2.542 2.212-.007zM5.36 5.96A2.635 2.635 0 0 1 7.5 4.86c.881 0 1.66.436 2.14 1.1.314.434.5.965.5 1.54a2.643 2.643 0 0 1-2.64 2.64A2.643 2.643 0 0 1 4.86 7.5c0-.575.187-1.106.5-1.54zm8.178 6.14c0 .793-.644 1.437-1.437 1.437H2.9a1.438 1.438 0 0 1-1.437-1.437v-6.14h2.24A4.063 4.063 0 0 0 3.398 7.5 4.106 4.106 0 0 0 7.5 11.6 4.106 4.106 0 0 0 11.601 7.5c0-.544-.109-1.064-.301-1.54h2.238v6.141z" mask="url(#b)"/>
    </g>
</svg>
