<?xml version="1.0" encoding="iso-8859-1"?>
<!-- Generator: Adobe Illustrator 19.0.0, SVG Export Plug-In . SVG Version: 6.00 Build 0)  -->
<svg version="1.1" id="Layer_1" xmlns="http://www.w3.org/2000/svg" xmlns:xlink="http://www.w3.org/1999/xlink" x="0px" y="0px"
	 viewBox="0 0 512.394 512.394" style="enable-background:new 0 0 512.394 512.394;" xml:space="preserve">
<g>
	<path style="fill:#434C6D;" d="M115.015,502.646L90.66,486.889c-26.721-17.293-49.47-40.042-66.763-66.763l-12.668-19.58
		c-17.364-26.836-13.621-62.146,8.978-84.745l242.15-242.15l174.777,174.777L190.959,494.604
		C170.709,514.855,139.062,518.209,115.015,502.646"/>
	<polygon style="fill:#D9DBE8;" points="412.165,223.462 287.325,98.622 388.454,0 512.04,123.586 	"/>
	<g>
		<polygon style="fill:#B1B4C4;" points="387.197,98.621 362.233,73.657 387.197,48.683 412.162,73.657 		"/>
		<polygon style="fill:#B1B4C4;" points="437.134,148.557 412.17,123.592 437.134,98.619 462.098,123.592 		"/>
	</g>
	<path style="fill:#7383BF;" d="M312.293,323.334l-24.964-24.964l-24.973,24.964l6.25,6.241l-0.009,0.009l-20.48,20.471
		l-51.633-23.278l77.206-77.206v15.263c0,4.873,3.955,8.828,8.828,8.828c4.882,0,8.828-3.955,8.828-8.828V229.7
		c0-4.882-3.946-8.828-8.828-8.828h-44.138c-4.873,0-8.828,3.946-8.828,8.828c0,4.882,3.955,8.828,8.828,8.828h21.389
		l-94.517,94.526l-23.411-51.5l20.648-20.639c1.457-1.457,2.154-3.31,2.383-5.199c0.945,0.15,1.898,0.291,2.887,0.291
		c9.755,0,17.655-7.91,17.655-17.655c0-9.755-7.901-17.655-17.655-17.655c-9.746,0-17.655,7.901-17.655,17.655
		c0,3.098,0.874,5.967,2.278,8.501c-0.839,0.415-1.677,0.883-2.375,1.58l-24.973,24.964c-2.604,2.604-3.319,6.55-1.801,9.896
		l28.69,63.091l-14.407,14.407c-1.148,1.139-1.766,2.542-2.154,3.999c-3.549-1.766-7.503-2.851-11.741-2.851
		c-14.618,0-26.483,11.855-26.483,26.483c0,14.618,11.864,26.483,26.483,26.483c14.627,0,26.483-11.864,26.483-26.483
		c0-4.793-1.368-9.225-3.593-13.1c1.271-0.424,2.472-1.042,3.487-2.048l18.97-18.979c0.009,0,0.018-0.009,0.018-0.018l14.142-14.142
		l63.294,28.522c1.156,0.521,2.401,0.777,3.628,0.777c2.286,0,4.546-0.892,6.241-2.586l24.788-24.779l0.009-0.009l6.241,6.241
		L312.293,323.334z"/>
</g>
<g>
</g>
<g>
</g>
<g>
</g>
<g>
</g>
<g>
</g>
<g>
</g>
<g>
</g>
<g>
</g>
<g>
</g>
<g>
</g>
<g>
</g>
<g>
</g>
<g>
</g>
<g>
</g>
<g>
</g>
</svg>
