<?xml version="1.0" encoding="utf-8"?>
<!-- Generator: Adobe Illustrator 17.0.1, SVG Export Plug-In . SVG Version: 6.00 Build 0)  -->
<!DOCTYPE svg PUBLIC "-//W3C//DTD SVG 1.1//EN" "http://www.w3.org/Graphics/SVG/1.1/DTD/svg11.dtd">
<svg version="1.1" id="Layer_1" xmlns="http://www.w3.org/2000/svg" xmlns:xlink="http://www.w3.org/1999/xlink" x="0px" y="0px"
	 width="346.986px" height="346.956px" viewBox="0 0 346.986 346.956" enable-background="new 0 0 346.986 346.956"
	 xml:space="preserve">
<path fill-rule="evenodd" clip-rule="evenodd" fill="#E3115D" d="M173.487,347C77.666,347-0.015,269.32-0.015,173.501
	c0-32.863,9.139-63.589,25.009-89.782c6.713-9.344,21.283-2.381,13.228,11.087c-13.479,23.118-21.209,50.003-21.209,78.694
	c0,86.417,70.056,156.473,156.474,156.473c86.416,0,156.47-70.056,156.47-156.473c0-86.419-70.054-156.473-156.47-156.473
	c-22.48,0-43.848,4.749-63.169,13.284C95.52,36.393,90.31,21,100.777,15.937C122.894,5.715,147.522,0,173.487,0
	c95.82,0,173.498,77.676,173.498,173.501C346.986,269.32,269.307,347,173.487,347L173.487,347z"/>
<path fill="#E3115D" d="M83.832,80.636c-0.001-0.472-0.006-3.305-0.006-9.583c0-8.338,0-19.039,0-19.039l-0.004,0.005
	c0-0.046,0.004-0.092,0.004-0.138c0-6.444-3.992-12.111-10.031-15.397c0,0,0.003-0.003,0.003-0.003l-0.254-0.13
	c-0.197-0.104-0.396-0.207-0.597-0.306L5.411,1.424L5.41,1.425C4.926,1.143,4.366,0.978,3.768,0.978
	c-1.812,0-3.282,1.482-3.282,3.311c0,0.94,0.389,1.786,1.012,2.389L1.497,6.68c0,0,0.019,0.017,0.048,0.042
	c0.061,0.057,0.123,0.112,0.188,0.164C4.37,9.184,28.915,30.568,44.115,43.658c7.723,6.653,8.488,12.258,8.488,17.08
	c0,0.004,0.003,0.003,0.004,0.006c0.061,6.436,4.373,12.033,10.735,14.983l-0.021,0.024l15.69,7.891l0.001-0.001
	c0.46,0.247,0.984,0.389,1.542,0.389c1.813,0,3.283-1.482,3.283-3.311C83.836,80.69,83.832,80.663,83.832,80.636z"/>
<rect x="216.402" y="118.047" fill="#E3115D" width="13.212" height="13.195"/>
<path fill="#E3115D" d="M247.396,251.423c6.348,0,11.495-5.464,11.495-12.202V101.529c0-6.737-5.147-12.201-11.495-12.201H101.827
	c-6.348,0-11.495,5.464-11.495,12.201v137.693c0,6.737,5.147,12.201,11.495,12.201H247.396z M176.746,103.045h60.723
	c5.443,0,7.445,1.388,7.445,7.165h0.002v48.318c0,0.067-0.002,0.128-0.002,0.194h-32.182c-5.884-14.708-19.609-25.457-35.986-27.031
	V103.045z M152.762,103.045h11.776v29.198c-4.166,0.787-8.122,2.173-11.776,4.066V103.045z M172.576,144.691
	c16.566,0,30.043,13.476,30.043,30.043c0,16.566-13.477,30.043-30.043,30.043c-16.565,0.001-30.043-13.477-30.043-30.043
	C142.533,158.166,156.01,144.691,172.576,144.691z M128.727,103.045h11.826v42.674c-3.184,3.513-5.803,7.545-7.705,11.959h-4.121
	V103.045z M104.31,111.256c0-5.777,0.956-8.211,6.399-8.211h5.808v54.633H104.31V111.256z"/>
</svg>
