<?xml version="1.0" standalone="no"?>
<!DOCTYPE svg PUBLIC "-//W3C//DTD SVG 1.1//EN" "http://www.w3.org/Graphics/SVG/1.1/DTD/svg11.dtd" >
<svg xmlns="http://www.w3.org/2000/svg" xmlns:xlink="http://www.w3.org/1999/xlink" version="1.1">
<metadata>
Created by FontForge 20161116 at Tue Apr 19 13:46:59 2016
 By Jimmy Wärting
Copyright (c) 2016. All rights reserved. Rando is a design by Maurice Goeldner, published by Camelot Typefaces. www.camelot-typefaces.com
</metadata>
<defs>
<font id="Rando-Regular" horiz-adv-x="580" >
  <font-face 
    font-family="Rando Regular"
    font-weight="400"
    font-stretch="normal"
    units-per-em="1000"
    panose-1="0 0 0 0 0 0 0 0 0 0"
    ascent="800"
    descent="-200"
    x-height="500"
    cap-height="736"
    bbox="-176 -323 1284 1080"
    underline-thickness="50"
    underline-position="-100"
    unicode-range="U+0020-FEFF"
  />
<missing-glyph horiz-adv-x="673" 
d="M0 680h673v-680h-673v680zM339 296l119 -123l49 50l-120 123l120 124l-49 48l-119 -122l-120 122l-49 -48l118 -124l-118 -123l49 -50z" />
    <glyph glyph-name="f_j" unicode="fj" 
d="M28 500h65q-3 17 -7.5 32.5t-8 31t-6.5 33.5t-3 39q0 28 9.5 49.5t26 35t37 20.5t43.5 7q34 0 58.5 -7.5t40 -20t22.5 -28.5t7 -32q0 -21 -11.5 -36.5t-32.5 -15.5q-48 0 -48 56v20q0 15 -11.5 25.5t-28.5 10.5q-18 0 -33 -13t-15 -43q0 -25 5.5 -45.5t13.5 -39.5l16 -38
t13 -41h108v-60h-104v-372q0 -24 17 -38.5t47 -17.5v-12h-200v12q27 3 37.5 17.5t10.5 38.5v372h-68v60zM380 -172q9 -12 26 -12q26 0 40 16t14 48q0 33 -10 55t-22 44.5t-22 51t-10 73.5v304q0 46 -56 52v12q24 3 42.5 9.5t34 14t28.5 16t27 16.5l12 -4v-400q0 -38 5.5 -66
t12.5 -52.5t12.5 -47.5t5.5 -50q0 -51 -30.5 -85.5t-81.5 -34.5q-33 0 -55.5 8t-36 21.5t-19 29.5t-5.5 33q0 24 11.5 38t32.5 14q24 0 34 -13t10 -43v-48zM440 608q-27 0 -43.5 18t-16.5 42t16.5 42t43.5 18t43.5 -18t16.5 -42t-16.5 -42t-43.5 -18z" />
    <glyph glyph-name="f_b" unicode="fb" horiz-adv-x="852" 
d="M564 -12q-23 0 -51 3t-57 8.5t-57.5 13.5t-50.5 19v12q27 3 37.5 17.5t10.5 38.5v524q0 24 -13.5 38.5t-34.5 17.5v12q39 9 69.5 23.5t54.5 32.5l12 -4v-287q20 23 48 37t64 14q43 0 82 -13.5t67.5 -43t45.5 -77t17 -114.5q0 -65 -18 -115.5t-50 -85t-77 -53t-99 -18.5z
M572 460q-33 0 -54.5 -10.5t-33.5 -25.5v-324q0 -42 22 -63t58 -21t63.5 18t46.5 49.5t28.5 75.5t9.5 97q0 97 -38.5 150.5t-101.5 53.5zM28 500h65q-3 17 -7.5 32.5t-8 31t-6.5 33.5t-3 39q0 28 9.5 49.5t26 35t37 20.5t43.5 7q34 0 58.5 -7.5t40 -20t22.5 -28.5t7 -32
q0 -21 -11.5 -36.5t-32.5 -15.5q-48 0 -48 56v20q0 15 -11.5 25.5t-28.5 10.5q-18 0 -33 -13t-15 -43q0 -25 5.5 -45.5t13.5 -39.5l16 -38t13 -41h108v-60h-104v-372q0 -24 17 -38.5t47 -17.5v-12h-200v12q27 3 37.5 17.5t10.5 38.5v372h-68v60z" />
    <glyph glyph-name="f_h" unicode="fh" horiz-adv-x="868" 
d="M648 12q27 3 37.5 17.5t10.5 38.5v288q0 57 -23.5 80.5t-80.5 23.5q-22 0 -51 -6t-57 -22v-364q0 -24 13.5 -38.5t34.5 -17.5v-12h-184v12q27 3 37.5 17.5t10.5 38.5v556q0 24 -13.5 38.5t-34.5 17.5v12q39 9 69.5 23.5t54.5 32.5l12 -4v-287q42 29 93 46t99 17
q33 0 54 -10t33 -27.5t16.5 -42t4.5 -52.5v-320q0 -50 48 -56v-12h-184v12zM28 500h65q-3 17 -7.5 32.5t-8 31t-6.5 33.5t-3 39q0 28 9.5 49.5t26 35t37 20.5t43.5 7q34 0 58.5 -7.5t40 -20t22.5 -28.5t7 -32q0 -21 -11.5 -36.5t-32.5 -15.5q-48 0 -48 56v20
q0 15 -11.5 25.5t-28.5 10.5q-18 0 -33 -13t-15 -43q0 -25 5.5 -45.5t13.5 -39.5l16 -38t13 -41h108v-60h-104v-372q0 -24 17 -38.5t47 -17.5v-12h-200v12q27 3 37.5 17.5t10.5 38.5v372h-68v60z" />
    <glyph glyph-name="f_k" unicode="fk" horiz-adv-x="832" 
d="M648 12q32 6 32 24q0 6 -4 12.5l-12 19.5l-111 179l-69 -68v-111q0 -24 13.5 -38.5t34.5 -17.5v-12h-184v12q27 3 37.5 17.5t10.5 38.5v556q0 24 -13.5 38.5t-34.5 17.5v12q39 9 69.5 23.5t54.5 32.5l12 -4v-497l55 33l113 144q12 16 12 28q0 14 -11 23.5t-25 12.5v12
h176v-16q-27 -3 -44.5 -20t-39.5 -40l-110 -121l158 -235q17 -25 30.5 -39t37.5 -17v-12h-188v12zM28 500h65q-3 17 -7.5 32.5t-8 31t-6.5 33.5t-3 39q0 28 9.5 49.5t26 35t37 20.5t43.5 7q34 0 58.5 -7.5t40 -20t22.5 -28.5t7 -32q0 -21 -11.5 -36.5t-32.5 -15.5
q-48 0 -48 56v20q0 15 -11.5 25.5t-28.5 10.5q-18 0 -33 -13t-15 -43q0 -25 5.5 -45.5t13.5 -39.5l16 -38t13 -41h108v-60h-104v-372q0 -24 17 -38.5t47 -17.5v-12h-200v12q27 3 37.5 17.5t10.5 38.5v372h-68v60z" />
    <glyph glyph-name="f_t" unicode="ft" horiz-adv-x="628" 
d="M28 500h65q-3 17 -7.5 32.5t-8 31t-6.5 33.5t-3 39q0 28 9.5 49.5t26 35t37 20.5t43.5 7q34 0 58.5 -7.5t40 -20t22.5 -28.5t7 -32q0 -21 -11.5 -36.5t-32.5 -15.5q-48 0 -48 56v20q0 15 -11.5 25.5t-28.5 10.5q-18 0 -33 -13t-15 -43q0 -25 5.5 -45.5t13.5 -39.5l16 -38
t13 -41h88v-60h-84v-372q0 -24 17 -38.5t47 -17.5v-12h-200v12q27 3 37.5 17.5t10.5 38.5v372h-68v60zM380 440h-76v24q46 19 74 52t43.5 70.5t21.5 75t9 66.5h16v-228h108v-60h-108v-328q0 -36 18.5 -56t57.5 -20q15 0 30.5 3.5t33.5 12.5l8 -12q-27 -24 -57 -38t-75 -14
q-54 0 -79 28t-25 88v336z" />
    <glyph glyph-name="t_t" unicode="tt" horiz-adv-x="644" 
d="M96 440h-88v24q46 19 76 52t47.5 70.5t25.5 75t11 66.5h16v-228h96v-60h-96v-328q0 -36 18.5 -56t57.5 -20q15 0 30.5 3.5t33.5 12.5l8 -12q-27 -24 -57 -38t-75 -14q-54 0 -79 28t-25 88v336zM396 440h-72v24q43 21 70 54.5t42.5 70.5t22 73.5t9.5 65.5h16v-228h108v-60
h-108v-328q0 -36 18.5 -56t57.5 -20q15 0 30.5 3.5t33.5 12.5l8 -12q-27 -24 -57 -38t-75 -14q-54 0 -79 28t-25 88v336z" />
    <glyph glyph-name="f_f_j" unicode="ffj" horiz-adv-x="880" 
d="M28 500h65q-3 17 -7.5 32.5t-8 31t-6.5 33.5t-3 39q0 28 10.5 49.5t27 35t38 20.5t44.5 7q34 0 59 -7.5t41.5 -20t24 -28.5t7.5 -32q0 -21 -11.5 -36.5t-32.5 -15.5q-48 0 -48 56v20q0 15 -13.5 25.5t-30.5 10.5q-18 0 -35 -13t-17 -43q0 -25 5.5 -45.5t13.5 -39.5
l16 -38t13 -41h108v-60h-104v-372q0 -24 17 -38.5t47 -17.5v-12h-200v12q27 3 37.5 17.5t10.5 38.5v372h-68v60zM328 500h65q-3 17 -7.5 32.5t-8 31t-6.5 33.5t-3 39q0 28 9.5 49.5t26 35t37 20.5t43.5 7q34 0 58.5 -7.5t40 -20t22.5 -28.5t7 -32q0 -21 -11.5 -36.5
t-32.5 -15.5q-48 0 -48 56v20q0 15 -11.5 25.5t-28.5 10.5q-18 0 -33 -13t-15 -43q0 -25 5.5 -45.5t13.5 -39.5l16 -38t13 -41h108v-60h-104v-372q0 -24 17 -38.5t47 -17.5v-12h-200v12q27 3 37.5 17.5t10.5 38.5v372h-68v60zM680 -172q9 -12 26 -12q26 0 40 16t14 48
q0 33 -10 55t-22 44.5t-22 51t-10 73.5v304q0 46 -56 52v12q24 3 42.5 9.5t34 14t28.5 16t27 16.5l12 -4v-400q0 -38 5.5 -66t12.5 -52.5t12.5 -47.5t5.5 -50q0 -51 -30.5 -85.5t-81.5 -34.5q-33 0 -55.5 8t-36 21.5t-19 29.5t-5.5 33q0 24 11.5 38t32.5 14q24 0 34 -13
t10 -43v-48zM740 608q-27 0 -43.5 18t-16.5 42t16.5 42t43.5 18t43.5 -18t16.5 -42t-16.5 -42t-43.5 -18z" />
    <glyph glyph-name="f_f_b" unicode="ffb" horiz-adv-x="1152" 
d="M864 -12q-23 0 -51 3t-57 8.5t-57.5 13.5t-50.5 19v12q27 3 37.5 17.5t10.5 38.5v528q0 23 -13.5 36t-34.5 16v12q38 8 69.5 23t54.5 33l12 -4v-287q20 23 48 37t64 14q43 0 82 -13.5t67.5 -43t45.5 -77t17 -114.5q0 -65 -18 -115.5t-50 -85t-77 -53t-99 -18.5zM872 460
q-33 0 -54.5 -10.5t-33.5 -25.5v-332q2 -38 23.5 -57t56.5 -19q36 0 63.5 18t46.5 49.5t28.5 75.5t9.5 97q0 97 -38.5 150.5t-101.5 53.5zM28 500h65q-3 17 -7.5 32.5t-8 31t-6.5 33.5t-3 39q0 28 10.5 49.5t27 35t38 20.5t44.5 7q34 0 59 -7.5t41.5 -20t24 -28.5t7.5 -32
q0 -21 -11.5 -36.5t-32.5 -15.5q-48 0 -48 56v20q0 15 -13.5 25.5t-30.5 10.5q-18 0 -35 -13t-17 -43q0 -25 5.5 -45.5t13.5 -39.5l16 -38t13 -41h108v-60h-104v-372q0 -24 17 -38.5t47 -17.5v-12h-200v12q27 3 37.5 17.5t10.5 38.5v372h-68v60zM328 500h65q-3 17 -7.5 32.5
t-8 31t-6.5 33.5t-3 39q0 28 9.5 49.5t26 35t37 20.5t43.5 7q34 0 58.5 -7.5t40 -20t22.5 -28.5t7 -32q0 -21 -11.5 -36.5t-32.5 -15.5q-48 0 -48 56v20q0 15 -11.5 25.5t-28.5 10.5q-18 0 -33 -13t-15 -43q0 -25 5.5 -45.5t13.5 -39.5l16 -38t13 -41h108v-60h-104v-372
q0 -24 17 -38.5t47 -17.5v-12h-200v12q27 3 37.5 17.5t10.5 38.5v372h-68v60z" />
    <glyph glyph-name="f_f_h" unicode="ffh" horiz-adv-x="1168" 
d="M948 12q27 3 37.5 17.5t10.5 38.5v288q0 57 -23.5 80.5t-80.5 23.5q-22 0 -51 -6t-57 -22v-364q0 -24 13.5 -38.5t34.5 -17.5v-12h-184v12q27 3 37.5 17.5t10.5 38.5v556q0 24 -13.5 38.5t-34.5 17.5v12q39 9 69.5 23.5t54.5 32.5l12 -4v-287q42 29 93 46t99 17
q33 0 54 -10t33 -27.5t16.5 -42t4.5 -52.5v-320q0 -50 48 -56v-12h-184v12zM28 500h65q-3 17 -7.5 32.5t-8 31t-6.5 33.5t-3 39q0 28 10.5 49.5t27 35t38 20.5t44.5 7q34 0 59 -7.5t41.5 -20t24 -28.5t7.5 -32q0 -21 -11.5 -36.5t-32.5 -15.5q-48 0 -48 56v20
q0 15 -13.5 25.5t-30.5 10.5q-18 0 -35 -13t-17 -43q0 -25 5.5 -45.5t13.5 -39.5l16 -38t13 -41h108v-60h-104v-372q0 -24 17 -38.5t47 -17.5v-12h-200v12q27 3 37.5 17.5t10.5 38.5v372h-68v60zM328 500h65q-3 17 -7.5 32.5t-8 31t-6.5 33.5t-3 39q0 28 9.5 49.5t26 35
t37 20.5t43.5 7q34 0 58.5 -7.5t40 -20t22.5 -28.5t7 -32q0 -21 -11.5 -36.5t-32.5 -15.5q-48 0 -48 56v20q0 15 -11.5 25.5t-28.5 10.5q-18 0 -33 -13t-15 -43q0 -25 5.5 -45.5t13.5 -39.5l16 -38t13 -41h108v-60h-104v-372q0 -24 17 -38.5t47 -17.5v-12h-200v12
q27 3 37.5 17.5t10.5 38.5v372h-68v60z" />
    <glyph glyph-name="f_f_k" unicode="ffk" horiz-adv-x="1132" 
d="M948 12q32 6 32 24q0 6 -4 12.5l-12 19.5l-111 179l-69 -68v-111q0 -24 13.5 -38.5t34.5 -17.5v-12h-184v12q27 3 37.5 17.5t10.5 38.5v556q0 24 -13.5 38.5t-34.5 17.5v12q39 9 69.5 23.5t54.5 32.5l12 -4v-497l55 33l113 144q12 16 12 28q0 14 -11 23.5t-25 12.5v12
h176v-16q-27 -3 -44.5 -20t-39.5 -40l-110 -121l158 -235q17 -25 30.5 -39t37.5 -17v-12h-188v12zM28 500h65q-3 17 -7.5 32.5t-8 31t-6.5 33.5t-3 39q0 28 10.5 49.5t27 35t38 20.5t44.5 7q34 0 59 -7.5t41.5 -20t24 -28.5t7.5 -32q0 -21 -11.5 -36.5t-32.5 -15.5
q-48 0 -48 56v20q0 15 -13.5 25.5t-30.5 10.5q-18 0 -35 -13t-17 -43q0 -25 5.5 -45.5t13.5 -39.5l16 -38t13 -41h108v-60h-104v-372q0 -24 17 -38.5t47 -17.5v-12h-200v12q27 3 37.5 17.5t10.5 38.5v372h-68v60zM328 500h65q-3 17 -7.5 32.5t-8 31t-6.5 33.5t-3 39
q0 28 9.5 49.5t26 35t37 20.5t43.5 7q34 0 58.5 -7.5t40 -20t22.5 -28.5t7 -32q0 -21 -11.5 -36.5t-32.5 -15.5q-48 0 -48 56v20q0 15 -11.5 25.5t-28.5 10.5q-18 0 -33 -13t-15 -43q0 -25 5.5 -45.5t13.5 -39.5l16 -38t13 -41h108v-60h-104v-372q0 -24 17 -38.5t47 -17.5
v-12h-200v12q27 3 37.5 17.5t10.5 38.5v372h-68v60z" />
    <glyph glyph-name="f_f_t" unicode="fft" horiz-adv-x="928" 
d="M28 500h65q-3 17 -7.5 32.5t-8 31t-6.5 33.5t-3 39q0 28 10.5 49.5t27 35t38 20.5t44.5 7q34 0 59 -7.5t41.5 -20t24 -28.5t7.5 -32q0 -21 -11.5 -36.5t-32.5 -15.5q-48 0 -48 56v20q0 15 -13.5 25.5t-30.5 10.5q-18 0 -35 -13t-17 -43q0 -25 5.5 -45.5t13.5 -39.5
l16 -38t13 -41h108v-60h-104v-372q0 -24 17 -38.5t47 -17.5v-12h-200v12q27 3 37.5 17.5t10.5 38.5v372h-68v60zM328 500h65q-4 34 -10.5 63.5t-6.5 72.5q0 28 9.5 49.5t26 35t37 20.5t43.5 7q34 0 58.5 -7.5t40 -20t22.5 -28.5t7 -32q0 -21 -11.5 -36.5t-32.5 -15.5
q-48 0 -48 56v20q0 15 -11.5 25.5t-28.5 10.5q-18 0 -33 -13t-15 -43q0 -25 5 -45.5t11.5 -39.5l13 -38t10.5 -41h88v-60h-84v-372q0 -24 17 -38.5t47 -17.5v-12h-200v12q27 3 37.5 17.5t10.5 38.5v372h-68v60zM680 440h-76v24q46 19 74 52t43.5 70.5t21.5 75t9 66.5h16
v-228h108v-60h-108v-328q0 -36 18.5 -56t57.5 -20q15 0 30.5 3.5t33.5 12.5l8 -12q-27 -24 -57 -38t-75 -14q-54 0 -79 28t-25 88v336z" />
    <glyph glyph-name="f_f" unicode="ff" horiz-adv-x="604" 
d="M328 500h65q-4 34 -10.5 63.5t-6.5 72.5q0 54 36.5 83t87.5 29q36 0 61.5 -8t42 -21.5t24.5 -30t8 -32.5q0 -24 -13.5 -40t-34.5 -16q-24 0 -38 13t-14 43v32q0 18 -12.5 25t-27.5 7q-21 0 -38.5 -16t-17.5 -40q0 -25 5 -45.5t11.5 -39.5l13 -38t10.5 -41h108v-60h-104
v-372q0 -24 17 -38.5t47 -17.5v-12h-200v12q27 3 37.5 17.5t10.5 38.5v372h-68v60zM28 500h65q-3 17 -7.5 32.5t-8 31t-6.5 33.5t-3 39q0 28 10.5 49.5t27 35t38 20.5t44.5 7q34 0 59 -7.5t41.5 -20t24 -28.5t7.5 -32q0 -21 -11.5 -36.5t-32.5 -15.5q-48 0 -48 56v20
q0 15 -13.5 25.5t-30.5 10.5q-18 0 -35 -13t-17 -43q0 -25 5.5 -45.5t13.5 -39.5l16 -38t13 -41h108v-60h-104v-372q0 -24 17 -38.5t47 -17.5v-12h-200v12q27 3 37.5 17.5t10.5 38.5v372h-68v60z" />
    <glyph glyph-name="f_f_i" unicode="ffi" horiz-adv-x="880" 
d="M28 500h65q-3 17 -7.5 32.5t-8 31t-6.5 33.5t-3 39q0 28 10.5 49.5t27 35t38 20.5t44.5 7q34 0 59 -7.5t41.5 -20t24 -28.5t7.5 -32q0 -21 -11.5 -36.5t-32.5 -15.5q-48 0 -48 56v20q0 15 -13.5 25.5t-30.5 10.5q-18 0 -35 -13t-17 -43q0 -25 5.5 -45.5t13.5 -39.5
l16 -38t13 -41h108v-60h-104v-372q0 -24 17 -38.5t47 -17.5v-12h-200v12q27 3 37.5 17.5t10.5 38.5v372h-68v60zM328 500h65q-3 17 -7.5 32.5t-8 31t-6.5 33.5t-3 39q0 28 9.5 49.5t26 35t37 20.5t43.5 7q34 0 58.5 -7.5t40 -20t22.5 -28.5t7 -32q0 -21 -11.5 -36.5
t-32.5 -15.5q-48 0 -48 56v20q0 15 -11.5 25.5t-28.5 10.5q-18 0 -33 -13t-15 -43q0 -25 5.5 -45.5t13.5 -39.5l16 -38t13 -41h108v-60h-104v-372q0 -24 17 -38.5t47 -17.5v-12h-200v12q27 3 37.5 17.5t10.5 38.5v372h-68v60zM648 12q27 3 37.5 17.5t10.5 38.5v340
q0 46 -56 52v12q24 3 42.5 9.5t34 14t28.5 16t27 16.5l12 -4v-456q0 -50 48 -56v-12h-184v12zM740 728q27 0 43.5 -18t16.5 -42t-16.5 -42t-43.5 -18t-43.5 18t-16.5 42t16.5 42t43.5 18z" />
    <glyph glyph-name="f_f_l" unicode="ffl" horiz-adv-x="884" 
d="M28 500h65q-3 17 -7.5 32.5t-8 31t-6.5 33.5t-3 39q0 28 10.5 49.5t27 35t38 20.5t44.5 7q34 0 59 -7.5t41.5 -20t24 -28.5t7.5 -32q0 -21 -11.5 -36.5t-32.5 -15.5q-48 0 -48 56v20q0 15 -13.5 25.5t-30.5 10.5q-18 0 -35 -13t-17 -43q0 -25 5.5 -45.5t13.5 -39.5
l16 -38t13 -41h108v-60h-104v-372q0 -24 17 -38.5t47 -17.5v-12h-200v12q27 3 37.5 17.5t10.5 38.5v372h-68v60zM328 500h65q-3 17 -7.5 32.5t-8 31t-6.5 33.5t-3 39q0 28 9.5 49.5t26 35t37 20.5t43.5 7q34 0 58.5 -7.5t40 -20t22.5 -28.5t7 -32q0 -21 -11.5 -36.5
t-32.5 -15.5q-48 0 -48 56v20q0 15 -11.5 25.5t-28.5 10.5q-18 0 -33 -13t-15 -43q0 -25 5.5 -45.5t13.5 -39.5l16 -38t13 -41h108v-60h-104v-372q0 -24 17 -38.5t47 -17.5v-12h-200v12q27 3 37.5 17.5t10.5 38.5v372h-68v60zM648 12q27 3 37.5 17.5t10.5 38.5v556
q0 24 -13.5 38.5t-34.5 17.5v12q39 9 69.5 23.5t54.5 32.5l12 -4v-676q0 -24 13.5 -38.5t34.5 -17.5v-12h-184v12z" />
    <glyph glyph-name="f_i" unicode="fi" 
d="M28 500h65q-3 17 -7.5 32.5t-8 31t-6.5 33.5t-3 39q0 28 9.5 49.5t26 35t37 20.5t43.5 7q34 0 58.5 -7.5t40 -20t22.5 -28.5t7 -32q0 -21 -11.5 -36.5t-32.5 -15.5q-48 0 -48 56v20q0 15 -11.5 25.5t-28.5 10.5q-18 0 -33 -13t-15 -43q0 -25 5.5 -45.5t13.5 -39.5l16 -38
t13 -41h108v-60h-104v-372q0 -24 17 -38.5t47 -17.5v-12h-200v12q27 3 37.5 17.5t10.5 38.5v372h-68v60zM348 12q27 3 37.5 17.5t10.5 38.5v340q0 46 -56 52v12q24 3 42.5 9.5t34 14t28.5 16t27 16.5l12 -4v-456q0 -50 48 -56v-12h-184v12zM440 608q-27 0 -43.5 18t-16.5 42
t16.5 42t43.5 18t43.5 -18t16.5 -42t-16.5 -42t-43.5 -18z" />
    <glyph glyph-name="f_l" unicode="fl" horiz-adv-x="584" 
d="M28 500h65q-3 17 -7.5 32.5t-8 31t-6.5 33.5t-3 39q0 28 9.5 49.5t26 35t37 20.5t43.5 7q34 0 58.5 -7.5t40 -20t22.5 -28.5t7 -32q0 -21 -11.5 -36.5t-32.5 -15.5q-48 0 -48 56v20q0 15 -11.5 25.5t-28.5 10.5q-18 0 -33 -13t-15 -43q0 -25 5.5 -45.5t13.5 -39.5l16 -38
t13 -41h108v-60h-104v-372q0 -24 17 -38.5t47 -17.5v-12h-200v12q27 3 37.5 17.5t10.5 38.5v372h-68v60zM348 12q27 3 37.5 17.5t10.5 38.5v556q0 24 -13.5 38.5t-34.5 17.5v12q39 9 69.5 23.5t54.5 32.5l12 -4v-676q0 -24 13.5 -38.5t34.5 -17.5v-12h-184v12z" />
    <glyph glyph-name=".notdef" horiz-adv-x="673" 
d="M0 680h673v-680h-673v680zM339 296l119 -123l49 50l-120 123l120 124l-49 48l-119 -122l-120 122l-49 -48l118 -124l-118 -123l49 -50z" />
    <glyph glyph-name=".null" horiz-adv-x="0" 
 />
    <glyph glyph-name="nonmarkingreturn" horiz-adv-x="280" 
 />
    <glyph glyph-name="space" unicode=" " horiz-adv-x="280" 
 />
    <glyph glyph-name="B" unicode="B" horiz-adv-x="592" 
d="M40 12q52 6 52 56v600q0 50 -52 56v12h236q64 0 109 -13.5t73.5 -36t41 -52t12.5 -62.5q0 -65 -34 -102.5t-92 -55.5q34 -9 64 -24t52.5 -38.5t36 -58.5t13.5 -85q0 -42 -16.5 -80t-48 -66.5t-79 -45t-108.5 -16.5h-260v12zM452 208q0 85 -41 132.5t-119 47.5l-104 -12
v-292q0 -30 33.5 -43t78.5 -13q39 0 67.5 15.5t47.5 41t28 58t9 65.5zM276 708q-15 0 -30.5 -3t-28.5 -10t-21 -17.5t-8 -25.5v-228h104q30 0 52.5 13t37.5 34t22.5 47.5t7.5 53.5t-8.5 51.5t-25 43.5t-42.5 30t-60 11z" />
    <glyph glyph-name="C" unicode="C" horiz-adv-x="632" 
d="M580 228l4 -184q-15 -14 -42.5 -24t-59 -17.5t-63 -11t-55.5 -3.5q-66 0 -123.5 24t-100.5 71t-67.5 117.5t-24.5 163.5q0 94 26 166t69.5 120.5t101.5 73t123 24.5q24 0 54.5 -3.5t61 -10.5t57 -16.5t43.5 -21.5l-4 -156h-16q-8 33 -26.5 64.5t-44.5 56.5t-58.5 40
t-66.5 15q-42 0 -81 -20t-69 -63t-48 -109.5t-18 -159.5q0 -75 17.5 -138t46.5 -109t67.5 -71.5t80.5 -25.5q34 0 66.5 12t59 37.5t46 65t28.5 93.5h16z" />
    <glyph glyph-name="D" unicode="D" horiz-adv-x="708" 
d="M40 12q52 6 52 56v600q0 50 -52 56v12h264q88 0 156 -27t114.5 -75.5t70 -115.5t23.5 -146q0 -78 -23.5 -146t-70 -118t-114.5 -79t-156 -29h-264v12zM304 704q-15 0 -35 -2t-38 -7t-30.5 -14.5t-12.5 -24.5v-579q1 -14 14 -23t30.5 -14t37 -6.5t34.5 -1.5q49 0 96 22
t83.5 65.5t58.5 106.5t22 146q0 85 -22 148t-58.5 103.5t-83.5 60.5t-96 20z" />
    <glyph glyph-name="E" unicode="E" horiz-adv-x="544" 
d="M40 12q52 6 52 56v600q0 50 -52 56v12h448l16 -164h-12q-24 66 -75.5 99t-120.5 33q-48 0 -77 -8.5t-31 -36.5v-227h144q24 0 38.5 15.5t17.5 36.5h12v-144h-12q-6 52 -56 52h-144v-312q0 -30 30 -39t78 -9q34 0 67 11.5t61.5 31.5t50 48t33.5 61h12l-16 -184h-464v12z
" />
    <glyph glyph-name="F" unicode="F" horiz-adv-x="512" 
d="M40 12q52 6 52 56v600q0 50 -52 56v12h448l16 -164h-12q-24 66 -75.5 99t-120.5 33q-48 0 -77 -8.5t-31 -36.5v-235h132q24 0 38.5 15.5t17.5 36.5h12v-144h-12q-6 52 -56 52h-132v-316q0 -27 20.5 -41.5t47.5 -14.5v-12h-216v12z" />
    <glyph glyph-name="G" unicode="G" horiz-adv-x="716" 
d="M672 64q-38 -20 -72.5 -34t-70 -23.5t-74 -14t-83.5 -4.5q-72 0 -131.5 24t-102.5 71t-66.5 117.5t-23.5 163.5q0 94 27.5 166t74 120.5t106 73t124.5 24.5q24 0 55 -3.5t62.5 -10.5t58.5 -16.5t44 -21.5l-4 -156h-16q-8 33 -27 64.5t-46 56.5t-60 40t-67 15
q-42 0 -83 -20t-73 -63t-52 -109.5t-20 -159.5q0 -84 18.5 -148.5t49.5 -108t70.5 -65.5t81.5 -22q69 0 112.5 32t43.5 92v192q0 50 -52 56v12h200v-12q-21 -3 -36.5 -17.5t-15.5 -38.5v-204q0 -30 13.5 -41.5t34.5 -14.5v-12z" />
    <glyph glyph-name="H" unicode="H" horiz-adv-x="716" 
d="M40 12q52 6 52 56v600q0 50 -52 56v12h200v-12q-21 -3 -36.5 -17.5t-15.5 -38.5v-252h340v252q0 50 -52 56v12h200v-12q-21 -3 -36.5 -17.5t-15.5 -38.5v-600q0 -24 15.5 -38.5t36.5 -17.5v-12h-200v12q52 6 52 56v308h-340v-308q0 -24 15.5 -38.5t36.5 -17.5v-12h-200
v12z" />
    <glyph glyph-name="I" unicode="I" horiz-adv-x="280" 
d="M40 12q52 6 52 56v600q0 50 -52 56v12h200v-12q-21 -3 -36.5 -17.5t-15.5 -38.5v-600q0 -24 15.5 -38.5t36.5 -17.5v-12h-200v12z" />
    <glyph glyph-name="J" unicode="J" horiz-adv-x="272" 
d="M-20 -200q54 69 83 157t29 191v520q0 50 -52 56v12h200v-12q-21 -3 -36.5 -17.5t-15.5 -38.5v-520q0 -111 -47.5 -204t-152.5 -156z" />
    <glyph glyph-name="K" unicode="K" horiz-adv-x="620" 
d="M612 -60q-68 27 -122.5 72.5t-96.5 103t-72.5 124t-50.5 135.5l-82 -87v-220q0 -24 15.5 -38.5t36.5 -17.5v-12h-200v12q52 6 52 56v600q0 50 -52 56v12h200v-12q-21 -3 -36.5 -17.5t-15.5 -38.5v-308l64 40l184 264q12 18 12 32q0 9 -9.5 17t-30.5 11v12h168v-12
q-24 -6 -42.5 -20.5t-33.5 -35.5l-153 -196q13 -43 30 -93t38.5 -100.5t45.5 -100.5t50.5 -93.5t53.5 -78t55 -54.5z" />
    <glyph glyph-name="L" unicode="L" horiz-adv-x="548" 
d="M40 12q52 6 52 56v600q0 50 -52 56v12h208v-12q-24 -3 -42 -16t-18 -40v-588q0 -30 32 -39t80 -9q36 0 68.5 13.5t59 37t46 55.5t30.5 70h12l-28 -208h-448v12z" />
    <glyph glyph-name="M" unicode="M" horiz-adv-x="860" 
d="M195 599l-63 -531q-3 -24 10 -38.5t34 -17.5v-12h-156v12q54 6 60 56l80 600q3 24 -11 38.5t-41 17.5v12h144l181 -589l195 589h136v-12q-27 -3 -41 -17.5t-11 -38.5l72 -600q3 -24 16 -38.5t40 -17.5v-12h-208v12q21 3 36 17.5t12 38.5l-59 509l-185 -577h-56z" />
    <glyph glyph-name="N" unicode="N" horiz-adv-x="672" 
d="M137 622l7 -554q0 -24 15.5 -38.5t36.5 -17.5v-12h-156v12q52 6 52 56v600q0 50 -52 56v12h144l358 -584l-6 516q0 50 -52 56v12h156v-12q-21 -3 -36.5 -17.5t-15.5 -38.5v-668h-68z" />
    <glyph glyph-name="O" unicode="O" horiz-adv-x="720" 
d="M360 -12q-78 0 -136.5 31t-97.5 83.5t-58.5 120t-19.5 141.5q0 73 19.5 142.5t58.5 123t97.5 86t136.5 32.5t136.5 -32t97.5 -84.5t58.5 -121.5t19.5 -142q0 -74 -19.5 -142.5t-58.5 -121t-97.5 -84.5t-136.5 -32zM360 20q46 0 84.5 23.5t66 68t42.5 109t15 147.5
q0 82 -15 147t-42.5 109.5t-66 68t-84.5 23.5q-47 0 -85 -24t-65.5 -69.5t-42.5 -111t-15 -147.5q0 -83 15 -147t42.5 -107.5t65.5 -66.5t85 -23z" />
    <glyph glyph-name="P" unicode="P" horiz-adv-x="588" 
d="M40 12q52 6 52 56v600q0 50 -52 56v12h232q127 0 197.5 -58.5t70.5 -161.5q0 -42 -14.5 -80.5t-40 -67.5t-62 -46.5t-79.5 -17.5q-33 0 -54 6.5t-42 21.5l4 16q12 -3 24 -3.5t24 -0.5q31 0 57 13.5t44.5 36.5t28.5 54.5t10 67.5q0 39 -11.5 73t-33.5 59.5t-53 40.5
t-70 15q-15 0 -29.5 -2t-26.5 -7t-19.5 -13.5t-8.5 -22.5v-591q0 -27 20.5 -41.5t47.5 -14.5v-12h-216v12z" />
    <glyph glyph-name="Q" unicode="Q" horiz-adv-x="720" 
d="M360 -12q-78 0 -136.5 31t-97.5 83.5t-58.5 120t-19.5 141.5q0 73 19.5 142.5t58.5 123t97.5 86t136.5 32.5t136.5 -32t97.5 -84.5t58.5 -121.5t19.5 -142q0 -60 -13 -117t-39 -105.5t-65 -85t-91 -55.5q19 -33 42 -64t48.5 -58t52 -48.5t53.5 -34.5l-8 -12
q-85 20 -160.5 73t-128.5 127h-3zM412 132q10 -42 32 -89q57 35 90.5 117.5t33.5 207.5q0 82 -15 147t-42.5 109.5t-66 68t-84.5 23.5q-47 0 -85 -24t-65.5 -69.5t-42.5 -111t-15 -147.5q0 -158 52 -246.5t138 -96.5q-10 17 -18.5 34.5t-15.5 36.5z" />
    <glyph glyph-name="R" unicode="R" horiz-adv-x="608" 
d="M40 12q52 6 52 56v600q0 50 -52 56v12h240q127 0 193.5 -49t66.5 -143q0 -72 -36.5 -126t-104.5 -73q17 -60 38.5 -117.5t49 -109t60.5 -94t73 -72.5l-8 -12q-68 27 -118 66.5t-86.5 90t-63 110t-45.5 127.5l-111 -14v-252q0 -24 15.5 -38.5t36.5 -17.5v-12h-200v12z
M280 708q-15 0 -30.5 -3t-29 -9.5t-22.5 -16.5t-10 -24v-283h128q31 0 54.5 15.5t39 40.5t23 55.5t7.5 60.5q0 37 -12 67.5t-33.5 52t-51 33t-63.5 11.5z" />
    <glyph glyph-name="S" unicode="S" horiz-adv-x="528" 
d="M60 212h16q6 -45 23.5 -80.5t42 -60.5t53 -38t57.5 -13q60 0 96 38.5t36 101.5q0 40 -14.5 70.5t-38 54t-54 42.5t-61.5 37q-32 18 -62 38t-53.5 45t-38 57t-14.5 76q0 33 14.5 63.5t41 53.5t64 37t84.5 14q24 0 50 -3t51.5 -9t49 -15t41.5 -21l-4 -160h-16
q-8 33 -22.5 64.5t-36.5 56.5t-50.5 40t-62.5 15q-51 0 -81.5 -33.5t-30.5 -90.5q0 -30 12.5 -53t33 -41.5t47 -34t55.5 -31.5q34 -19 68.5 -40t62 -49t44.5 -65.5t17 -89.5q0 -47 -16.5 -84t-46.5 -62.5t-72 -39.5t-93 -14q-27 0 -56 3.5t-56 9.5t-50 14t-38 17z" />
    <glyph glyph-name="T" unicode="T" horiz-adv-x="584" 
d="M36 736h512l16 -164h-12q-24 66 -60.5 99t-75.5 33q-40 0 -57 -8t-19 -34v-594q0 -27 20.5 -41.5t47.5 -14.5v-12h-232v12q27 0 47.5 14.5t20.5 41.5v588q0 30 -17 39t-59 9q-39 0 -75.5 -33t-60.5 -99h-12z" />
    <glyph glyph-name="U" unicode="U" horiz-adv-x="680" 
d="M84 668q0 50 -52 56v12h200v-12q-21 -3 -36.5 -17.5t-15.5 -38.5v-436q0 -59 17 -98.5t43 -64t58 -35t62 -10.5q33 0 66 10t59 34.5t42.5 65t16.5 102.5v432q0 50 -52 56v12h156v-12q-21 -3 -36.5 -17.5t-15.5 -38.5v-432q0 -65 -18.5 -111.5t-50 -77t-75 -45
t-92.5 -14.5q-60 0 -110.5 14.5t-87.5 44.5t-57.5 76t-20.5 109v436z" />
    <glyph glyph-name="V" unicode="V" horiz-adv-x="644" 
d="M288 0l-216 668q-17 50 -60 56v12h204v-12q-46 -5 -46 -41q0 -5 2 -15l173 -563l167 563q3 9 3 17q0 18 -13.5 27.5t-33.5 11.5v12h168v-12q-30 -6 -43 -18.5t-21 -37.5l-216 -668h-68z" />
    <glyph glyph-name="W" unicode="W" horiz-adv-x="976" 
d="M272 0l-192 668q-19 50 -60 56v12h200v-12q-46 -5 -46 -41q0 -5 2 -15l151 -564l147 430l-42 134q-19 50 -60 56v12h200v-12q-47 -5 -47 -39q0 -8 3 -17l164 -558l144 558q2 5 3 10.5t1 9.5q0 17 -14 25.5t-34 10.5v12h168v-12q-30 -6 -43.5 -18.5t-20.5 -37.5l-192 -668
h-64l-140 448l-164 -448h-64z" />
    <glyph glyph-name="X" unicode="X" horiz-adv-x="632" 
d="M420 12q18 3 25 9t7 15q0 18 -12 36l-151 253l-141 -253q-12 -18 -12 -32q0 -9 9 -17t27 -11v-12h-160v12q27 6 42 20.5t30 35.5l181 296l-181 304q-25 44 -68 56v12h200v-12q-18 -3 -25 -9t-7 -15q0 -18 12 -36l136 -229l132 229q12 18 12 32q0 9 -9 17t-27 11v12h164
v-12q-27 -6 -42.5 -20t-29.5 -36l-177 -272l197 -328q25 -44 68 -56v-12h-200v12z" />
    <glyph glyph-name="Y" unicode="Y" horiz-adv-x="608" 
d="M428 736h168v-12q-30 -6 -42.5 -19.5t-25.5 -36.5l-184 -340v-260q0 -27 20.5 -41.5t47.5 -14.5v-12h-232v12q27 0 47.5 14.5t20.5 41.5v256l-172 344q-12 24 -27.5 38.5t-36.5 17.5v12h204v-12q-21 -2 -32.5 -12.5t-11.5 -25.5q0 -10 4 -18l144 -288l148 288q5 12 5 20
q0 16 -13 25t-32 11v12z" />
    <glyph glyph-name="Z" unicode="Z" horiz-adv-x="564" 
d="M32 12l368 688h-156q-45 0 -76 -8.5t-53 -25t-36.5 -41t-26.5 -57.5h-12l12 168h468l4 -12l-372 -688h160q84 0 136 43t76 109h12l-16 -188h-484z" />
    <glyph glyph-name="ampersand" unicode="&#x26;" horiz-adv-x="717" 
d="M104 580q0 78 47 123t125 45t125 -45t47 -123q0 -58 -26 -96.5t-72 -55.5q71 -13 103 -65t43 -139q2 -20 7 -46t13 -49q26 46 37 107.5t11 135.5q0 24 -8.5 38.5t-35.5 17.5v12h168v-12q-44 -6 -44 -56q0 -35 -4.5 -73.5t-15 -77.5t-29 -75.5t-45.5 -66.5
q28 -25 62 -43.5t85 -31.5l-4 -16q-68 0 -115.5 12t-81.5 34q-33 -22 -75.5 -34t-96.5 -12q-51 0 -101 13.5t-90 42t-64.5 72.5t-24.5 104q0 83 43 136t121 70q-49 16 -76.5 55t-27.5 99zM324 20q83 0 137 42q-31 32 -45.5 70.5t-19.5 79.5q-6 46 -13.5 83.5t-21 63
t-34 39.5t-51.5 14q-70 0 -101 -49t-31 -143q0 -42 15 -78.5t40.5 -63.5t57.5 -42.5t67 -15.5zM196 580q0 -29 4.5 -55t14.5 -46t25 -31.5t36 -11.5t36 11t25 30.5t14.5 46t4.5 56.5q0 29 -4.5 55t-14.5 46t-25 31.5t-36 11.5t-36 -11.5t-25 -31t-14.5 -45.5t-4.5 -56z" />
    <glyph glyph-name="AE" unicode="&#xc6;" horiz-adv-x="884" 
d="M0 12q30 6 44.5 19.5t27.5 36.5l320 564q5 9 10.5 19.5t5.5 24.5q0 25 -18.5 33.5t-41.5 10.5v16h480l16 -164h-12q-24 66 -75.5 99t-120.5 33q-48 0 -78 -9t-30 -39v-224h144q24 0 38.5 15.5t17.5 36.5h12v-144h-12q-6 52 -56 52h-144v-315q2 -29 31 -37t77 -8
q34 0 67 11.5t61.5 31.5t50 48t33.5 61h12l-16 -184h-464v12q52 6 52 56v136h-220l-72 -136q-3 -6 -5.5 -12.5t-2.5 -11.5q0 -15 13 -22.5t31 -9.5v-12h-176v12zM432 244v370l-198 -370h198z" />
    <glyph glyph-name="OE" unicode="&#x152;" horiz-adv-x="996" 
d="M348 -12q-78 0 -134.5 31t-93.5 83.5t-54.5 120t-17.5 141.5q0 73 17.5 142.5t54.5 123t93.5 86t134.5 32.5q68 0 117 -24t83 -65v77h392l16 -164h-12q-24 66 -75.5 99t-120.5 33q-48 0 -78 -9t-30 -39v-224h144q24 0 38.5 15.5t17.5 36.5h12v-144h-12q-6 52 -56 52h-144
v-315q2 -29 31 -37t77 -8q34 0 67 11.5t61.5 31.5t50 48t33.5 61h12l-16 -184h-408v77q-34 -42 -83 -65.5t-117 -23.5zM348 20q94 0 145 91t51 257t-51 257t-145 91q-47 0 -83 -24t-61.5 -69.5t-38.5 -111t-13 -147.5q0 -166 51 -255t145 -89z" />
    <glyph glyph-name="Eth" unicode="&#xd0;" horiz-adv-x="708" 
d="M20 392h72v276q0 50 -52 56v12h264q88 0 156 -27t114.5 -75.5t70 -115.5t23.5 -146q0 -78 -23.5 -146t-70 -118t-114.5 -79t-156 -29h-264v12q52 6 52 56v288h-72v36zM304 704q-15 0 -35 -2t-38 -7t-30.5 -14.5t-12.5 -24.5v-264h152v-36h-152v-276q0 -15 12.5 -24.5
t30.5 -14.5t38 -7t35 -2q49 0 96 22t83.5 65.5t58.5 106.5t22 146q0 85 -22 148t-58.5 103.5t-83.5 60.5t-96 20z" />
    <glyph glyph-name="Dcroat" unicode="&#x110;" horiz-adv-x="708" 
d="M20 392h72v276q0 50 -52 56v12h264q88 0 156 -27t114.5 -75.5t70 -115.5t23.5 -146q0 -78 -23.5 -146t-70 -118t-114.5 -79t-156 -29h-264v12q52 6 52 56v288h-72v36zM304 704q-15 0 -35 -2t-38 -7t-30.5 -14.5t-12.5 -24.5v-264h152v-36h-152v-276q0 -15 12.5 -24.5
t30.5 -14.5t38 -7t35 -2q49 0 96 22t83.5 65.5t58.5 106.5t22 146q0 85 -22 148t-58.5 103.5t-83.5 60.5t-96 20z" />
    <glyph glyph-name="Hbar" unicode="&#x126;" horiz-adv-x="716" 
d="M20 572h72v96q0 50 -52 56v12h200v-12q-21 -3 -36.5 -17.5t-15.5 -38.5v-96h340v96q0 50 -52 56v12h200v-12q-21 -3 -36.5 -17.5t-15.5 -38.5v-96h72v-36h-72v-468q0 -24 15.5 -38.5t36.5 -17.5v-12h-200v12q52 6 52 56v308h-340v-308q0 -24 15.5 -38.5t36.5 -17.5v-12
h-200v12q52 6 52 56v468h-72v36zM188 416h340v120h-340v-120z" />
    <glyph glyph-name="IJ" unicode="&#x132;" horiz-adv-x="552" 
d="M40 12q52 6 52 56v600q0 50 -52 56v12h200v-12q-21 -3 -36.5 -17.5t-15.5 -38.5v-600q0 -24 15.5 -38.5t36.5 -17.5v-12h-200v12zM260 -200q54 69 83 157t29 191v520q0 50 -52 56v12h200v-12q-21 -3 -36.5 -17.5t-15.5 -38.5v-520q0 -111 -47.5 -204t-152.5 -156z" />
    <glyph glyph-name="Lslash" unicode="&#x141;" horiz-adv-x="556" 
d="M28 308l72 42v318q0 50 -52 56v12h208v-12q-24 -3 -42 -16t-18 -40v-269l168 101v-44l-168 -101v-278q2 -29 33 -37t79 -8q36 0 68.5 13.5t59 37t46 55.5t30.5 70h12l-28 -208h-448v12q52 6 52 56v238l-72 -42v44z" />
    <glyph glyph-name="Ldot" unicode="&#x13f;" horiz-adv-x="548" 
d="M40 12q52 6 52 56v600q0 50 -52 56v12h208v-12q-24 -3 -42 -16t-18 -40v-588q0 -30 32 -39t80 -9q36 0 68.5 13.5t59 37t46 55.5t30.5 70h12l-28 -208h-448v12zM312 376q0 26 17.5 45t46.5 19t46.5 -19t17.5 -45t-17.5 -45t-46.5 -19t-46.5 19t-17.5 45z" />
    <glyph glyph-name="Lcaron" unicode="&#x13d;" horiz-adv-x="548" 
d="M40 12q52 6 52 56v600q0 50 -52 56v12h208v-12q-24 -3 -42 -16t-18 -40v-591q2 -29 33 -37t79 -8q36 0 68.5 13.5t59 37t46 55.5t30.5 70h12l-28 -208h-448v12zM338 568q41 3 61.5 20.5t20.5 35.5q0 15 -10 22t-22 13t-22 15t-10 28q0 20 15.5 33t36.5 13
q27 0 42.5 -16.5t15.5 -43.5v-8q0 -30 -5.5 -54t-20 -41t-39.5 -27.5t-63 -13.5v24z" />
    <glyph glyph-name="Eng" unicode="&#x14a;" horiz-adv-x="672" 
d="M588 148q0 -69 -8 -126t-33.5 -102t-72 -78t-122.5 -54l-8 12q34 23 62 45t50.5 45t39 49t27.5 58l-386 625l7 -554q0 -24 15.5 -38.5t36.5 -17.5v-12h-156v12q52 6 52 56v600q0 50 -52 56v12h144l360 -586l-8 518q0 50 -52 56v12h156v-12q-21 -3 -36.5 -17.5
t-15.5 -38.5v-520z" />
    <glyph glyph-name="Oslash" unicode="&#xd8;" horiz-adv-x="720" 
d="M80 4l58 83q-45 54 -67.5 125.5t-22.5 151.5q0 73 19.5 142.5t58.5 123t97.5 86t136.5 32.5q60 0 107.5 -19t84.5 -52l56 79l32 -28l-58 -82q45 -54 67.5 -126.5t22.5 -151.5q0 -74 -19.5 -142.5t-58.5 -121t-97.5 -84.5t-136.5 -32q-60 0 -107.5 18t-84.5 50l-56 -80z
M152 364q0 -124 34 -209l327 465q-28 47 -66.5 71.5t-86.5 24.5q-47 0 -85 -24t-65.5 -69.5t-42.5 -111t-15 -147.5zM360 20q46 0 84.5 23.5t66 68t42.5 109t15 147.5q0 124 -34 209l-327 -465q57 -92 153 -92z" />
    <glyph glyph-name="Tbar" unicode="&#x166;" horiz-adv-x="584" 
d="M36 736h512l16 -164h-12q-24 66 -60.5 99t-75.5 33q-40 0 -57 -8t-19 -34v-270h152v-36h-152v-288q0 -27 20.5 -41.5t47.5 -14.5v-12h-232v12q27 0 47.5 14.5t20.5 41.5v288h-152v36h152v264q0 30 -17 39t-59 9q-39 0 -75.5 -33t-60.5 -99h-12z" />
    <glyph glyph-name="Thorn" unicode="&#xde;" horiz-adv-x="588" 
d="M40 12q52 6 52 56v600q0 50 -52 56v12h200v-12q-21 -3 -36.5 -17.5t-15.5 -38.5v-64h84q127 0 197.5 -58.5t70.5 -161.5q0 -42 -14.5 -80.5t-40 -67.5t-62 -46.5t-79.5 -17.5q-33 0 -54 6.5t-42 21.5l4 16q12 -3 24 -3.5t24 -0.5q31 0 57 13.5t44.5 36.5t28.5 54.5
t10 67.5q0 39 -11.5 73t-33.5 59.5t-53 40.5t-70 15q-15 0 -29.5 -2t-26.5 -7t-19.5 -13.5t-8.5 -22.5v-459q0 -24 15.5 -38.5t36.5 -17.5v-12h-200v12z" />
    <glyph glyph-name="Uogonek" unicode="&#x172;" horiz-adv-x="680" 
d="M520 -168q-21 -28 -53.5 -46t-70.5 -18q-24 0 -45.5 5t-38 15.5t-26.5 27.5t-10 40q0 21 8 40t21.5 35.5t31 29.5t35.5 23l9 5q-5 -1 -10.5 -1h-10.5q-60 0 -110.5 14.5t-87.5 44.5t-57.5 76t-20.5 109v436q0 50 -52 56v12h200v-12q-21 -3 -36.5 -17.5t-15.5 -38.5v-436
q0 -59 17 -98.5t43 -64t58 -35t62 -10.5q33 0 66 10t59 34.5t42.5 65t16.5 102.5v432q0 50 -52 56v12h156v-12q-21 -3 -36.5 -17.5t-15.5 -38.5v-432q0 -87 -30 -137.5t-77 -79.5l-81 -51q-29 -17 -42.5 -42.5t-13.5 -55.5q0 -32 19 -45t45 -13q24 0 49.5 9t42.5 23z" />
    <glyph glyph-name="a" unicode="a" horiz-adv-x="492" 
d="M108 340q-27 0 -35.5 17.5t-8.5 38.5q0 19 12 41t34.5 40.5t54.5 30.5t71 12q172 0 172 -152v-284q0 -30 12.5 -41t27.5 -11q9 0 20 2.5t20 5.5l4 -8q-15 -21 -43 -32.5t-49 -11.5q-30 0 -50.5 15.5t-27.5 50.5q-56 -66 -134 -66q-69 0 -106.5 32.5t-37.5 95.5
q0 37 17.5 64t46 45.5t64.5 30t72 19.5l76 16v73q0 57 -19.5 92.5t-64.5 35.5q-31 0 -51 -13t-29 -31v-48q0 -60 -48 -60zM208 40q25 0 55.5 8.5t56.5 28.5v177l-68 -20q-58 -17 -89 -41.5t-31 -72.5q0 -80 76 -80z" />
    <glyph glyph-name="b" unicode="b" horiz-adv-x="548" 
d="M260 -12q-23 0 -51 3t-57 8.5t-57.5 13.5t-50.5 19v12q27 3 37.5 17.5t10.5 38.5v528q0 24 -14 36.5t-38 15.5v12q45 6 73 23.5t55 32.5l12 -4v-287q20 23 48 37t64 14q43 0 82 -13.5t67.5 -43t45.5 -77t17 -114.5q0 -65 -18 -115.5t-50 -85t-77 -53t-99 -18.5zM268 460
q-33 0 -54.5 -10.5t-33.5 -25.5v-324q0 -42 22 -63t58 -21t63.5 18t46.5 49.5t28.5 75.5t9.5 97q0 97 -38.5 150.5t-101.5 53.5z" />
    <glyph glyph-name="c" unicode="c" horiz-adv-x="464" 
d="M420 120q-24 -69 -65 -100.5t-107 -31.5q-50 0 -88 18.5t-63.5 53t-39 83.5t-13.5 109t15.5 109.5t44 84.5t67 54.5t85.5 19.5q36 0 66 -8t52 -22t34 -34t12 -44q0 -27 -16.5 -41.5t-35.5 -14.5q-14 0 -26.5 8.5t-17.5 31.5l-16 72q-14 12 -30 16t-30 4q-27 0 -49 -14
t-38 -39t-24.5 -58.5t-8.5 -72.5q0 -72 13 -120.5t35.5 -77.5t51 -41.5t60.5 -12.5q45 0 72 22.5t48 49.5z" />
    <glyph glyph-name="d" unicode="d" horiz-adv-x="540" 
d="M372 43q-21 -25 -52 -40t-68 -15q-44 0 -81.5 14t-66 44.5t-44.5 78t-16 115.5q0 60 16.5 109.5t46.5 84.5t72 54.5t93 19.5q24 0 52.5 -6.5t43.5 -21.5v148q0 24 -16.5 36.5t-43.5 15.5v12q45 6 78.5 23.5t57.5 32.5l12 -4v-676q0 -27 14.5 -40t41.5 -16v-12h-140v43z
M280 32q30 0 53 10.5t35 25.5v388q-12 6 -29 9t-35 3q-39 0 -70 -17t-53 -47t-33.5 -71t-11.5 -89t10 -87t29 -67t45.5 -43t59.5 -15z" />
    <glyph glyph-name="e" unicode="e" horiz-adv-x="480" 
d="M132 296q1 -70 15.5 -116.5t38 -75t53.5 -40.5t61 -12q22 0 42.5 6.5t37.5 17t31 23.5t25 25l8 -4q-21 -66 -69.5 -99t-114.5 -33q-50 0 -89.5 18.5t-68 53t-43.5 83.5t-15 109q0 63 16.5 112.5t45 84t68 53t86.5 18.5q45 0 78.5 -16t56 -43.5t34 -64t11.5 -76.5v-20
l-4 -4h-304zM256 492q-51 0 -84.5 -45t-38.5 -119l183 4q12 0 22 16t10 40q0 21 -7.5 40t-20.5 33t-29.5 22.5t-34.5 8.5z" />
    <glyph glyph-name="f" unicode="f" horiz-adv-x="304" 
d="M28 500h65q-4 34 -10.5 63.5t-6.5 72.5q0 54 36.5 83t87.5 29q36 0 61.5 -8t42 -21.5t24.5 -30t8 -32.5q0 -24 -13.5 -40t-34.5 -16q-24 0 -38 13t-14 43v32q0 18 -12.5 25t-27.5 7q-21 0 -38.5 -16t-17.5 -40q0 -25 5 -45.5t11.5 -39.5l13 -38t10.5 -41h108v-60h-104
v-372q0 -24 17 -38.5t47 -17.5v-12h-200v12q27 3 37.5 17.5t10.5 38.5v372h-68v60z" />
    <glyph glyph-name="g" unicode="g" horiz-adv-x="524" 
d="M240 -212q-106 0 -167 25t-61 79q0 18 8.5 36.5t26 34.5t45 28t65.5 17q-43 11 -70 30.5t-27 49.5q0 33 24.5 54t81.5 43q-60 17 -91 58.5t-31 104.5q0 81 51.5 126.5t148.5 45.5q64 0 110 -23q8 38 36.5 56.5t65.5 18.5q36 0 54 -18.5t18 -45.5q0 -21 -13.5 -42.5
t-34.5 -33.5l-4 4q1 3 2 7q2 8 2 17q0 18 -11.5 37t-44.5 19q-15 0 -29.5 -7.5t-22.5 -21.5q68 -45 68 -139q0 -81 -51 -126.5t-145 -45.5q-24 0 -45 3q-32 -14 -45.5 -28t-13.5 -27q0 -18 14 -27t50 -17l140 -32q69 -16 106.5 -45.5t37.5 -86.5t-63.5 -92.5t-184.5 -35.5z
M244 204q45 0 74.5 34.5t29.5 109.5t-29.5 109.5t-74.5 34.5q-48 0 -76 -34.5t-28 -109.5t28 -109.5t76 -34.5zM192 0q-54 -14 -77 -43.5t-23 -60.5q0 -33 38 -54.5t110 -21.5q31 0 60 5.5t51.5 16t35.5 24t13 30.5q0 33 -28 51t-76 29z" />
    <glyph glyph-name="h" unicode="h" horiz-adv-x="564" 
d="M344 12q27 3 37.5 17.5t10.5 38.5v288q0 57 -23.5 80.5t-80.5 23.5q-22 0 -51 -6t-57 -22v-364q0 -50 48 -56v-12h-184v12q27 3 37.5 17.5t10.5 38.5v560q0 46 -56 52v12q24 3 42.5 9.5t34 14t28.5 16t27 16.5l12 -4v-287q42 29 93 46t99 17q33 0 54 -10t33 -27.5
t16.5 -42t4.5 -52.5v-320q0 -50 48 -56v-12h-184v12z" />
    <glyph glyph-name="i" unicode="i" horiz-adv-x="280" 
d="M140 608q-27 0 -43.5 18t-16.5 42t16.5 42t43.5 18t43.5 -18t16.5 -42t-16.5 -42t-43.5 -18zM48 12q27 3 37.5 17.5t10.5 38.5v340q0 46 -56 52v12q24 3 42.5 9.5t34 14t28.5 16t27 16.5l12 -4v-456q0 -50 48 -56v-12h-184v12z" />
    <glyph glyph-name="j" unicode="j" horiz-adv-x="280" 
d="M80 -172q9 -12 26 -12q26 0 40 16t14 48q0 33 -10 55t-22 44.5t-22 51t-10 73.5v304q0 46 -56 52v12q24 3 42.5 9.5t34 14t28.5 16t27 16.5l12 -4v-400q0 -38 5.5 -66t12.5 -52.5t12.5 -47.5t5.5 -50q0 -51 -30.5 -85.5t-81.5 -34.5q-33 0 -55.5 8t-36 21.5t-19 29.5
t-5.5 33q0 24 11.5 38t32.5 14q24 0 34 -13t10 -43v-48zM140 608q-27 0 -43.5 18t-16.5 42t16.5 42t43.5 18t43.5 -18t16.5 -42t-16.5 -42t-43.5 -18z" />
    <glyph glyph-name="k" unicode="k" horiz-adv-x="528" 
d="M344 12q32 6 32 24q0 6 -4 12.5l-12 19.5l-111 179l-69 -68v-111q0 -50 48 -56v-12h-184v12q27 3 37.5 17.5t10.5 38.5v560q0 46 -56 52v12q24 3 42.5 9.5t34 14t28.5 16t27 16.5l12 -4v-497l55 33l113 144q12 16 12 28q0 14 -11 23.5t-25 12.5v12h176v-16
q-27 -3 -44.5 -20t-39.5 -40l-110 -121l158 -235q17 -25 30.5 -39t37.5 -17v-12h-188v12z" />
    <glyph glyph-name="l" unicode="l" horiz-adv-x="280" 
d="M44 12q27 3 37.5 17.5t10.5 38.5v560q0 46 -56 52v12q45 6 75 23.5t57 32.5l12 -4v-676q0 -24 13.5 -38.5t34.5 -17.5v-12h-184v12z" />
    <glyph glyph-name="m" unicode="m" horiz-adv-x="852" 
d="M340 12q27 3 37.5 17.5t10.5 38.5v288q0 57 -21.5 80.5t-78.5 23.5q-22 0 -49.5 -6t-54.5 -22v-364q0 -50 48 -56v-12h-184v12q27 3 37.5 17.5t10.5 38.5v340q0 46 -56 52v12q24 3 42.5 9.5t34 14t28.5 16t27 16.5l12 -4v-67q41 29 90.5 46t97.5 17q45 0 67 -18.5
t30 -49.5q42 32 93.5 50t101.5 18q33 0 53.5 -10t31.5 -27.5t15 -42t4 -52.5v-320q0 -50 48 -56v-12h-184v12q27 3 37.5 17.5t10.5 38.5v288q0 57 -21.5 80.5t-78.5 23.5q-23 0 -50.5 -6.5t-56.5 -23.5q3 -20 3 -42v-320q0 -50 48 -56v-12h-184v12z" />
    <glyph glyph-name="n" unicode="n" horiz-adv-x="568" 
d="M48 12q27 3 37.5 17.5t10.5 38.5v340q0 46 -56 52v12q24 3 42.5 9.5t34 14t28.5 16t27 16.5l12 -4v-67q42 29 93 46t99 17q33 0 54 -10t33 -27.5t16.5 -42t4.5 -52.5v-320q0 -50 48 -56v-12h-184v12q27 3 37.5 17.5t10.5 38.5v288q0 57 -23.5 80.5t-80.5 23.5
q-22 0 -51 -6t-57 -22v-364q0 -50 48 -56v-12h-184v12z" />
    <glyph glyph-name="o" unicode="o" horiz-adv-x="552" 
d="M276 -12q-54 0 -97 19.5t-73 54t-46 83t-16 107.5q0 58 16 107.5t46 85t73 55.5t97 20t97 -19.5t73 -54t46 -83.5t16 -107q0 -59 -16 -108t-46 -84.5t-73 -55.5t-97 -20zM276 16q28 0 53 14.5t43.5 44t29 74.5t10.5 107q0 118 -38 177t-98 59q-29 0 -53.5 -14.5t-43 -44
t-29 -75t-10.5 -106.5q0 -118 38 -177t98 -59z" />
    <glyph glyph-name="p" unicode="p" horiz-adv-x="552" 
d="M208 32q12 -3 24 -3.5t24 -0.5q34 0 63 16t49.5 46t32 73t11.5 97q0 96 -35 154t-101 58q-29 0 -53 -9t-39 -23v-572q0 -27 16 -40t40 -16v-12h-192v12q27 3 37.5 17.5t10.5 38.5v540q0 46 -56 52v12q24 3 42.5 9.5t34 14t28.5 16t27 16.5l12 -4v-55q21 23 52.5 37
t67.5 14q42 0 79 -14.5t65 -46t44 -80t16 -115.5q0 -69 -17.5 -121t-46 -86.5t-66.5 -51.5t-78 -17q-33 0 -54 6.5t-42 21.5z" />
    <glyph glyph-name="q" unicode="q" horiz-adv-x="552" 
d="M320 -188q27 3 37.5 17.5t10.5 38.5v171q-23 -23 -52.5 -37t-67.5 -14q-42 0 -79 14.5t-65 46t-44 79.5t-16 116q0 60 16.5 110.5t46 87.5t70.5 57.5t91 20.5q27 0 54.5 -6.5t45.5 -21.5h5q23 1 41.5 12t29.5 24l12 -4v-656q0 -50 48 -56v-12h-184v12zM368 468
q-15 6 -32 9t-32 3q-41 0 -72 -18.5t-52.5 -50t-32.5 -73.5t-11 -90t9.5 -88t27.5 -68.5t44 -44t59 -15.5q30 0 53.5 10.5t38.5 25.5v400z" />
    <glyph glyph-name="r" unicode="r" horiz-adv-x="392" 
d="M48 12q27 3 37.5 17.5t10.5 38.5v340q0 46 -56 52v12q24 3 42.5 9.5t34 14t28.5 16t27 16.5l12 -4v-89q20 33 55.5 59t76.5 26q30 0 51 -17t21 -47q0 -33 -16.5 -48.5t-43.5 -15.5q-12 0 -23.5 6.5t-16.5 13.5l-24 36q-32 0 -50.5 -15.5t-29.5 -32.5v-332q0 -27 16.5 -40
t43.5 -16v-12h-196v12z" />
    <glyph glyph-name="s" unicode="s" horiz-adv-x="412" 
d="M44 164h16q18 -72 54.5 -110t93.5 -38q21 0 36 8t25 21.5t14.5 29.5t4.5 33q0 27 -11 47t-29 36t-41 29.5t-47 27.5q-21 12 -41.5 25.5t-36 30t-25 37t-9.5 47.5q0 33 12.5 57.5t35 41t52 25t64.5 8.5q76 0 136 -36l4 -116h-16q-21 63 -50 93.5t-74 30.5q-42 0 -63 -25.5
t-21 -58.5q0 -35 27.5 -57.5t64.5 -42.5q26 -14 53 -29.5t49 -35t36 -45.5t14 -62q0 -69 -44.5 -108.5t-119.5 -39.5q-36 0 -78.5 9.5t-81.5 30.5z" />
    <glyph glyph-name="t" unicode="t" horiz-adv-x="344" 
d="M96 440h-88v24q46 19 76 52t47.5 70.5t25.5 75t11 66.5h16v-228h108v-60h-108v-328q0 -36 18.5 -56t57.5 -20q15 0 30.5 3.5t33.5 12.5l8 -12q-27 -24 -57 -38t-75 -14q-54 0 -79 28t-25 88v336z" />
    <glyph glyph-name="u" unicode="u" horiz-adv-x="576" 
d="M92 408q0 46 -56 52v12q24 3 42.5 9.5t34 14t28.5 16t27 16.5l12 -4v-372q0 -57 23.5 -80.5t80.5 -23.5q22 0 51 5.5t57 22.5v332q0 46 -56 52v12q24 3 42.5 9.5t34 14t28.5 16t27 16.5l12 -4v-456q0 -27 14.5 -40t41.5 -16v-12h-144v51q-42 -29 -93 -46t-99 -17
q-33 0 -54 10t-33 27.5t-16.5 41.5t-4.5 53v288z" />
    <glyph glyph-name="v" unicode="v" horiz-adv-x="520" 
d="M68 432q-8 24 -19.5 35.5t-32.5 20.5v12h176v-12q-15 -3 -25.5 -9.5t-10.5 -18.5q0 -6 2.5 -14.5t5.5 -17.5l108 -340l112 344q3 9 3.5 13t0.5 7q0 30 -44 36v12h160v-12q-24 -6 -35.5 -19t-20.5 -37l-160 -432h-68z" />
    <glyph glyph-name="w" unicode="w" horiz-adv-x="784" 
d="M385 310l-113 -310h-64l-136 432q-9 24 -20 35.5t-32 20.5v12h172v-12q-15 -3 -25.5 -9.5t-10.5 -18.5q0 -6 2.5 -14.5t5.5 -17.5l90 -333l102 292l-16 45q-9 24 -20 35.5t-32 20.5v12h172v-12q-15 -3 -25.5 -9.5t-10.5 -18.5q0 -6 2.5 -14.5t5.5 -17.5l115 -339l97 343
q3 9 3.5 13t0.5 7q0 30 -44 36v12h160v-12q-24 -6 -35.5 -19t-20.5 -37l-144 -432h-64z" />
    <glyph glyph-name="x" unicode="x" horiz-adv-x="500" 
d="M304 12q24 6 24 24t-12 36l-86 130l-86 -130q-12 -18 -12 -32q0 -9 7 -17t25 -11v-12h-152v12q21 9 37 22t31 34l128 168l-128 196q-15 21 -31 34t-37 22v12h184v-12q-24 -6 -24 -24t12 -36l86 -131l82 131q12 18 12 32q0 9 -7 17t-25 11v12h152v-12q-21 -9 -37 -22
t-31 -34l-124 -169l128 -195q15 -21 31 -34t37 -22v-12h-184v12z" />
    <glyph glyph-name="y" unicode="y" horiz-adv-x="520" 
d="M107 -212q-51 0 -85 19t-34 61q0 33 14 48.5t38 15.5t38 -13t14 -43v-20q0 -36 28 -36q32 0 63 49t54 131l-169 432q-9 24 -20 35.5t-32 20.5v12h176v-12q-15 -3 -25.5 -9.5t-10.5 -18.5q0 -6 2.5 -14.5t5.5 -17.5l113 -319l107 323q3 9 3.5 13t0.5 7q0 30 -44 36v12h160
v-12q-24 -6 -35.5 -19t-20.5 -37l-156 -412q-19 -50 -36.5 -92t-38.5 -73.5t-47.5 -49t-62.5 -17.5z" />
    <glyph glyph-name="z" unicode="z" horiz-adv-x="452" 
d="M32 8l264 460h-88q-35 0 -57 -4.5t-38 -16t-28 -32t-25 -51.5h-12l4 136h352l4 -8l-268 -460h112q37 0 60 8t37.5 24t24.5 39t22 53h12l-4 -156h-368z" />
    <glyph glyph-name="ae" unicode="&#xe6;" horiz-adv-x="756" 
d="M236 492q-31 0 -51 -13t-29 -31v-48q0 -60 -48 -60q-27 0 -35.5 17.5t-8.5 38.5q0 19 12 41t34.5 40.5t54.5 30.5t71 12q60 0 95.5 -18.5t52.5 -53.5q29 36 68 54t84 18t78.5 -16t56 -43.5t34 -64t11.5 -76.5v-20l-4 -4h-304q1 -70 15.5 -116.5t38 -75t53.5 -40.5t61 -12
q22 0 42.5 6.5t37.5 17t31 23.5t25 25l8 -4q-21 -66 -69.5 -99t-114.5 -33q-56 0 -98.5 23t-71.5 65q-26 -41 -73 -64.5t-97 -23.5q-72 0 -112 32.5t-40 95.5q0 37 17 64t45 46t63 30.5t71 19.5l80 16v72q0 54 -19.5 91t-64.5 37zM356 93q-36 64 -36 159v3l-72 -21
q-57 -17 -86.5 -41.5t-29.5 -72.5q0 -42 22.5 -61t57.5 -19q36 0 73 13t71 40zM532 492q-51 0 -84.5 -45t-38.5 -119l183 4q12 0 22 16t10 40q0 21 -7.5 40t-20.5 33t-29.5 22.5t-34.5 8.5z" />
    <glyph glyph-name="oe" unicode="&#x153;" horiz-adv-x="852" 
d="M276 -12q-54 0 -97 19.5t-73 54t-46 83t-16 107.5q0 58 16 107.5t46 85t73 55.5t97 20q66 0 111.5 -28t71.5 -78q27 51 71.5 78.5t101.5 27.5q45 0 78.5 -16t56 -43.5t34 -64t11.5 -76.5v-20l-4 -4h-304q1 -70 15.5 -116.5t38 -75t53.5 -40.5t61 -12q22 0 42.5 6.5
t37.5 17t31 23.5t25 25l8 -4q-21 -66 -69.5 -99t-114.5 -33q-61 0 -105 27.5t-70 78.5q-26 -50 -71 -78t-110 -28zM276 16q28 0 53 14.5t43.5 44t29 74.5t10.5 107q0 118 -38 177t-98 59q-29 0 -53.5 -14.5t-43 -44t-29 -75t-10.5 -106.5q0 -118 38 -177t98 -59zM628 492
q-51 0 -84.5 -45t-38.5 -119l183 4q12 0 22 16t10 40q0 21 -7.5 40t-20.5 33t-29.5 22.5t-34.5 8.5z" />
    <glyph glyph-name="germandbls" unicode="&#xdf;" horiz-adv-x="568" 
d="M272 76q9 -27 25 -39.5t43 -12.5q54 0 75 52.5t21 139.5q0 81 -41.5 128.5t-134.5 47.5h-12v40h12q28 0 53 13t43.5 35.5t29 51t10.5 60.5q0 54 -29 91t-83 37q-30 0 -50 -12t-32 -34.5t-17 -53.5t-5 -68v-484q0 -24 13.5 -38.5t34.5 -17.5v-12h-184v12q27 3 37.5 17.5
t10.5 38.5v484q0 99 53 147.5t143 48.5q39 0 75 -9t64 -28.5t44.5 -49t16.5 -69.5q0 -36 -13 -63.5t-34.5 -48.5t-49 -36t-56.5 -24q40 -2 76 -18t63 -43t42.5 -63.5t15.5 -79.5q0 -112 -48 -170t-136 -58q-42 0 -68 20.5t-32 59.5z" />
    <glyph glyph-name="dotlessi" unicode="&#x131;" horiz-adv-x="280" 
d="M48 0v12q27 3 37.5 17.5t10.5 38.5v340q0 46 -56 52v12q24 3 42.5 9.5t34 14t28.5 16t27 16.5l12 -4v-456q0 -50 48 -56v-12h-184z" />
    <glyph glyph-name="dotlessj" unicode="&#x237;" horiz-adv-x="280" 
d="M80 -172q9 -12 26 -12q26 0 40 16t14 48q0 33 -10 55t-22 44.5t-22 51t-10 73.5v304q0 46 -56 52v12q24 3 42.5 9.5t34 14t28.5 16t27 16.5l12 -4v-400q0 -38 5.5 -66t12.5 -52.5t12.5 -47.5t5.5 -50q0 -51 -30.5 -85.5t-81.5 -34.5q-33 0 -55.5 8t-36 21.5t-19 29.5
t-5.5 33q0 24 11.5 38t32.5 14q24 0 34 -13t10 -43v-48z" />
    <glyph glyph-name="eth" unicode="&#xf0;" horiz-adv-x="544" 
d="M172 604l107 50q-33 26 -75.5 42.5t-95.5 27.5v24q73 0 131 -16.5t103 -48.5l114 53v-44l-80 -38q64 -62 94 -158.5t30 -223.5q0 -65 -16 -117t-46 -89.5t-73 -57.5t-97 -20t-96 18t-70.5 49.5t-43 74t-14.5 90.5q0 54 14.5 98t43 75.5t70.5 49t96 17.5q49 0 78.5 -12.5
t52.5 -35.5q-10 72 -31.5 123.5t-56.5 88.5l-139 -64v44zM268 16q36 0 62.5 18.5t43.5 52.5t25.5 81t8.5 104v8q-2 38 -14 66t-31.5 46t-44 27t-50.5 9q-27 0 -51 -15t-42 -42.5t-28.5 -66t-10.5 -84.5q0 -54 11 -92.5t29.5 -63.5t42 -36.5t49.5 -11.5z" />
    <glyph glyph-name="dcroat" unicode="&#x111;" horiz-adv-x="540" 
d="M372 43q-21 -25 -52 -40t-68 -15q-44 0 -81.5 14t-66 44.5t-44.5 78t-16 115.5q0 60 16.5 109.5t46.5 84.5t72 54.5t93 19.5q24 0 52.5 -6.5t43.5 -21.5v88h-112v32h112v28q0 24 -16.5 36.5t-43.5 15.5v12q45 6 78.5 23.5t57.5 32.5l12 -4v-144h84v-32h-84v-500
q0 -27 14.5 -40t41.5 -16v-12h-140v43zM280 32q30 0 53 10.5t35 25.5v388q-12 6 -29 9t-35 3q-39 0 -70 -17t-53 -47t-33.5 -71t-11.5 -89t10 -87t29 -67t45.5 -43t59.5 -15z" />
    <glyph glyph-name="dcaron" unicode="&#x10f;" horiz-adv-x="540" 
d="M372 43q-21 -25 -52 -40t-68 -15q-44 0 -81.5 14t-66 44.5t-44.5 78t-16 115.5q0 60 16.5 109.5t46.5 84.5t72 54.5t93 19.5q24 0 52.5 -6.5t43.5 -21.5v148q0 24 -16.5 36.5t-43.5 15.5v12q45 6 78.5 23.5t57.5 32.5l12 -4v-676q0 -27 14.5 -40t41.5 -16v-12h-140v43z
M280 32q30 0 53 10.5t35 25.5v388q-12 6 -29 9t-35 3q-39 0 -70 -17t-53 -47t-33.5 -71t-11.5 -89t10 -87t29 -67t45.5 -43t59.5 -15zM506 568q41 3 61.5 20.5t20.5 35.5q0 15 -10 22t-22 13t-22 15t-10 28q0 20 15.5 33t36.5 13q27 0 42.5 -16.5t15.5 -43.5v-8
q0 -30 -5.5 -54t-20 -41t-39.5 -27.5t-63 -13.5v24z" />
    <glyph glyph-name="hbar" unicode="&#x127;" horiz-adv-x="564" 
d="M344 12q27 3 37.5 17.5t10.5 38.5v288q0 57 -23.5 80.5t-80.5 23.5q-22 0 -51 -6t-57 -22v-364q0 -50 48 -56v-12h-184v12q27 3 37.5 17.5t10.5 38.5v500h-84v32h84v28q0 46 -56 52v12q24 3 42.5 9.5t34 14t28.5 16t27 16.5l12 -4v-144h112v-32h-112v-111q42 29 93 46
t99 17q33 0 54 -10t33 -27.5t16.5 -42t4.5 -52.5v-320q0 -50 48 -56v-12h-184v12z" />
    <glyph glyph-name="ij" unicode="&#x133;" horiz-adv-x="560" 
d="M140 608q-27 0 -43.5 18t-16.5 42t16.5 42t43.5 18t43.5 -18t16.5 -42t-16.5 -42t-43.5 -18zM48 12q27 3 37.5 17.5t10.5 38.5v340q0 46 -56 52v12q24 3 42.5 9.5t34 14t28.5 16t27 16.5l12 -4v-456q0 -50 48 -56v-12h-184v12zM360 -172q9 -12 26 -12q26 0 40 16t14 48
q0 33 -10 55t-22 44.5t-22 51t-10 73.5v304q0 46 -56 52v12q24 3 42.5 9.5t34 14t28.5 16t27 16.5l12 -4v-400q0 -38 5.5 -66t12.5 -52.5t12.5 -47.5t5.5 -50q0 -51 -30.5 -85.5t-81.5 -34.5q-33 0 -55.5 8t-36 21.5t-19 29.5t-5.5 33q0 24 11.5 38t32.5 14q24 0 34 -13
t10 -43v-48zM420 608q-27 0 -43.5 18t-16.5 42t16.5 42t43.5 18t43.5 -18t16.5 -42t-16.5 -42t-43.5 -18z" />
    <glyph glyph-name="lslash" unicode="&#x142;" horiz-adv-x="296" 
d="M28 308l72 42v278q0 46 -56 52v12q45 6 75 23.5t57 32.5l12 -4v-349l88 53v-44l-88 -53v-283q0 -24 13.5 -38.5t34.5 -17.5v-12h-184v12q27 3 37.5 17.5t10.5 38.5v238l-72 -42v44z" />
    <glyph glyph-name="ldot" unicode="&#x140;" horiz-adv-x="368" 
d="M44 12q27 3 37.5 17.5t10.5 38.5v560q0 46 -56 52v12q45 6 75 23.5t57 32.5l12 -4v-676q0 -24 13.5 -38.5t34.5 -17.5v-12h-184v12zM252 316q0 26 17.5 45t46.5 19t46.5 -19t17.5 -45t-17.5 -45t-46.5 -19t-46.5 19t-17.5 45z" />
    <glyph glyph-name="lcaron" unicode="&#x13e;" horiz-adv-x="280" 
d="M44 12q27 3 37.5 17.5t10.5 38.5v560q0 46 -56 52v12q45 6 75 23.5t57 32.5l12 -4v-676q0 -24 13.5 -38.5t34.5 -17.5v-12h-184v12zM230 568q41 3 61.5 20.5t20.5 35.5q0 15 -10 22t-22 13t-22 15t-10 28q0 20 15.5 33t36.5 13q27 0 42.5 -16.5t15.5 -43.5v-8
q0 -30 -5.5 -54t-20 -41t-39.5 -27.5t-63 -13.5v24z" />
    <glyph glyph-name="eng" unicode="&#x14b;" horiz-adv-x="568" 
d="M48 12q27 3 37.5 17.5t10.5 38.5v340q0 46 -56 52v12q24 3 42.5 9.5t34 14t28.5 16t27 16.5l12 -4v-67q42 29 93 46t99 17q33 0 54 -10t33 -27.5t16.5 -42t4.5 -52.5v-264q0 -38 5.5 -66t12.5 -52.5t12.5 -47.5t5.5 -50q0 -51 -30.5 -85.5t-81.5 -34.5q-33 0 -55.5 8
t-36 21.5t-19 29.5t-5.5 33q0 24 11.5 38t32.5 14q24 0 34 -13t10 -43v-48q9 -12 24 -12q26 0 41 16t15 48q0 33 -10 55t-22 44.5t-22 51t-10 73.5v252q0 57 -23.5 80.5t-80.5 23.5q-22 0 -51 -6t-57 -22v-364q0 -50 48 -56v-12h-184v12z" />
    <glyph glyph-name="oslash" unicode="&#xf8;" horiz-adv-x="552" 
d="M76 4l35 51q-32 35 -49.5 85t-17.5 112q0 58 16 107.5t46 85t73 55.5t97 20q77 0 132 -40l36 52l32 -28l-36 -51q33 -35 50.5 -85.5t17.5 -111.5q0 -59 -16 -108t-46 -84.5t-73 -55.5t-97 -20q-76 0 -132 39l-36 -51zM140 252q0 -77 17 -131l217 311q-36 60 -98 60
q-29 0 -53.5 -14.5t-43 -44t-29 -75t-10.5 -106.5zM276 16q28 0 53 14.5t43.5 44t29 74.5t10.5 107q0 78 -18 131l-217 -311q18 -30 43.5 -45t55.5 -15z" />
    <glyph glyph-name="longs" unicode="&#x17f;" horiz-adv-x="304" 
d="M28 500h65q-4 34 -10.5 63.5t-6.5 72.5q0 54 36.5 83t87.5 29q36 0 61.5 -8t42 -21.5t24.5 -30t8 -32.5q0 -24 -13.5 -40t-34.5 -16q-24 0 -38 13t-14 43v32q0 18 -12.5 25t-27.5 7q-21 0 -38.5 -16t-17.5 -40q0 -30 7 -54t15 -46.5t15 -47.5t7 -56v-392q0 -24 17 -38.5
t47 -17.5v-12h-200v12q27 3 37.5 17.5t10.5 38.5v372h-68v60z" />
    <glyph glyph-name="thorn" unicode="&#xfe;" horiz-adv-x="552" 
d="M208 32q12 -3 24 -3.5t24 -0.5q34 0 63 16t49.5 46t32 73t11.5 97q0 96 -35 154t-101 58q-29 0 -53 -9t-39 -23v-572q0 -27 16 -40t40 -16v-12h-192v12q27 3 37.5 17.5t10.5 38.5v760q0 46 -56 52v12q24 3 42.5 9.5t34 14t28.5 16t27 16.5l12 -4v-275q21 23 52.5 37
t67.5 14q42 0 79 -14.5t65 -46t44 -80t16 -115.5q0 -69 -17.5 -121t-46 -86.5t-66.5 -51.5t-78 -17q-33 0 -54 6.5t-42 21.5z" />
    <glyph glyph-name="tcaron" unicode="&#x165;" horiz-adv-x="344" 
d="M96 440h-88v24q46 19 76 52t47.5 70.5t25.5 75t11 66.5h16v-228h108v-60h-108v-328q0 -36 18.5 -56t57.5 -20q15 0 30.5 3.5t33.5 12.5l8 -12q-27 -24 -57 -38t-75 -14q-54 0 -79 28t-25 88v336zM234 608q41 3 61.5 20.5t20.5 35.5q0 15 -10 22t-22 13t-22 15t-10 28
q0 20 15.5 33t36.5 13q27 0 42.5 -16.5t15.5 -43.5v-8q0 -30 -5.5 -54t-20 -41t-39.5 -27.5t-63 -13.5v24z" />
    <glyph glyph-name="tbar" unicode="&#x167;" horiz-adv-x="344" 
d="M296 264h-112v-152q0 -36 18.5 -56t57.5 -20q15 0 30.5 3.5t33.5 12.5l8 -12q-27 -24 -57 -38t-75 -14q-54 0 -79 28t-25 88v160h-84v32h84v144h-88v24q46 19 76 52t47.5 70.5t25.5 75t11 66.5h16v-228h108v-60h-108v-144h112v-32z" />
    <glyph glyph-name="eogonek" unicode="&#x119;" horiz-adv-x="480" 
d="M400 -168q-21 -28 -53.5 -46t-70.5 -18q-24 0 -45.5 5t-38 15.5t-26.5 27.5t-10 40q0 21 8 40t21.5 35.5t30.5 30t36 22.5l8 4q-50 0 -89.5 18.5t-68 53t-43.5 83.5t-15 109q0 63 16.5 112.5t45 84t68 53t86.5 18.5q45 0 78.5 -16t56 -43.5t34 -64t11.5 -76.5v-20l-4 -4
h-304q1 -70 15.5 -116.5t38 -75t53.5 -40.5t61 -12q22 0 42.5 6.5t37.5 17t31 23.5t25 25l8 -4q-12 -38 -34 -65t-51 -44l-71 -43q-29 -17 -42.5 -42.5t-13.5 -55.5q0 -32 19 -45t45 -13q24 0 49.5 9t42.5 23zM256 492q-51 0 -84.5 -45t-38.5 -119l183 4q12 0 22 16t10 40
q0 21 -7.5 40t-20.5 33t-29.5 22.5t-34.5 8.5z" />
    <glyph glyph-name="uniFB00" unicode="&#xfb00;" horiz-adv-x="604" 
d="M328 500h65q-4 34 -10.5 63.5t-6.5 72.5q0 54 36.5 83t87.5 29q36 0 61.5 -8t42 -21.5t24.5 -30t8 -32.5q0 -24 -13.5 -40t-34.5 -16q-24 0 -38 13t-14 43v32q0 18 -12.5 25t-27.5 7q-21 0 -38.5 -16t-17.5 -40q0 -25 5 -45.5t11.5 -39.5l13 -38t10.5 -41h108v-60h-104
v-372q0 -24 17 -38.5t47 -17.5v-12h-200v12q27 3 37.5 17.5t10.5 38.5v372h-68v60zM28 500h65q-3 17 -7.5 32.5t-8 31t-6.5 33.5t-3 39q0 28 10.5 49.5t27 35t38 20.5t44.5 7q34 0 59 -7.5t41.5 -20t24 -28.5t7.5 -32q0 -21 -11.5 -36.5t-32.5 -15.5q-48 0 -48 56v20
q0 15 -13.5 25.5t-30.5 10.5q-18 0 -35 -13t-17 -43q0 -25 5.5 -45.5t13.5 -39.5l16 -38t13 -41h108v-60h-104v-372q0 -24 17 -38.5t47 -17.5v-12h-200v12q27 3 37.5 17.5t10.5 38.5v372h-68v60z" />
    <glyph glyph-name="fi" unicode="&#xfb01;" 
d="M28 500h65q-3 17 -7.5 32.5t-8 31t-6.5 33.5t-3 39q0 28 9.5 49.5t26 35t37 20.5t43.5 7q34 0 58.5 -7.5t40 -20t22.5 -28.5t7 -32q0 -21 -11.5 -36.5t-32.5 -15.5q-48 0 -48 56v20q0 15 -11.5 25.5t-28.5 10.5q-18 0 -33 -13t-15 -43q0 -25 5.5 -45.5t13.5 -39.5l16 -38
t13 -41h108v-60h-104v-372q0 -24 17 -38.5t47 -17.5v-12h-200v12q27 3 37.5 17.5t10.5 38.5v372h-68v60zM348 12q27 3 37.5 17.5t10.5 38.5v340q0 46 -56 52v12q24 3 42.5 9.5t34 14t28.5 16t27 16.5l12 -4v-456q0 -50 48 -56v-12h-184v12zM440 608q-27 0 -43.5 18t-16.5 42
t16.5 42t43.5 18t43.5 -18t16.5 -42t-16.5 -42t-43.5 -18z" />
    <glyph glyph-name="fl" unicode="&#xfb02;" horiz-adv-x="584" 
d="M28 500h65q-3 17 -7.5 32.5t-8 31t-6.5 33.5t-3 39q0 28 9.5 49.5t26 35t37 20.5t43.5 7q34 0 58.5 -7.5t40 -20t22.5 -28.5t7 -32q0 -21 -11.5 -36.5t-32.5 -15.5q-48 0 -48 56v20q0 15 -11.5 25.5t-28.5 10.5q-18 0 -33 -13t-15 -43q0 -25 5.5 -45.5t13.5 -39.5l16 -38
t13 -41h108v-60h-104v-372q0 -24 17 -38.5t47 -17.5v-12h-200v12q27 3 37.5 17.5t10.5 38.5v372h-68v60zM348 12q27 3 37.5 17.5t10.5 38.5v556q0 24 -13.5 38.5t-34.5 17.5v12q39 9 69.5 23.5t54.5 32.5l12 -4v-676q0 -24 13.5 -38.5t34.5 -17.5v-12h-184v12z" />
    <glyph glyph-name="uniFB03" unicode="&#xfb03;" horiz-adv-x="880" 
d="M28 500h65q-3 17 -7.5 32.5t-8 31t-6.5 33.5t-3 39q0 28 10.5 49.5t27 35t38 20.5t44.5 7q34 0 59 -7.5t41.5 -20t24 -28.5t7.5 -32q0 -21 -11.5 -36.5t-32.5 -15.5q-48 0 -48 56v20q0 15 -13.5 25.5t-30.5 10.5q-18 0 -35 -13t-17 -43q0 -25 5.5 -45.5t13.5 -39.5
l16 -38t13 -41h108v-60h-104v-372q0 -24 17 -38.5t47 -17.5v-12h-200v12q27 3 37.5 17.5t10.5 38.5v372h-68v60zM328 500h65q-3 17 -7.5 32.5t-8 31t-6.5 33.5t-3 39q0 28 9.5 49.5t26 35t37 20.5t43.5 7q34 0 58.5 -7.5t40 -20t22.5 -28.5t7 -32q0 -21 -11.5 -36.5
t-32.5 -15.5q-48 0 -48 56v20q0 15 -11.5 25.5t-28.5 10.5q-18 0 -33 -13t-15 -43q0 -25 5.5 -45.5t13.5 -39.5l16 -38t13 -41h108v-60h-104v-372q0 -24 17 -38.5t47 -17.5v-12h-200v12q27 3 37.5 17.5t10.5 38.5v372h-68v60zM648 12q27 3 37.5 17.5t10.5 38.5v340
q0 46 -56 52v12q24 3 42.5 9.5t34 14t28.5 16t27 16.5l12 -4v-456q0 -50 48 -56v-12h-184v12zM740 728q27 0 43.5 -18t16.5 -42t-16.5 -42t-43.5 -18t-43.5 18t-16.5 42t16.5 42t43.5 18z" />
    <glyph glyph-name="uniFB04" unicode="&#xfb04;" horiz-adv-x="884" 
d="M28 500h65q-3 17 -7.5 32.5t-8 31t-6.5 33.5t-3 39q0 28 10.5 49.5t27 35t38 20.5t44.5 7q34 0 59 -7.5t41.5 -20t24 -28.5t7.5 -32q0 -21 -11.5 -36.5t-32.5 -15.5q-48 0 -48 56v20q0 15 -13.5 25.5t-30.5 10.5q-18 0 -35 -13t-17 -43q0 -25 5.5 -45.5t13.5 -39.5
l16 -38t13 -41h108v-60h-104v-372q0 -24 17 -38.5t47 -17.5v-12h-200v12q27 3 37.5 17.5t10.5 38.5v372h-68v60zM328 500h65q-3 17 -7.5 32.5t-8 31t-6.5 33.5t-3 39q0 28 9.5 49.5t26 35t37 20.5t43.5 7q34 0 58.5 -7.5t40 -20t22.5 -28.5t7 -32q0 -21 -11.5 -36.5
t-32.5 -15.5q-48 0 -48 56v20q0 15 -11.5 25.5t-28.5 10.5q-18 0 -33 -13t-15 -43q0 -25 5.5 -45.5t13.5 -39.5l16 -38t13 -41h108v-60h-104v-372q0 -24 17 -38.5t47 -17.5v-12h-200v12q27 3 37.5 17.5t10.5 38.5v372h-68v60zM648 12q27 3 37.5 17.5t10.5 38.5v556
q0 24 -13.5 38.5t-34.5 17.5v12q39 9 69.5 23.5t54.5 32.5l12 -4v-676q0 -24 13.5 -38.5t34.5 -17.5v-12h-184v12z" />
    <glyph glyph-name="t_f" horiz-adv-x="620" 
d="M344 500h65q-4 34 -10.5 63.5t-6.5 72.5q0 54 36.5 83t87.5 29q36 0 61.5 -8t42 -21.5t24.5 -30t8 -32.5q0 -24 -13.5 -40t-34.5 -16q-24 0 -38 13t-14 43v32q0 18 -12.5 25t-27.5 7q-21 0 -38.5 -16t-17.5 -40q0 -25 5 -45.5t11.5 -39.5l13 -38t10.5 -41h108v-60h-104
v-372q0 -24 17 -38.5t47 -17.5v-12h-200v12q27 3 37.5 17.5t10.5 38.5v372h-68v60zM96 440h-88v24q46 19 76 52t47.5 70.5t25.5 75t11 66.5h16v-228h108v-60h-108v-328q0 -36 18.5 -56t57.5 -20q15 0 30.5 3.5t33.5 12.5l8 -12q-27 -24 -57 -38t-75 -14q-54 0 -79 28t-25 88
v336z" />
    <glyph glyph-name="grave" unicode="`" horiz-adv-x="552" 
d="M168 752l140 -156l-16 -16l-208 128z" />
    <glyph glyph-name="acute" unicode="&#xb4;" horiz-adv-x="552" 
d="M384 752l84 -44l-208 -128l-16 16z" />
    <glyph glyph-name="hungarumlaut" unicode="&#x2dd;" horiz-adv-x="552" 
d="M296 752l68 -36l-148 -132l-24 12zM452 752l68 -36l-184 -132l-24 12z" />
    <glyph glyph-name="dotaccent" unicode="&#x2d9;" horiz-adv-x="552" 
d="M212 660q0 26 17.5 45t46.5 19t46.5 -19t17.5 -45t-17.5 -45t-46.5 -19t-46.5 19t-17.5 45z" />
    <glyph glyph-name="dieresis" unicode="&#xa8;" horiz-adv-x="552" 
d="M124 660q0 24 16.5 42t43.5 18t43.5 -18t16.5 -42t-16.5 -42t-43.5 -18t-43.5 18t-16.5 42zM308 660q0 24 16.5 42t43.5 18t43.5 -18t16.5 -42t-16.5 -42t-43.5 -18t-43.5 18t-16.5 42z" />
    <glyph glyph-name="circumflex" unicode="&#x2c6;" horiz-adv-x="552" 
d="M224 728h88l116 -144l-20 -16l-138 104l-130 -104l-20 16z" />
    <glyph glyph-name="caron" unicode="&#x2c7;" horiz-adv-x="552" 
d="M120 732l20 16l130 -104l138 104l20 -16l-116 -144h-88z" />
    <glyph glyph-name="macron" unicode="&#xaf;" horiz-adv-x="552" 
d="M140 692h288l-16 -64h-288z" />
    <glyph glyph-name="tilde" unicode="&#x2dc;" horiz-adv-x="552" 
d="M132 592q0 27 6 53.5t17 47.5t27.5 34t37.5 13q18 0 34.5 -12.5t31.5 -27.5t28.5 -27.5t25.5 -12.5q18 0 34 17.5t22 62.5l24 -4q0 -27 -6 -53.5t-17 -47.5t-27.5 -34t-37.5 -13q-18 0 -34.5 12.5t-31.5 27.5t-28.5 27.5t-25.5 12.5q-18 0 -34 -17.5t-22 -62.5z" />
    <glyph glyph-name="breve" unicode="&#x2d8;" horiz-adv-x="552" 
d="M160 748q18 -54 47 -75t65 -21t65 21t47 75l24 -4q-2 -42 -14 -72.5t-31.5 -50t-43 -28.5t-47.5 -9t-47.5 9t-43 28.5t-32 50t-13.5 72.5z" />
    <glyph glyph-name="ring" unicode="&#x2da;" horiz-adv-x="552" 
d="M276 588q24 0 40 17.5t16 50.5t-16 50.5t-40 17.5t-40 -17.5t-16 -50.5t16 -50.5t40 -17.5zM276 564q-54 0 -85 28t-31 64t31 64t85 28t85 -28t31 -64t-31 -64t-85 -28z" />
    <glyph glyph-name="caronquoteleft" horiz-adv-x="552" 
d="M276 576q-27 0 -42.5 16.5t-15.5 43.5v8q0 30 5.5 54t20 41t39.5 27.5t63 13.5v-24q-41 -3 -61.5 -20.5t-20.5 -35.5q0 -15 10 -22t22 -13t22 -15t10 -28q0 -20 -15.5 -33t-36.5 -13z" />
    <glyph glyph-name="caronquoteright" horiz-adv-x="552" 
d="M214 592q41 3 61.5 20.5t20.5 35.5q0 15 -10 22t-22 13t-22 15t-10 28q0 20 15.5 33t36.5 13q27 0 42.5 -16.5t15.5 -43.5v-8q0 -30 -5.5 -54t-20 -41t-39.5 -27.5t-63 -13.5v24z" />
    <glyph glyph-name="uni0326" unicode="&#x326;" horiz-adv-x="552" 
d="M206 -228q41 3 61.5 20.5t20.5 35.5q0 15 -10 22t-22 13t-22 15t-10 28q0 20 15.5 33t36.5 13q27 0 42.5 -16.5t15.5 -43.5v-8q0 -30 -5.5 -54t-20 -41t-39.5 -27.5t-63 -13.5v24z" />
    <glyph glyph-name="cedilla" unicode="&#xb8;" horiz-adv-x="552" 
d="M160 -164q21 -15 49 -21.5t51 -6.5q27 0 43.5 7t16.5 25q0 11 -9 21.5t-35 18.5l-68 20l52 108h36l-31 -67l43 -13q35 -11 61.5 -31t26.5 -53q0 -20 -11 -34.5t-30 -23.5t-43.5 -13.5t-51.5 -4.5q-34 0 -66 11.5t-50 32.5z" />
    <glyph glyph-name="ogonek" unicode="&#x2db;" horiz-adv-x="552" 
d="M396 -168q-21 -28 -53.5 -46t-70.5 -18q-24 0 -45.5 5t-38 15.5t-26.5 27.5t-10 40q0 18 8.5 36.5t22 35t30.5 31t35 25.5l52 32l20 -16l-40 -32q-52 -42 -52 -98q0 -32 19 -45t45 -13q24 0 49.5 9t42.5 23z" />
    <glyph glyph-name="zero" unicode="0" horiz-adv-x="600" 
d="M300 -12q-71 0 -119 31t-77.5 83.5t-42.5 120t-13 141.5q0 73 13 142.5t42.5 123t77.5 86t119 32.5q70 0 118.5 -31t78 -83.5t42.5 -120.5t13 -141q0 -74 -13 -143t-42.5 -122.5t-78 -86t-118.5 -32.5zM300 20q42 0 71 24t47 69.5t26 110.5t8 148q0 76 -8 139.5t-26 109
t-47 70.5t-71 25t-71 -24t-47 -69.5t-26 -111t-8 -147.5q0 -77 8 -140t26 -108.5t47 -70.5t71 -25z" />
    <glyph glyph-name="one" unicode="1" horiz-adv-x="308" 
d="M44 12q27 0 47.5 14.5t20.5 41.5v496q0 51 -20.5 73.5t-71.5 22.5v16q28 6 55.5 15t51.5 19.5t43.5 20t33.5 17.5l12 -4q-2 -12 -3 -29.5t-2.5 -37t-2 -38t-0.5 -31.5v-540q0 -27 20.5 -41.5t47.5 -14.5v-12h-232v12z" />
    <glyph glyph-name="two" unicode="2" horiz-adv-x="508" 
d="M44 52q0 48 22 89t55.5 79.5t72.5 76.5t72.5 80t55.5 89.5t22 105.5q0 27 -4.5 53t-17 46t-34.5 32.5t-56 12.5q-26 0 -46 -11t-33.5 -30.5t-21 -45t-7.5 -53.5q0 -15 2.5 -30.5t5.5 -33.5l-96 24q-3 12 -3.5 19.5t-0.5 16.5q0 43 16 76t43.5 55.5t63.5 33.5t77 11
q52 0 92.5 -13.5t68 -37t41.5 -56t14 -69.5q0 -54 -23.5 -102.5t-59 -92t-78.5 -83t-82 -76t-69 -71t-40 -67.5h236q54 0 77.5 27t38.5 81h16v-188h-420v52z" />
    <glyph glyph-name="three" unicode="3" horiz-adv-x="524" 
d="M172 416h20q75 0 115.5 45t40.5 123q0 27 -4.5 51t-17 42t-34.5 28.5t-56 10.5q-26 0 -45 -11t-31 -29t-18 -41t-6 -47q0 -15 2.5 -33t5.5 -27l-96 24q-3 6 -3.5 17.5t-0.5 14.5q0 37 14.5 67.5t40.5 52t61 33t76 11.5q106 0 159 -44.5t53 -119.5q0 -36 -13 -66t-34 -53
t-48.5 -39.5t-56.5 -26.5q35 -5 68 -18.5t59 -37t41.5 -59t15.5 -84.5q0 -57 -22 -97.5t-56.5 -66t-78.5 -37t-87 -11.5q-85 0 -136.5 43.5t-63.5 124.5l40 12q12 -57 51.5 -94.5t108.5 -37.5q63 0 103.5 43t40.5 121q0 42 -13.5 73.5t-37.5 52.5t-57 31.5t-72 10.5h-28v48z
" />
    <glyph glyph-name="four" unicode="4" horiz-adv-x="536" 
d="M8 248l288 488l112 12v-480h128l-16 -68h-112v-132q0 -15 6 -25t15.5 -16.5t20.5 -10t22 -4.5v-12h-224v12q27 3 45.5 14.5t18.5 41.5v132h-288zM84 268h228v392z" />
    <glyph glyph-name="five" unicode="5" horiz-adv-x="508" 
d="M92 732l8 4q12 -5 32 -8t42.5 -4.5t46 -2.5t43.5 -1q66 0 110.5 6.5t65.5 21.5l8 -4q-21 -57 -67 -88.5t-121 -31.5q-49 0 -107 14l-19 -203q23 8 48.5 10.5t49.5 2.5q46 0 89.5 -13.5t77 -41.5t53.5 -70t20 -99t-20 -101t-53 -74t-75.5 -45.5t-87.5 -15.5
q-160 0 -196 160l40 12q12 -57 51 -90.5t105 -33.5q34 0 60 14.5t42.5 40t25 60t8.5 73.5q0 93 -49 138.5t-127 45.5q-18 0 -46.5 -7t-49.5 -25l-8 4v352z" />
    <glyph glyph-name="six" unicode="6" horiz-adv-x="544" 
d="M484 724q-62 -15 -114 -37.5t-93 -58t-70 -85t-44 -117.5q23 16 51.5 25t57.5 9q109 0 168.5 -61.5t59.5 -170.5q0 -48 -14 -91.5t-42 -76.5t-69 -52.5t-95 -19.5t-97 20t-73 57.5t-46 89.5t-16 117q0 97 28 184t82.5 151.5t134 102.5t183.5 38zM272 424q-28 0 -62 -10
t-55 -30q-4 -26 -5.5 -53.5t-1.5 -58.5q0 -57 10.5 -103.5t28.5 -79.5t42 -51t51 -18q25 0 48 12t39.5 37.5t26.5 65t10 93.5q0 46 -10.5 82.5t-28.5 62t-42 38.5t-51 13z" />
    <glyph glyph-name="seven" unicode="7" horiz-adv-x="480" 
d="M32 736h436v-80q-36 -54 -76 -130.5t-74 -164.5t-56 -181t-22 -180h-112q0 53 14.5 114t38 124t53.5 124.5t62 116t63.5 99.5t56.5 74h-252q-54 0 -77.5 -27t-38.5 -81h-16v192z" />
    <glyph glyph-name="eight" unicode="8" horiz-adv-x="540" 
d="M44 180q0 65 37 115t123 75q-26 16 -50 34.5t-42 43.5t-29 57t-11 75q0 33 14 63.5t39.5 53.5t62.5 37t84 14q49 0 86 -12.5t61.5 -33.5t36.5 -48.5t12 -57.5q0 -71 -36 -120t-105 -74q31 -15 61.5 -32.5t54.5 -41t38.5 -56.5t14.5 -80t-16.5 -84.5t-46.5 -64t-72 -41
t-93 -14.5q-112 0 -168 49t-56 143zM396 164q0 40 -15 69t-39.5 50.5t-55.5 39t-62 35.5q-53 -41 -72.5 -86t-19.5 -92q0 -30 9.5 -59t27 -51.5t42.5 -36t57 -13.5q60 0 94 40.5t34 103.5zM164 592q0 -38 12 -65.5t31.5 -48t45 -36t53.5 -29.5q33 30 53.5 75t20.5 92
q0 27 -7.5 51.5t-21 43.5t-34 30t-45.5 11q-51 0 -79.5 -33.5t-28.5 -90.5z" />
    <glyph glyph-name="nine" unicode="9" horiz-adv-x="544" 
d="M76 12q117 28 193.5 96t107.5 191q-23 -15 -50.5 -23t-54.5 -8q-54 0 -96.5 17t-71.5 48.5t-44.5 76t-15.5 98.5q0 48 14 91.5t42 76.5t69 52.5t95 19.5q109 0 170.5 -73t61.5 -203q0 -92 -26.5 -179t-79 -154.5t-129.5 -109t-177 -41.5zM272 304q26 0 59.5 9t54.5 28
q5 29 7.5 62t2.5 69q0 57 -10.5 102t-28.5 76.5t-42 48.5t-51 17q-26 0 -48.5 -12.5t-39 -38t-26.5 -64.5t-10 -93q0 -47 10.5 -84.5t28.5 -64t42 -41t51 -14.5z" />
    <glyph glyph-name="zero.zero" horiz-adv-x="600" 
d="M300 -12q-71 0 -119 31t-77.5 83.5t-42.5 120t-13 141.5q0 73 13 142.5t42.5 123t77.5 86t119 32.5q70 0 118.5 -31t78 -83.5t42.5 -120.5t13 -141q0 -74 -13 -143t-42.5 -122.5t-78 -86t-118.5 -32.5zM210 65q34 -45 90 -45q42 0 71 24t47 69.5t26 110.5t8 148
q0 69 -6.5 126.5t-20.5 102.5l-109 -237zM148 364q0 -69 6 -126t20 -101l106 231l108 305q-17 20 -38.5 31.5t-49.5 11.5q-42 0 -71 -24t-47 -69.5t-26 -111t-8 -147.5z" />
    <glyph glyph-name="currency" unicode="&#xa4;" horiz-adv-x="520" 
d="M100 233q-19 22 -29.5 50.5t-10.5 64.5t10.5 64.5t29.5 50.5l-72 85l48 40l73 -87q24 14 52.5 20.5t58.5 6.5q61 0 111 -27l73 87l48 -40l-73 -85q19 -22 30 -50.5t11 -64.5t-11 -64.5t-30 -50.5l73 -85l-48 -40l-73 86q-50 -26 -111 -26q-62 0 -111 26l-73 -86l-48 40z
M372 348q0 27 -7 52.5t-20.5 45t-35 31t-49.5 11.5q-29 0 -50 -11.5t-34.5 -31t-20.5 -45t-7 -52.5t7 -52.5t20.5 -45t34.5 -31t50 -11.5q28 0 49.5 11.5t35 31t20.5 45t7 52.5z" />
    <glyph glyph-name="dollar" unicode="$" horiz-adv-x="528" 
d="M228 -11q-25 1 -51 5t-49 9.5t-43 13t-33 15.5l8 144h16q21 -65 61.5 -105.5t90.5 -48.5v335q-33 19 -65.5 39t-58 45.5t-41 59t-15.5 79.5q0 31 13 60t37 51.5t58 37.5t76 18v73h48v-73q44 -3 88.5 -15t75.5 -32v-136h-16q-22 59 -58 99.5t-90 49.5v-277q35 -19 71 -40
t64.5 -49.5t46.5 -66.5t18 -92q0 -44 -14.5 -79.5t-41.5 -61t-64.5 -40.5t-83.5 -18v-72h-48v72zM384 160q0 30 -8.5 54.5t-23 44.5t-34.5 36.5t-42 31.5v-306q50 8 79 45t29 94zM140 592q0 -45 26.5 -75t65.5 -54v251q-43 -6 -67.5 -38.5t-24.5 -83.5z" />
    <glyph glyph-name="cent" unicode="&#xa2;" horiz-adv-x="464" 
d="M224 -11q-88 9 -134 79.5t-46 183.5q0 55 13 100.5t37 80t57 56.5t73 28v75h48v-73q66 -3 107 -30.5t41 -72.5q0 -27 -14.5 -41.5t-33.5 -14.5q-14 0 -25 9.5t-15 26.5l-16 72q-9 8 -21 12t-23 6v-433q5 -1 16 -1q45 0 72 22.5t48 49.5l12 -4q-22 -63 -57.5 -94.5
t-90.5 -36.5v-72h-48v72zM128 304q0 -106 27.5 -162t68.5 -76v419q-45 -12 -70.5 -62t-25.5 -119z" />
    <glyph glyph-name="Euro" unicode="&#x20ac;" horiz-adv-x="632" 
d="M12 448h73q10 74 37 130t66 94t88.5 57t103.5 19q57 0 104 -9t92 -27l-4 -140h-16q-21 75 -67 109.5t-109 34.5q-33 0 -64.5 -15.5t-57.5 -48t-44.5 -83.5t-25.5 -121h236v-44h-240v-64h212v-44h-209q6 -63 24 -114t44.5 -87t60 -55.5t72.5 -19.5q66 0 109.5 43t58.5 145
h16l4 -180q-45 -18 -90 -29t-102 -11q-128 0 -207.5 76.5t-93.5 231.5h-71v44h68v24v20t1 20h-69v44z" />
    <glyph glyph-name="yen" unicode="&#xa5;" horiz-adv-x="608" 
d="M100 360h132l-136 308q-12 24 -27.5 38.5t-36.5 17.5v12h204v-12q-21 -2 -32.5 -12.5t-11.5 -25.5q0 -10 4 -18l126 -289l126 289q4 9 4 19q0 16 -12.5 25.5t-31.5 11.5v12h168v-12q-30 -6 -43.5 -19t-24.5 -37l-145 -308h129v-44h-148v-64h148v-44h-148v-140
q0 -27 20.5 -41.5t47.5 -14.5v-12h-232v12q27 0 47.5 14.5t20.5 41.5v140h-148v44h148v64h-148v44z" />
    <glyph glyph-name="sterling" unicode="&#xa3;" horiz-adv-x="544" 
d="M464 576q-14 0 -30 8.5t-22 31.5l-20 72q-14 12 -34 18t-34 6q-54 0 -81 -36t-27 -96q0 -42 7.5 -82t15.5 -82h145v-48h-137q2 -17 3.5 -34t1.5 -34q0 -51 -5 -98t-17 -87q34 -15 69 -29t85 -14q27 0 45 11.5t30.5 31.5t20.5 48t16 61h12q2 -16 3 -31t1 -29
q-1 -81 -35 -128.5t-97 -47.5q-26 0 -48.5 7.5t-43 19t-39.5 25.5t-37 28q-18 -37 -46 -58.5t-70 -21.5q-45 0 -70.5 21.5t-25.5 54.5q0 21 8.5 36.5t23 26t33 16t39.5 5.5q23 0 42.5 -4t36.5 -9q0 6 0.5 12t0.5 13q0 36 -12.5 92t-26.5 116h-93v48h82q-8 36 -13 68t-5 56
q0 43 14 81t40.5 66.5t65 44.5t88.5 16q30 0 63 -8t61 -22.5t46 -35.5t18 -46q0 -27 -13.5 -43.5t-34.5 -16.5zM96 20q26 0 47 18.5t32 54.5q-17 11 -34.5 17t-36.5 6q-29 0 -46.5 -14t-17.5 -38t17.5 -34t38.5 -10z" />
    <glyph glyph-name="florin" unicode="&#x192;" horiz-adv-x="504" 
d="M24 404h124q2 35 5.5 70t10.5 70q18 96 63 150t129 54q24 0 49 -5.5t45 -16.5t33 -28.5t13 -41.5q0 -12 -2 -24.5t-7.5 -22t-16 -15.5t-26.5 -6t-32 13.5t-16 38.5v20q0 24 -12 40t-32 16q-28 0 -48.5 -36.5t-31.5 -95.5q-8 -45 -13.5 -90t-10.5 -90h136v-48h-140
q-7 -92 -12.5 -182.5t-19.5 -181.5q-7 -45 -18.5 -82.5t-29.5 -64.5t-44 -42t-60 -15q-23 0 -45 4.5t-39.5 15t-28.5 27.5t-11 41q0 25 12 40.5t36 15.5q16 0 30 -11t14 -33v-20q0 -48 36 -48q30 0 46.5 29t25 69t10.5 82t2 68q0 38 -2 74.5t-2 73.5v70t1 70h-121v48z" />
    <glyph glyph-name="zero.tf" 
d="M290 20q42 0 71.5 25t48.5 70.5t27.5 108.5t8.5 140q0 82 -8.5 147.5t-27.5 111t-48.5 69.5t-71.5 24t-71.5 -24t-48.5 -69.5t-27.5 -111t-8.5 -147.5q0 -77 8.5 -140t27.5 -108.5t48.5 -70.5t71.5 -25zM290 -12q-71 0 -119.5 31t-79 83.5t-44 120t-13.5 141.5
q0 73 13.5 142.5t44 123t79 86t119.5 32.5q70 0 119 -32.5t79.5 -86t44 -123t13.5 -142.5q0 -74 -13.5 -141.5t-44 -120t-79.5 -83.5t-119 -31z" />
    <glyph glyph-name="one.tf" 
d="M136 12q45 0 76.5 14.5t31.5 41.5v496q0 51 -24.5 73.5t-87.5 22.5v16q30 1 60.5 10t58 20t49.5 22.5t36 19.5l12 -4q-2 -12 -3 -29.5t-2.5 -37t-2 -38t-0.5 -31.5v-540q0 -27 31.5 -41.5t76.5 -14.5v-12h-312v12z" />
    <glyph glyph-name="two.tf" 
d="M76 52q0 48 23.5 89t58.5 79.5t76 76.5t76 80t58.5 89.5t23.5 105.5q0 27 -6 53t-19.5 46t-37 32.5t-57.5 12.5q-26 0 -47 -11t-36.5 -30.5t-24 -45t-8.5 -53.5q0 -15 2.5 -30.5t5.5 -33.5l-96 24q-3 12 -3.5 19.5t-0.5 16.5q0 43 17.5 76t46 55.5t66 33.5t78.5 11
q52 0 94 -13.5t70.5 -37t44 -56t15.5 -69.5q0 -54 -24.5 -102.5t-62 -92t-82.5 -83t-86 -76t-72 -71t-41 -67.5h252q54 0 77.5 27t38.5 81h16v-188h-436v52z" />
    <glyph glyph-name="three.tf" 
d="M200 416h20q75 0 119.5 45t44.5 123q0 27 -6 51t-19.5 42t-37 28.5t-57.5 10.5q-26 0 -45 -11t-31 -29t-18 -41t-6 -47q0 -15 2.5 -33t5.5 -27l-96 24q-3 6 -3.5 17.5t-0.5 14.5q0 37 14.5 67.5t40.5 52t61 33t76 11.5q106 0 163 -44.5t57 -119.5q0 -36 -14 -66
t-36.5 -53t-51.5 -39.5t-58 -26.5q35 -5 69.5 -18.5t61.5 -37t44 -59t17 -84.5q0 -57 -22.5 -97.5t-58 -66t-80 -37t-87.5 -11.5q-85 0 -138.5 43.5t-65.5 124.5l40 12q12 -57 53.5 -94.5t110.5 -37.5q31 0 58.5 11t47 32t31 51.5t11.5 69.5q0 42 -15 73.5t-40.5 52.5
t-59.5 31.5t-73 10.5h-28v48z" />
    <glyph glyph-name="four.tf" 
d="M32 248l288 488l112 12v-480h112l-16 -68h-96v-132q0 -15 6 -25t15.5 -16.5t20.5 -10t22 -4.5v-12h-224v12q27 3 45.5 14.5t18.5 41.5v132h-288zM108 268h228v392z" />
    <glyph glyph-name="five.tf" 
d="M124 732l8 4q12 -5 32 -8t42.5 -4.5t46 -2.5t43.5 -1q66 0 110.5 6.5t65.5 21.5l8 -4q-21 -57 -67 -88.5t-121 -31.5q-49 0 -107 14l-19 -203q23 8 48.5 10.5t49.5 2.5q46 0 89.5 -13.5t77 -41.5t53.5 -70t20 -99t-20 -101t-53 -74t-75.5 -45.5t-87.5 -15.5
q-160 0 -196 160l40 12q12 -57 51 -90.5t105 -33.5q34 0 60 14.5t42.5 40t25 60t8.5 73.5q0 93 -49 138.5t-127 45.5q-18 0 -46.5 -7t-49.5 -25l-8 4v352z" />
    <glyph glyph-name="six.tf" 
d="M500 724q-62 -15 -114 -37.5t-93 -58t-70 -85t-44 -117.5q23 16 51.5 25t57.5 9q109 0 168.5 -61.5t59.5 -170.5q0 -48 -14 -91.5t-42 -76.5t-69 -52.5t-95 -19.5t-97 20t-73 57.5t-46 89.5t-16 117q0 97 28 184t82.5 151.5t134 102.5t183.5 38zM288 424q-28 0 -62 -10
t-55 -30q-4 -26 -5.5 -53.5t-1.5 -58.5q0 -57 10.5 -103.5t28.5 -79.5t42 -51t51 -18q25 0 48 12t39.5 37.5t26.5 65t10 93.5q0 46 -10.5 82.5t-28.5 62t-42 38.5t-51 13z" />
    <glyph glyph-name="seven.tf" 
d="M72 736h436v-80q-36 -54 -76 -130.5t-74 -164.5t-56 -181t-22 -180h-112q0 53 14.5 114t38 124t53.5 124.5t62 116t63.5 99.5t56.5 74h-252q-54 0 -77.5 -27t-38.5 -81h-16v192z" />
    <glyph glyph-name="eight.tf" 
d="M64 180q0 65 37 115t123 75q-26 16 -50 34.5t-42 43.5t-29 57t-11 75q0 33 14 63.5t39.5 53.5t62.5 37t84 14q49 0 86 -12.5t61.5 -33.5t36.5 -48.5t12 -57.5q0 -71 -36 -120t-105 -74q31 -15 61.5 -32.5t54.5 -41t38.5 -56.5t14.5 -80t-16.5 -84.5t-46.5 -64t-72 -41
t-93 -14.5q-112 0 -168 49t-56 143zM416 164q0 40 -15 69t-39.5 50.5t-55.5 39t-62 35.5q-53 -41 -72.5 -86t-19.5 -92q0 -30 9.5 -59t27 -51.5t42.5 -36t57 -13.5q60 0 94 40.5t34 103.5zM184 592q0 -38 12 -65.5t31.5 -48t45 -36t53.5 -29.5q33 30 53.5 75t20.5 92
q0 27 -7.5 51.5t-21 43.5t-34 30t-45.5 11q-51 0 -79.5 -33.5t-28.5 -90.5z" />
    <glyph glyph-name="nine.tf" 
d="M96 12q117 28 193.5 96t107.5 191q-23 -15 -50.5 -23t-54.5 -8q-54 0 -96.5 17t-71.5 48.5t-44.5 76t-15.5 98.5q0 48 14 91.5t42 76.5t69 52.5t95 19.5q109 0 170.5 -73t61.5 -203q0 -92 -26.5 -179t-79 -154.5t-129.5 -109t-177 -41.5zM292 304q26 0 59.5 9t54.5 28
q5 29 7.5 62t2.5 69q0 57 -10.5 102t-28.5 76.5t-42 48.5t-51 17q-26 0 -48.5 -12.5t-39 -38t-26.5 -64.5t-10 -93q0 -47 10.5 -84.5t28.5 -64t42 -41t51 -14.5z" />
    <glyph glyph-name="zero.tf.zero" 
d="M290 -12q-71 0 -119.5 31t-79 83.5t-44 120t-13.5 141.5q0 73 13.5 142.5t44 123t79 86t119.5 32.5q70 0 119 -32.5t79.5 -86t44 -123t13.5 -142.5q0 -74 -13.5 -141.5t-44 -120t-79.5 -83.5t-119 -31zM199 64q35 -44 91 -44q42 0 71.5 25t48.5 70.5t27.5 108.5t8.5 140
q0 75 -7 135.5t-23 105.5l-110 -241zM270 368l109 307q-36 41 -89 41q-42 0 -71.5 -24t-48.5 -69.5t-27.5 -111t-8.5 -147.5q0 -69 7 -127t22 -103z" />
    <glyph glyph-name="currency.tf" 
d="M130 233q-19 22 -29.5 50.5t-10.5 64.5t10.5 64.5t29.5 50.5l-72 85l48 40l73 -87q49 27 111 27q29 0 57.5 -6.5t52.5 -20.5l74 87l48 -40l-73 -85q19 -22 30 -50.5t11 -64.5t-11 -64.5t-30 -50.5l73 -85l-48 -40l-74 86q-49 -26 -110 -26t-111 26l-73 -86l-48 40z
M402 348q0 27 -7 52.5t-20.5 45t-35 31t-49.5 11.5q-29 0 -50 -11.5t-34.5 -31t-20.5 -45t-7 -52.5t7 -52.5t20.5 -45t34.5 -31t50 -11.5q28 0 49.5 11.5t35 31t20.5 45t7 52.5z" />
    <glyph glyph-name="dollar.tf" 
d="M256 -11q-25 1 -51 5t-49 9.5t-43 13t-33 15.5l8 144h16q21 -65 61.5 -105.5t90.5 -48.5v335q-33 19 -65.5 39t-58 45.5t-41 59t-15.5 79.5q0 31 13 60t37 51.5t58 37.5t76 18v73h48v-73q44 -3 88.5 -15t75.5 -32v-136h-16q-22 59 -58 99.5t-90 49.5v-277q35 -19 71 -40
t64.5 -49.5t46.5 -66.5t18 -92q0 -44 -14.5 -79.5t-41.5 -61t-64.5 -40.5t-83.5 -18v-73h-48v73zM412 160q0 30 -8.5 54.5t-23 44.5t-34.5 36.5t-42 31.5v-306q50 8 79 45t29 94zM168 592q0 -45 26.5 -75t65.5 -54v251q-43 -6 -67.5 -38.5t-24.5 -83.5z" />
    <glyph glyph-name="cent.tf" 
d="M280 -11q-88 9 -134 79.5t-46 183.5q0 55 13 100.5t37 80t57 56.5t73 28v75h48v-73q66 -3 107 -30.5t41 -72.5q0 -27 -14.5 -41.5t-33.5 -14.5q-14 0 -25 9.5t-15 26.5l-16 72q-9 8 -21 12t-23 6v-433q5 -1 16 -1q45 0 72 22.5t48 49.5l12 -4q-22 -63 -57.5 -94.5
t-90.5 -36.5v-72h-48v72zM184 304q0 -106 27.5 -162t68.5 -76v419q-45 -12 -70.5 -62t-25.5 -119z" />
    <glyph glyph-name="Euro.tf" 
d="M20 448h73q9 74 32.5 130t59.5 94t82.5 57t100.5 19q57 0 98 -9t86 -27l-4 -140h-16q-21 75 -61 109.5t-103 34.5q-67 0 -114 -63.5t-59 -204.5h205v-44h-208v-64h180v-44h-178q5 -63 19 -114t36.5 -87t53 -55.5t69.5 -19.5q66 0 105.5 43t54.5 145h16l4 -180
q-23 -9 -43 -16.5t-41 -12.5t-44.5 -8t-51.5 -3q-257 0 -282 308h-70v44h68v24v20t1 20h-69v44z" />
    <glyph glyph-name="yen.tf" 
d="M84 360h132l-136 308q-12 24 -27.5 38.5t-36.5 17.5v12h204v-12q-21 -2 -32.5 -12.5t-11.5 -25.5q0 -10 4 -18l126 -289l126 289q4 9 4 19q0 16 -12.5 25.5t-31.5 11.5v12h168v-12q-30 -6 -43.5 -19t-24.5 -37l-145 -308h129v-44h-148v-64h148v-44h-148v-140
q0 -27 20.5 -41.5t47.5 -14.5v-12h-232v12q27 0 47.5 14.5t20.5 41.5v140h-148v44h148v64h-148v44z" />
    <glyph glyph-name="sterling.tf" 
d="M500 576q-14 0 -30 8.5t-22 31.5l-20 72q-14 12 -34 18t-34 6q-54 0 -81 -36t-27 -96q0 -42 7.5 -82t15.5 -82h145v-48h-137q2 -17 3.5 -34t1.5 -34q0 -51 -5 -98t-17 -87q34 -15 69 -29t85 -14q27 0 45 11.5t30.5 31.5t20.5 48t16 61h12q2 -16 3 -31t1 -29
q-1 -81 -35 -128.5t-97 -47.5q-26 0 -48.5 7.5t-43 19t-39.5 25.5t-37 28q-18 -37 -46 -58.5t-70 -21.5q-45 0 -70.5 21.5t-25.5 54.5q0 21 8.5 36.5t23 26t33 16t39.5 5.5q23 0 42.5 -4t36.5 -9q0 6 0.5 12t0.5 13q0 36 -12.5 92t-26.5 116h-93v48h82q-8 36 -13 68t-5 56
q0 43 14 81t40.5 66.5t65 44.5t88.5 16q30 0 63 -8t61 -22.5t46 -35.5t18 -46q0 -27 -13.5 -43.5t-34.5 -16.5zM132 20q26 0 47 18.5t32 54.5q-17 11 -34.5 17t-36.5 6q-29 0 -46.5 -14t-17.5 -38t17.5 -34t38.5 -10z" />
    <glyph glyph-name="florin.tf" 
d="M100 404h124q2 35 5.5 70t10.5 70q18 96 63 150t129 54q24 0 49 -5.5t45 -16.5t33 -28.5t13 -41.5q0 -12 -2 -24.5t-7.5 -22t-16 -15.5t-26.5 -6t-32 13.5t-16 38.5v20q0 24 -12 40t-32 16q-28 0 -48.5 -36.5t-31.5 -95.5q-8 -45 -13.5 -90t-10.5 -90h136v-48h-140
q-7 -92 -12.5 -182.5t-19.5 -181.5q-7 -45 -18.5 -82.5t-29.5 -64.5t-44 -42t-60 -15q-23 0 -45 4.5t-39.5 15t-28.5 27.5t-11 41q0 25 12 40.5t36 15.5q16 0 30 -11t14 -33v-20q0 -48 36 -48q30 0 46.5 29t25 69t10.5 82t2 68q0 38 -2 74.5t-2 73.5v70t1 70h-121v48z" />
    <glyph glyph-name="zero.osf" horiz-adv-x="584" 
d="M292 16q69 0 110.5 64t41.5 188q0 117 -41.5 182.5t-110.5 65.5t-110.5 -64t-41.5 -188q0 -117 41.5 -182.5t110.5 -65.5zM292 -12q-124 0 -186 71.5t-62 204.5q0 61 16 112.5t47.5 89t78 58t106.5 20.5q124 0 186 -71.5t62 -204.5q0 -62 -16.5 -113t-48 -88.5t-77.5 -58
t-106 -20.5z" />
    <glyph glyph-name="one.osf" horiz-adv-x="300" 
d="M44 12q27 0 47.5 14.5t20.5 41.5v312q0 36 -16.5 55.5t-67.5 19.5v16q57 12 99 34.5t69 37.5l12 -4q-2 -12 -3 -29.5t-2.5 -37t-2 -38t-0.5 -31.5v-335q0 -27 20.5 -41.5t47.5 -14.5v-12h-224v12z" />
    <glyph glyph-name="two.osf" horiz-adv-x="508" 
d="M52 36q0 35 21.5 64.5t53.5 57t69 55t69 58t53.5 66t21.5 79.5q0 100 -104 100q-50 0 -79 -35.5t-29 -88.5q0 -15 3.5 -31t8.5 -33l-92 24q-4 19 -4 40q0 40 18.5 69t47 47.5t62.5 27t64 8.5q51 0 88.5 -11t62.5 -29.5t37 -42.5t12 -49q0 -46 -21.5 -82.5t-54.5 -67
t-73.5 -55t-78.5 -47t-69.5 -44t-46.5 -44.5h236q54 0 77.5 27t38.5 81h16v-180h-408v36z" />
    <glyph glyph-name="three.osf" horiz-adv-x="524" 
d="M172 204h20q75 0 117.5 49t42.5 127q0 27 -5 51.5t-18.5 43.5t-36 30t-56.5 11q-50 0 -79 -35.5t-29 -88.5q0 -15 3.5 -31t8.5 -33l-92 24q-4 19 -4 40q0 40 18.5 69t47 47.5t62.5 27t64 8.5q106 0 159 -44.5t53 -119.5q0 -36 -13 -67t-34 -56t-48.5 -42.5t-56.5 -27.5
q35 -5 68 -16.5t59 -33t41.5 -55t15.5 -82.5q0 -57 -20.5 -97.5t-54 -66t-76 -37t-85.5 -11.5q-39 0 -74 11t-63 32.5t-46.5 52.5t-24.5 72l40 12q12 -57 55.5 -94.5t112.5 -37.5q63 0 101.5 43t38.5 121q0 84 -50 120t-134 36h-28v48z" />
    <glyph glyph-name="four.osf" horiz-adv-x="536" 
d="M8 68l288 464l104 12v-460h136l-16 -64h-120v-220h-88v220h-288zM80 84h232v376z" />
    <glyph glyph-name="five.osf" horiz-adv-x="508" 
d="M92 531l8 4q12 -5 32 -9t42.5 -7.5t46 -5.5t43.5 -2q66 0 110.5 10.5t65.5 25.5l8 -4q-21 -57 -67 -88.5t-121 -31.5q-49 0 -107 14l-19 -211q23 8 48.5 10.5t49.5 2.5q46 0 89.5 -12.5t77 -38.5t53.5 -67t20 -98t-20 -101t-53 -74t-75.5 -45.5t-87.5 -15.5
q-160 0 -196 160l40 12q12 -57 51 -90.5t105 -33.5q34 0 60.5 14.5t44 40t26.5 60t9 73.5q0 46 -13.5 79.5t-37.5 55t-57 31.5t-72 10q-18 0 -46.5 -7t-49.5 -25l-8 4v360z" />
    <glyph glyph-name="six.osf" horiz-adv-x="544" 
d="M484 700q-66 -11 -121 -31.5t-97 -55.5t-70.5 -87t-41.5 -126q24 19 55 29.5t63 10.5q109 0 168.5 -57.5t59.5 -166.5q0 -48 -14 -89.5t-42 -72.5t-69 -48.5t-95 -17.5t-97 20t-73 57.5t-46 89.5t-16 117q0 97 28 180t82.5 143.5t134 94.5t183.5 34zM272 404
q-30 0 -62 -8.5t-62 -35.5q-2 -20 -3 -42.5t-1 -45.5q0 -62 11 -109.5t30 -80t43.5 -49.5t51.5 -17q25 0 48.5 11t41 35t28 62t10.5 92q0 46 -11 81.5t-30 59t-43.5 35.5t-51.5 12z" />
    <glyph glyph-name="seven.osf" horiz-adv-x="480" 
d="M32 532h436v-68q-38 -48 -78 -118.5t-73.5 -156.5t-55 -185t-21.5 -204h-104q0 66 14 133t37 131.5t53 124t61.5 111t62.5 92.5t56 68h-256q-27 0 -45.5 -5.5t-32 -18.5t-22.5 -33.5t-16 -50.5h-16v180z" />
    <glyph glyph-name="eight.osf" horiz-adv-x="536" 
d="M44 180q0 63 32.5 111.5t112.5 74.5q-24 16 -45.5 34t-37 41t-25 51t-9.5 64q0 33 13 63.5t38.5 53.5t61.5 37t83 14q49 0 85.5 -12.5t60 -33.5t35 -48.5t11.5 -57.5q0 -69 -32 -117t-96 -74q30 -17 59 -35.5t51.5 -41.5t36 -52t13.5 -68q0 -47 -16.5 -83t-46.5 -61.5
t-72 -38.5t-93 -13q-112 0 -166 49t-54 143zM400 156q0 39 -17 66.5t-44 49.5t-60.5 41t-66.5 39q-48 -40 -66 -83.5t-18 -88.5q0 -30 9.5 -59.5t27 -52.5t42.5 -37.5t57 -14.5q60 0 98 38.5t38 101.5zM160 568q0 -33 12.5 -58t33 -45.5t47 -37t55.5 -32.5q31 30 49.5 73
t18.5 88q0 27 -7.5 52t-21 44.5t-34 31.5t-45.5 12q-51 0 -79.5 -35.5t-28.5 -92.5z" />
    <glyph glyph-name="nine.osf" horiz-adv-x="544" 
d="M60 -188q66 12 121 34.5t97 61t70.5 93.5t41.5 131q-24 -19 -55.5 -29.5t-62.5 -10.5q-109 0 -168.5 57.5t-59.5 166.5q0 48 14 89.5t42 72.5t69 48.5t95 17.5t97 -20t73 -57.5t46 -90t16 -116.5q0 -98 -28 -183.5t-82.5 -150t-134.5 -101.5t-183 -37zM272 128
q30 0 61.5 8.5t61.5 34.5q2 21 3.5 43t1.5 46q0 61 -11 109t-30 80.5t-43.5 49.5t-51.5 17q-26 0 -49 -11t-40.5 -35t-28 -62t-10.5 -92q0 -47 11 -82t30 -58.5t43.5 -35.5t51.5 -12z" />
    <glyph glyph-name="zero.osf.zero" horiz-adv-x="584" 
d="M292 -12q-124 0 -186 71.5t-62 204.5q0 61 16 112.5t47.5 89t78 58t106.5 20.5q124 0 186 -71.5t62 -204.5q0 -62 -16.5 -113t-48 -88.5t-77.5 -58t-106 -20.5zM292 16q69 0 110.5 64t41.5 188q0 57 -10 101.5t-29 76.5l-93 -182l-86 -229q30 -19 66 -19zM140 264
q0 -57 10 -102t29 -77l93 183l86 228q-31 20 -66 20q-69 0 -110.5 -64t-41.5 -188z" />
    <glyph glyph-name="zero.tosf" 
d="M290 16q69 0 110.5 64t41.5 188q0 117 -41.5 182.5t-110.5 65.5t-110.5 -64t-41.5 -188q0 -117 41.5 -182.5t110.5 -65.5zM290 -12q-124 0 -186 71.5t-62 204.5q0 61 16 112.5t47.5 89t78 58t106.5 20.5q124 0 186 -71.5t62 -204.5q0 -62 -16.5 -113t-48 -88.5t-77.5 -58
t-106 -20.5z" />
    <glyph glyph-name="one.tosf" 
d="M156 16q42 0 73 13.5t31 46.5v304q0 45 -27.5 60t-84.5 15v16q36 2 66 10.5t54.5 20t43 22.5t32.5 19l12 -4q-2 -12 -3 -29.5t-2.5 -37t-2 -38t-0.5 -31.5v-327q0 -33 31 -46.5t73 -13.5v-16h-296v16z" />
    <glyph glyph-name="two.tosf" 
d="M88 36q0 35 21.5 64.5t53.5 57t69 55t69 58t53.5 66t21.5 79.5q0 100 -104 100q-50 0 -79 -35.5t-29 -88.5q0 -15 3.5 -31t8.5 -33l-92 24q-4 19 -4 40q0 40 18.5 69t47 47.5t62.5 27t64 8.5q51 0 88.5 -11t62.5 -29.5t37 -42.5t12 -49q0 -46 -21.5 -82.5t-54.5 -67
t-73.5 -55t-78.5 -47t-69.5 -44t-46.5 -44.5h236q54 0 77.5 27t38.5 81h16v-180h-408v36z" />
    <glyph glyph-name="three.tosf" 
d="M200 204h20q75 0 117.5 49t42.5 127q0 27 -5 51.5t-18.5 43.5t-36 30t-56.5 11q-50 0 -79 -35.5t-29 -88.5q0 -15 3.5 -31t8.5 -33l-92 24q-4 19 -4 40q0 40 18.5 69t47 47.5t62.5 27t64 8.5q106 0 159 -44.5t53 -119.5q0 -36 -13 -67t-34 -56t-48.5 -42.5t-56.5 -27.5
q35 -5 68 -16.5t59 -33t41.5 -55t15.5 -82.5q0 -57 -20.5 -97.5t-54 -66t-76 -37t-85.5 -11.5q-39 0 -74 11t-63 32.5t-46.5 52.5t-24.5 72l40 12q12 -57 55.5 -94.5t112.5 -37.5q63 0 101.5 43t38.5 121q0 84 -50 120t-134 36h-28v48z" />
    <glyph glyph-name="four.tosf" 
d="M24 68l288 464l104 12v-460h136l-16 -64h-120v-220h-88v220h-288zM96 84h232v376z" />
    <glyph glyph-name="five.tosf" 
d="M128 531l8 4q12 -5 32 -9t42.5 -7.5t46 -5.5t43.5 -2q66 0 110.5 10.5t65.5 25.5l8 -4q-21 -57 -67 -88.5t-121 -31.5q-49 0 -107 14l-19 -211q23 8 48.5 10.5t49.5 2.5q46 0 89.5 -12.5t77 -38.5t53.5 -67t20 -98t-20 -101t-53 -74t-75.5 -45.5t-87.5 -15.5
q-160 0 -196 160l40 12q12 -57 51 -90.5t105 -33.5q34 0 60.5 14.5t44 40t26.5 60t9 73.5q0 46 -13.5 79.5t-37.5 55t-57 31.5t-72 10q-18 0 -46.5 -7t-49.5 -25l-8 4v360z" />
    <glyph glyph-name="six.tosf" 
d="M500 700q-66 -11 -121 -31.5t-97 -55.5t-70.5 -87t-41.5 -126q24 19 55 29.5t63 10.5q109 0 168.5 -57.5t59.5 -166.5q0 -48 -14 -89.5t-42 -72.5t-69 -48.5t-95 -17.5t-97 20t-73 57.5t-46 89.5t-16 117q0 97 28 180t82.5 143.5t134 94.5t183.5 34zM288 404
q-30 0 -62 -8.5t-62 -35.5q-2 -20 -3 -42.5t-1 -45.5q0 -62 11 -109.5t30 -80t43.5 -49.5t51.5 -17q25 0 48.5 11t41 35t28 62t10.5 92q0 46 -11 81.5t-30 59t-43.5 35.5t-51.5 12z" />
    <glyph glyph-name="seven.tosf" 
d="M70 532h436v-68q-38 -48 -78 -118.5t-73.5 -156.5t-55 -185t-21.5 -204h-104q0 66 14 133t37 131.5t53 124t61.5 111t62.5 92.5t56 68h-256q-27 0 -45.5 -5.5t-32 -18.5t-22.5 -33.5t-16 -50.5h-16v180z" />
    <glyph glyph-name="eight.tosf" 
d="M68 180q0 63 32.5 111.5t112.5 74.5q-24 16 -45.5 34t-37 41t-25 51t-9.5 64q0 33 13 63.5t38.5 53.5t61.5 37t83 14q49 0 85.5 -12.5t60 -33.5t35 -48.5t11.5 -57.5q0 -69 -32 -117t-96 -74q30 -17 59 -35.5t51.5 -41.5t36 -52t13.5 -68q0 -47 -16.5 -83t-46.5 -61.5
t-72 -38.5t-93 -13q-112 0 -166 49t-54 143zM424 156q0 39 -17 66.5t-44 49.5t-60.5 41t-66.5 39q-48 -40 -66 -83.5t-18 -88.5q0 -30 9.5 -59.5t27 -52.5t42.5 -37.5t57 -14.5q60 0 98 38.5t38 101.5zM184 568q0 -33 12.5 -58t33 -45.5t47 -37t55.5 -32.5q31 30 49.5 73
t18.5 88q0 27 -7.5 52t-21 44.5t-34 31.5t-45.5 12q-51 0 -79.5 -35.5t-28.5 -92.5z" />
    <glyph glyph-name="nine.tosf" 
d="M80 -188q66 12 121 34.5t97 61t70.5 93.5t41.5 131q-24 -19 -55.5 -29.5t-62.5 -10.5q-109 0 -168.5 57.5t-59.5 166.5q0 48 14 89.5t42 72.5t69 48.5t95 17.5t97 -20t73 -57.5t46 -90t16 -116.5q0 -98 -28 -183.5t-82.5 -150t-134.5 -101.5t-183 -37zM292 128
q30 0 61.5 8.5t61.5 34.5q2 21 3.5 43t1.5 46q0 61 -11 109t-30 80.5t-43.5 49.5t-51.5 17q-26 0 -49 -11t-40.5 -35t-28 -62t-10.5 -92q0 -47 11 -82t30 -58.5t43.5 -35.5t51.5 -12z" />
    <glyph glyph-name="zero.tosf.zero" 
d="M290 -12q-124 0 -186 71.5t-62 204.5q0 61 16 112.5t47.5 89t78 58t106.5 20.5q124 0 186 -71.5t62 -204.5q0 -62 -16.5 -113t-48 -88.5t-77.5 -58t-106 -20.5zM290 16q69 0 110.5 64t41.5 188q0 57 -10 101.5t-29 76.5l-93 -182l-86 -229q30 -19 66 -19zM138 264
q0 -57 10 -102t29 -77l93 183l86 228q-31 20 -66 20q-69 0 -110.5 -64t-41.5 -188z" />
    <glyph glyph-name="plus" unicode="+" 
d="M68 300h196v204h52v-204h196v-44h-196v-204h-52v204h-196v44z" />
    <glyph glyph-name="minus" unicode="&#x2212;" 
d="M68 300h444v-44h-444v44z" />
    <glyph glyph-name="multiply" unicode="&#xd7;" 
d="M92 84l167 182l-167 182l32 32l166 -181l166 181l32 -32l-168 -182l168 -182l-32 -32l-166 181l-166 -181z" />
    <glyph glyph-name="divide" unicode="&#xf7;" 
d="M68 300h444v-44h-444v44zM292 52q-27 0 -43.5 16.5t-16.5 43.5t16.5 43.5t43.5 16.5t43.5 -16.5t16.5 -43.5t-16.5 -43.5t-43.5 -16.5zM292 384q-27 0 -43.5 16.5t-16.5 43.5t16.5 43.5t43.5 16.5t43.5 -16.5t16.5 -43.5t-16.5 -43.5t-43.5 -16.5z" />
    <glyph glyph-name="equal" unicode="=" 
d="M68 220h444v-44h-444v44zM68 376h444v-44h-444v44z" />
    <glyph glyph-name="less" unicode="&#x3c;" 
d="M476 468l20 -40l-328 -168l328 -164l-20 -40l-392 200v8z" />
    <glyph glyph-name="greater" unicode="&#x3e;" 
d="M496 256l-392 -200l-20 40l328 164l-328 168l20 40l392 -204v-8z" />
    <glyph glyph-name="plusminus" unicode="&#xb1;" 
d="M68 332h196v172h52v-172h196v-44h-196v-172h-52v172h-196v44zM68 44h444v-44h-444v44z" />
    <glyph glyph-name="lessequal" unicode="&#x2264;" 
d="M476 468l20 -40l-320 -144l320 -140l-20 -40l-392 176v8zM68 44h444v-44h-444v44z" />
    <glyph glyph-name="greaterequal" unicode="&#x2265;" 
d="M496 280l-392 -176l-20 40l320 140l-320 144l20 40l392 -180v-8zM512 0h-444v44h444v-44z" />
    <glyph glyph-name="notequal" unicode="&#x2260;" 
d="M68 376h263l97 136l40 -16l-85 -120h129v-44h-160l-80 -112h240v-44h-271l-93 -132l-40 16l82 116h-122v44h153l79 112h-232v44z" />
    <glyph glyph-name="logicalnot" unicode="&#xac;" 
d="M68 324h444v-256h-52v212h-392v44z" />
    <glyph glyph-name="asciicircum" unicode="^" 
d="M461 419l-40 -20l-133 265l-133 -265l-40 20l169 329h8z" />
    <glyph glyph-name="asciitilde" unicode="~" 
d="M392 196q-30 0 -58 24.5t-54.5 53.5t-50.5 53.5t-45 24.5q-36 0 -48 -35t-12 -105h-28q-8 35 -8 64q0 51 23.5 85.5t76.5 34.5q30 0 58 -24.5t54.5 -53.5t50.5 -53.5t45 -24.5q36 0 48 35t12 105h28q8 -35 8 -64q0 -51 -23.5 -85.5t-76.5 -34.5z" />
    <glyph glyph-name="approxequal" unicode="&#x2248;" 
d="M392 76q-30 0 -58 24.5t-54.5 53.5t-50.5 53.5t-45 24.5q-36 0 -48 -35t-12 -105h-28q-8 35 -8 64q0 51 23.5 85.5t76.5 34.5q30 0 58 -24.5t54.5 -53.5t50.5 -53.5t45 -24.5q36 0 48 35t12 105h28q8 -35 8 -64q0 -51 -23.5 -85.5t-76.5 -34.5zM392 276q-30 0 -58 24.5
t-54.5 53.5t-50.5 53.5t-45 24.5q-36 0 -48 -35t-12 -105h-28q-8 35 -8 64q0 51 23.5 85.5t76.5 34.5q30 0 58 -24.5t54.5 -53.5t50.5 -53.5t45 -24.5q36 0 48 35t12 105h28q8 -35 8 -64q0 -51 -23.5 -85.5t-76.5 -34.5z" />
    <glyph glyph-name="infinity" unicode="&#x221e;" horiz-adv-x="632" 
d="M292 276q-9 15 -22.5 30.5t-29 28t-33 21t-35.5 8.5q-36 0 -56 -26.5t-20 -61.5t20 -61.5t56 -26.5q18 0 35.5 8.5t33 21t29 28t22.5 30.5zM340 276q9 -15 22.5 -30.5t29 -28t33 -21t35.5 -8.5q36 0 56 26.5t20 61.5t-20 61.5t-56 26.5q-18 0 -35.5 -8.5t-33 -21t-29 -28
t-22.5 -30.5zM316 236q-24 -39 -61.5 -65.5t-82.5 -26.5q-60 0 -94 36t-34 96t34 96t94 36q45 0 82.5 -26.5t61.5 -65.5q24 39 61.5 65.5t82.5 26.5q60 0 94 -36t34 -96t-34 -96t-94 -36q-45 0 -82.5 26.5t-61.5 65.5z" />
    <glyph glyph-name="numbersign" unicode="#" 
d="M346 244h-144l-30 -244h-56l30 244h-98v44h104l21 172h-109v44h115l29 232h56l-29 -232h144l29 232h56l-29 -232h97v-44h-103l-21 -172h108v-44h-114l-30 -244h-56zM208 288h144l21 172h-144z" />
    <glyph glyph-name="radical" unicode="&#x221a;" 
d="M340 0h-76l-149 384l-95 -16v52l172 32l118 -370l198 654h68z" />
    <glyph glyph-name="lozenge" unicode="&#x25ca;" horiz-adv-x="600" 
d="M580 376l-260 -376h-64l-240 356l260 380h64zM286 669l-190 -289l214 -313l190 285z" />
    <glyph glyph-name="Delta" unicode="&#x2206;" horiz-adv-x="648" 
d="M52 0l252 748h48l248 -748h-548zM128 40h359l-180 579z" />
    <glyph glyph-name="Omega" unicode="&#x2126;" horiz-adv-x="760" 
d="M380 712q-54 0 -92.5 -21.5t-63.5 -60t-36.5 -91.5t-11.5 -115q0 -50 9 -94.5t28.5 -80.5t48.5 -61.5t70 -35.5v-152h-264l-16 152h12q19 -60 59.5 -90t92.5 -30q14 0 31.5 2t36.5 10v84q-41 6 -79 32.5t-67.5 66.5t-47.5 89t-18 100q0 75 20.5 136t60 104.5t96.5 67.5
t131 24q73 0 130.5 -24t97 -67.5t60 -104.5t20.5 -136q0 -51 -18 -100t-47.5 -89t-68 -66.5t-78.5 -32.5v-84q19 -8 36.5 -10t31.5 -2q52 0 92.5 30t59.5 90h12l-16 -152h-264v152q40 10 69.5 35.5t49 61.5t28.5 80.5t9 94.5q0 62 -11.5 115t-36.5 91.5t-63.5 60t-92.5 21.5
z" />
    <glyph glyph-name="summation" unicode="&#x2211;" horiz-adv-x="544" 
d="M32 8l248 352l-224 364v12h432l16 -164h-12q-12 38 -33.5 63.5t-49.5 40.5t-60 21.5t-65 6.5q-24 0 -50.5 -3t-47.5 -8l178 -293l-240 -338q35 -14 78 -22t78 -8q38 0 73.5 9.5t65.5 28.5t52.5 47.5t36.5 66.5h12l-16 -184h-472v8z" />
    <glyph glyph-name="partialdiff" unicode="&#x2202;" horiz-adv-x="544" 
d="M268 460q49 0 78.5 -12.5t52.5 -35.5q-10 73 -33 126t-59 90.5t-85.5 60.5t-113.5 35v24q103 0 177.5 -33.5t122 -95t70 -150t22.5 -197.5q0 -65 -16 -117t-46 -89.5t-73 -57.5t-97 -20t-96 18t-70.5 49.5t-43 74t-14.5 90.5q0 54 14.5 98t43 75.5t70.5 49t96 17.5z
M268 16q36 0 62.5 18.5t43.5 52.5t25.5 81t8.5 104v8q-2 38 -14 66t-31.5 46t-44 27t-50.5 9q-27 0 -51 -15t-42 -42.5t-28.5 -66t-10.5 -84.5q0 -54 11 -92.5t29.5 -63.5t42 -36.5t49.5 -11.5z" />
    <glyph glyph-name="integral" unicode="&#x222b;" horiz-adv-x="496" 
d="M292 -12q0 -60 -13 -99t-35.5 -61.5t-53 -31t-66.5 -8.5q-23 0 -45 3.5t-43 8.5v32q17 -4 33 -6t31 -2q27 0 45.5 7.5t29.5 24.5t16 45.5t5 70.5v576q0 60 14 98.5t38 61t56 31.5t68 9q23 0 45 -3.5t43 -8.5v-32q-17 4 -33 6t-31 2q-54 0 -79 -32t-25 -116v-576z" />
    <glyph glyph-name="product" unicode="&#x220f;" horiz-adv-x="684" 
d="M40 12q52 6 52 56v600q0 50 -52 56v12h604v-12q-21 -3 -36.5 -17.5t-15.5 -38.5v-600q0 -24 15.5 -38.5t36.5 -17.5v-12h-200v12q52 6 52 56v628h-308v-628q0 -24 15.5 -38.5t36.5 -17.5v-12h-200v12z" />
    <glyph glyph-name="pi" unicode="&#x3c0;" horiz-adv-x="568" 
d="M524 508v-12q-27 -3 -37.5 -17.5t-10.5 -38.5v-372q0 -50 48 -56v-12h-184v12q27 3 37.5 17.5t10.5 38.5v404h-204v-404q0 -50 48 -56v-12h-184v12q27 3 37.5 17.5t10.5 38.5v372q0 24 -10.5 38.5t-37.5 17.5v12h476z" />
    <glyph glyph-name="mu" unicode="&#xb5;" horiz-adv-x="576" 
d="M92 408q0 46 -56 52v12q24 3 42.5 9.5t34 14t28.5 16t27 16.5l12 -4v-424q16 -26 43 -39t57 -13q32 0 62.5 13.5t49.5 37.5v309q0 46 -56 52v12q24 3 42.5 9.5t34 14t28.5 16t27 16.5l12 -4v-456q0 -27 14.5 -40t41.5 -16v-12h-144v65q-20 -39 -56 -58t-76 -19
q-22 0 -44.5 6t-39.5 18q0 -56 2.5 -109.5t9.5 -102.5h-96v608z" />
    <glyph glyph-name="period" unicode="." horiz-adv-x="240" 
d="M120 -12q-33 0 -50.5 19t-17.5 49t17.5 49t50.5 19t50.5 -19t17.5 -49t-17.5 -49t-50.5 -19z" />
    <glyph glyph-name="comma" unicode="," horiz-adv-x="240" 
d="M16 -120q57 9 84.5 35t27.5 53q0 15 -12 21l-26 13t-26 19t-12 39q0 33 21 48.5t47 15.5q33 0 50.5 -19.5t17.5 -52.5v-8q0 -35 -6 -67.5t-24.5 -59t-52.5 -45t-89 -24.5v32z" />
    <glyph glyph-name="colon" unicode=":" horiz-adv-x="240" 
d="M120 -12q-33 0 -50.5 19t-17.5 49t17.5 49t50.5 19t50.5 -19t17.5 -49t-17.5 -49t-50.5 -19zM120 308q-33 0 -50.5 19t-17.5 49t17.5 49t50.5 19t50.5 -19t17.5 -49t-17.5 -49t-50.5 -19z" />
    <glyph glyph-name="semicolon" unicode=";" horiz-adv-x="240" 
d="M16 -120q57 9 84.5 35t27.5 53q0 15 -12 21l-26 13t-26 19t-12 39q0 33 21 48.5t47 15.5q33 0 50.5 -19.5t17.5 -52.5v-8q0 -35 -6 -67.5t-24.5 -59t-52.5 -45t-89 -24.5v32zM120 308q-33 0 -50.5 19t-17.5 49t17.5 49t50.5 19t50.5 -19t17.5 -49t-17.5 -49t-50.5 -19z
" />
    <glyph glyph-name="exclam" unicode="!" horiz-adv-x="344" 
d="M112 696q0 24 19.5 38t40.5 14t40.5 -14t19.5 -38l-40 -468h-44zM104 56q0 30 17.5 49t50.5 19t50.5 -19t17.5 -49t-17.5 -49t-50.5 -19t-50.5 19t-17.5 49z" />
    <glyph glyph-name="question" unicode="?" horiz-adv-x="520" 
d="M228 228q0 47 10 79.5t25 57t33 44.5t33 42.5t25 51t10 69.5q0 27 -4.5 53t-17 46t-34.5 32.5t-56 12.5q-26 0 -46.5 -11t-34 -30.5t-20.5 -45t-7 -53.5q0 -15 1.5 -31t6.5 -33l-96 24q-3 12 -3.5 19.5t-0.5 16.5q0 43 16 76t43 55.5t63.5 33.5t77.5 11q52 0 92.5 -13.5
t68 -37t41.5 -56t14 -69.5q0 -40 -14 -70t-35 -55.5t-45 -48t-45 -47.5t-35 -54.5t-14 -68.5h-52zM188 56q0 30 17.5 49t50.5 19t50.5 -19t17.5 -49t-17.5 -49t-50.5 -19t-50.5 19t-17.5 49z" />
    <glyph glyph-name="exclamdown" unicode="&#xa1;" horiz-adv-x="344" 
d="M231.972 -187.977q0 -23.998 -19.498 -37.9961q-19.4971 -13.998 -40.4951 -13.998q-20.9971 0 -40.4941 13.998q-19.498 13.998 -19.498 37.9961l39.9951 467.942h43.9951zM239.971 451.945q0 -29.9971 -17.498 -48.9941q-17.498 -18.998 -50.4941 -18.998
q-32.9951 0 -50.4932 18.998q-17.498 18.9971 -17.498 48.9941q0 29.9961 17.498 48.9932q17.498 18.998 50.4932 18.998q32.9961 0 50.4941 -18.998q17.498 -18.9971 17.498 -48.9932z" />
    <glyph glyph-name="questiondown" unicode="&#xbf;" horiz-adv-x="520" 
d="M291.965 279.966q0 -46.9941 -9.99902 -79.4902t-24.9971 -56.9932t-32.9961 -44.4941q-17.998 -19.998 -32.9961 -42.4951t-24.9971 -50.9941q-9.99902 -28.4961 -9.99902 -69.4912q0 -26.9971 4.5 -52.9932q4.49902 -25.9971 16.998 -45.9951
q12.498 -19.9971 34.4961 -32.4961q21.9971 -12.498 55.9922 -12.498q25.9971 0 46.4951 10.999q20.4971 10.998 33.9951 30.4961q13.499 19.4971 20.498 44.9941t6.99902 53.4932q0 14.999 -1.5 30.9971t-6.49902 32.9951l95.9883 -23.9961q3 -11.999 3.5 -19.498
t0.5 -16.498q0 -42.9951 -15.998 -75.9902q-15.998 -32.9961 -42.9951 -55.4941q-26.9971 -22.4971 -63.4922 -33.4951q-36.4961 -10.999 -77.4912 -10.999q-51.9932 0 -92.4883 13.498q-40.4951 13.499 -67.9912 36.9961q-27.4971 23.4971 -41.4951 55.9932
t-13.998 69.4912q0 39.9951 13.998 69.9912q13.998 29.9971 34.9951 55.4932q20.998 25.4971 44.9951 47.9941q23.9971 22.498 44.9941 47.4941q20.998 24.9971 34.9961 54.4941q13.998 29.4961 13.998 68.4912h51.9941zM331.959 451.945q0 -29.9971 -17.4971 -48.9941
q-17.498 -18.998 -50.4941 -18.998t-50.4941 18.998q-17.4971 18.9971 -17.4971 48.9941q0 29.9961 17.4971 48.9932q17.498 18.998 50.4941 18.998t50.4941 -18.998q17.4971 -18.9971 17.4971 -48.9932z" />
    <glyph glyph-name="hyphen" unicode="-" horiz-adv-x="340" 
d="M60 320h220v-96h-220v96z" />
    <glyph glyph-name="endash" unicode="&#x2013;" 
d="M80 320h420v-68h-420v68z" />
    <glyph glyph-name="emdash" unicode="&#x2014;" horiz-adv-x="780" 
d="M80 320h620v-68h-620v68z" />
    <glyph glyph-name="underscore" unicode="_" horiz-adv-x="500" 
d="M0 -12h500v-68h-500v68z" />
    <glyph glyph-name="bar" unicode="|" horiz-adv-x="328" 
d="M132 800h64v-1000h-64v1000z" />
    <glyph glyph-name="brokenbar" unicode="&#xa6;" horiz-adv-x="328" 
d="M132 208h64v-408h-64v408zM132 800h64v-408h-64v408z" />
    <glyph glyph-name="dagger" unicode="&#x2020;" horiz-adv-x="544" 
d="M32 504l223 -26l-31 258h100l-32 -258l220 26v-80l-220 29l32 -493h-100l32 493l-224 -29v80z" />
    <glyph glyph-name="daggerdbl" unicode="&#x2021;" horiz-adv-x="544" 
d="M32 504l223 -26l-31 258h100l-32 -258l220 26v-80l-220 29l28 -201l-28 -202l220 26v-80l-220 29l32 -257h-100l31 257l-223 -29v80l223 -26l-27 202l27 201l-223 -29v80z" />
    <glyph glyph-name="parenleft" unicode="(" horiz-adv-x="372" 
d="M364 -211q-65 7 -116 48.5t-86.5 104.5t-54.5 141.5t-19 161.5v47q0 82 19 161t54.5 142t86.5 104t116 49v-20q-36 -12 -64.5 -38.5t-50.5 -63t-37 -79t-25 -87t-14.5 -88t-4.5 -80.5v-47q0 -56 10.5 -124t33.5 -131.5t60.5 -113t91.5 -67.5v-20z" />
    <glyph glyph-name="parenright" unicode=")" horiz-adv-x="372" 
d="M8 -191q54 18 91.5 67.5t60.5 113t33.5 131.5t10.5 124v47q0 37 -4.5 80.5t-14.5 88t-25 87t-37 79t-50.5 63t-64.5 38.5v20q64 -8 115.5 -49t87 -104t54.5 -142t19 -161v-47q0 -83 -19 -161.5t-54.5 -141.5t-87 -104.5t-115.5 -48.5v20z" />
    <glyph glyph-name="bracketleft" unicode="[" horiz-adv-x="372" 
d="M128 732l220 16v-52l-144 6v-868l144 6v-52l-220 16v928z" />
    <glyph glyph-name="bracketright" unicode="]" horiz-adv-x="372" 
d="M24 -160l144 -6v868l-144 -6v52l220 -16v-928l-220 -16v52z" />
    <glyph glyph-name="braceleft" unicode="{" horiz-adv-x="372" 
d="M336 -212q-42 0 -78 8t-62 27t-40 49.5t-12 75.5l8 220q3 92 -128 92v20q131 0 128 92l-8 216q-2 45 12 75.5t40 49.5t62 27t78 8h24v-24h-24q-121 0 -116 -132l8 -212q1 -21 -8.5 -40.5t-25 -34.5t-36.5 -24t-42 -9v-4q22 0 42.5 -9t36.5 -24t25 -34.5t8 -40.5l-8 -216
q-6 -132 116 -132h24v-24h-24z" />
    <glyph glyph-name="braceright" unicode="}" horiz-adv-x="372" 
d="M12 -188h24q122 0 116 132l-8 212q-1 21 8.5 40.5t25 34.5t36.5 24t42 9v4q-22 0 -42.5 9t-36.5 24t-25.5 34.5t-7.5 40.5l8 216q6 132 -116 132h-24v24h24q42 0 78 -8t62 -27t40 -49.5t12 -75.5l-8 -220q-3 -92 128 -92v-20q-131 0 -128 -92l8 -216q2 -45 -12 -75.5
t-40 -49.5t-62 -27t-78 -8h-24v24z" />
    <glyph glyph-name="slash" unicode="/" horiz-adv-x="420" 
d="M192 340l148 396h76l-172 -400l-164 -432h-76z" />
    <glyph glyph-name="backslash" unicode="\" horiz-adv-x="420" 
d="M176 336l-172 400h76l148 -396l188 -436h-76z" />
    <glyph glyph-name="quotesinglbase" unicode="&#x201a;" horiz-adv-x="240" 
d="M20 -120q57 9 84.5 35t27.5 53q0 15 -12 21l-26 13t-26 19t-12 39q0 33 21 48.5t47 15.5q33 0 50.5 -19.5t17.5 -52.5v-8q0 -35 -6 -67.5t-24.5 -59t-52.5 -45t-89 -24.5v32z" />
    <glyph glyph-name="quotedblbase" unicode="&#x201e;" horiz-adv-x="440" 
d="M20 -120q57 9 84.5 35t27.5 53q0 15 -12 21l-26 13t-26 19t-12 39q0 33 21 48.5t47 15.5q33 0 50.5 -19.5t17.5 -52.5v-8q0 -35 -6 -67.5t-24.5 -59t-52.5 -45t-89 -24.5v32zM220 -120q57 9 84.5 35t27.5 53q0 15 -12 21l-26 13t-26 19t-12 39q0 33 21 48.5t47 15.5
q33 0 50.5 -19.5t17.5 -52.5v-8q0 -35 -6 -67.5t-24.5 -59t-52.5 -45t-89 -24.5v32z" />
    <glyph glyph-name="quoteleft" unicode="&#x2018;" horiz-adv-x="240" 
d="M120 472q-33 0 -50.5 19.5t-17.5 52.5v8q0 34 6 67t24.5 59.5t52 45t89.5 24.5v-32q-57 -9 -84.5 -35t-27.5 -53q0 -15 12 -21l26 -13t26 -19t12 -39q0 -33 -21 -48.5t-47 -15.5z" />
    <glyph glyph-name="quotedblleft" unicode="&#x201c;" horiz-adv-x="440" 
d="M320 472q-33 0 -50.5 19.5t-17.5 52.5v8q0 34 6 67t24.5 59.5t52 45t89.5 24.5v-32q-57 -9 -84.5 -35t-27.5 -53q0 -15 12 -21l26 -13t26 -19t12 -39q0 -33 -21 -48.5t-47 -15.5zM120 472q-33 0 -50.5 19.5t-17.5 52.5v8q0 34 6 67t24.5 59.5t52 45t89.5 24.5v-32
q-57 -9 -84.5 -35t-27.5 -53q0 -15 12 -21l26 -13t26 -19t12 -39q0 -33 -21 -48.5t-47 -15.5z" />
    <glyph glyph-name="quoteright" unicode="&#x2019;" horiz-adv-x="240" 
d="M20 504q57 9 84.5 35t27.5 53q0 15 -12 21l-26 13t-26 19t-12 39q0 33 21 48.5t47 15.5q33 0 50.5 -19.5t17.5 -52.5v-8q0 -35 -6 -67.5t-24.5 -59t-52.5 -45t-89 -24.5v32z" />
    <glyph glyph-name="quotedblright" unicode="&#x201d;" horiz-adv-x="440" 
d="M20 504q57 9 84.5 35t27.5 53q0 15 -12 21l-26 13t-26 19t-12 39q0 33 21 48.5t47 15.5q33 0 50.5 -19.5t17.5 -52.5v-8q0 -35 -6 -67.5t-24.5 -59t-52.5 -45t-89 -24.5v32zM220 504q57 9 84.5 35t27.5 53q0 15 -12 21l-26 13t-26 19t-12 39q0 33 21 48.5t47 15.5
q33 0 50.5 -19.5t17.5 -52.5v-8q0 -35 -6 -67.5t-24.5 -59t-52.5 -45t-89 -24.5v32z" />
    <glyph glyph-name="guilsinglleft" unicode="&#x2039;" horiz-adv-x="412" 
d="M100 220l-40 20v20l52 28l196 148v-72l-160 -92l160 -96v-84z" />
    <glyph glyph-name="guilsinglright" unicode="&#x203a;" horiz-adv-x="412" 
d="M104 168l160 92l-160 96v84l208 -128l40 -20v-20l-52 -28l-196 -148v72z" />
    <glyph glyph-name="guillemotleft" unicode="&#xab;" 
d="M100 220l-40 20v20l52 28l168 148v-72l-136 -96l136 -92v-84zM296 220l-40 20v20l52 28l168 148v-72l-136 -96l136 -92v-84z" />
    <glyph glyph-name="guillemotright" unicode="&#xbb;" 
d="M104 168l136 96l-136 92v84l180 -128l40 -20v-20l-52 -28l-168 -148v72zM300 168l136 96l-136 92v84l180 -128l40 -20v-20l-52 -28l-168 -148v72z" />
    <glyph glyph-name="quotesingle" unicode="'" horiz-adv-x="276" 
d="M148 464h-20l-48 272h116z" />
    <glyph glyph-name="quotedbl" unicode="&#x22;" horiz-adv-x="472" 
d="M148 464h-20l-48 272h116zM344 464h-20l-48 272h116z" />
    <glyph glyph-name="asterisk" unicode="*" horiz-adv-x="436" 
d="M62 380l136 140l-178 40l28 80l158 -104l-32 200h88l-32 -200l158 104l28 -80l-178 -40l136 -140l-72 -48l-84 176l-84 -176z" />
    <glyph glyph-name="degree" unicode="&#xb0;" horiz-adv-x="448" 
d="M224 464q24 0 42 11t30 28.5t18 39.5t6 45q0 22 -6 44.5t-18 40t-30 28.5t-42 11t-42 -11t-30 -28.5t-18 -40t-6 -44.5q0 -23 6 -45t18 -39.5t30 -28.5t42 -11zM224 428q-39 0 -69.5 13t-51.5 35.5t-32 51t-11 60.5q0 31 11 60t32 51.5t51.5 35.5t69.5 13t69.5 -13
t51.5 -35.5t32 -51.5t11 -60q0 -32 -11 -60.5t-32 -51t-51.5 -35.5t-69.5 -13z" />
    <glyph glyph-name="bullet" unicode="&#x2022;" horiz-adv-x="404" 
d="M80 268q0 54 32 87t92 33t90 -33t30 -87t-30 -89t-90 -35t-92 35t-32 89z" />
    <glyph glyph-name="periodcentered" unicode="&#xb7;" horiz-adv-x="336" 
d="M168 196q-33 0 -50.5 19t-17.5 49t17.5 49t50.5 19t50.5 -19t17.5 -49t-17.5 -49t-50.5 -19z" />
    <glyph glyph-name="ellipsis" unicode="&#x2026;" horiz-adv-x="720" 
d="M120 -12q-33 0 -50.5 19t-17.5 49t17.5 49t50.5 19t50.5 -19t17.5 -49t-17.5 -49t-50.5 -19zM360 -12q-33 0 -50.5 19t-17.5 49t17.5 49t50.5 19t50.5 -19t17.5 -49t-17.5 -49t-50.5 -19zM600 -12q-33 0 -50.5 19t-17.5 49t17.5 49t50.5 19t50.5 -19t17.5 -49t-17.5 -49
t-50.5 -19z" />
    <glyph glyph-name="paragraph" unicode="&#xb6;" horiz-adv-x="620" 
d="M316 184q-54 0 -100 15.5t-80 49t-53 85.5t-19 126q0 73 19 125.5t53 86t80 49t100 15.5h32l-24 -64v-424l24 -64h-32zM416 736h148v-12q-21 -3 -36.5 -17.5t-15.5 -38.5v-716q0 -24 15.5 -38.5t36.5 -17.5v-12h-148v852z" />
    <glyph glyph-name="section" unicode="&#xa7;" horiz-adv-x="508" 
d="M240 -216q-21 0 -46 2.5t-49.5 7.5t-46.5 12.5t-38 17.5l4 156h12q7 -27 22 -56t36.5 -53t48.5 -39.5t57 -15.5q51 0 75.5 34.5t24.5 85.5q0 36 -21.5 60.5t-53.5 45t-69 40t-69 45.5t-53.5 61.5t-21.5 87.5q0 23 10 49.5t28 51t43.5 45t55.5 31.5q-40 29 -68.5 66
t-28.5 93q0 27 12.5 51.5t35 43.5t55 30t73.5 11q21 0 44 -2.5t45.5 -7.5t42.5 -12.5t36 -17.5l-4 -136h-12q-7 27 -20 53t-32.5 46t-44.5 32.5t-55 12.5q-39 0 -61.5 -24.5t-22.5 -71.5q0 -36 20 -62t50.5 -48t65.5 -43.5t65.5 -49t50.5 -64.5t20 -89q0 -22 -9 -46.5
t-25 -47.5t-38 -43.5t-49 -33.5q40 -26 68.5 -60.5t28.5 -88.5q0 -36 -13.5 -65.5t-39 -50.5t-61 -32.5t-78.5 -11.5zM372 240q0 37 -14 65t-36.5 50.5t-50.5 41.5l-56 38q-32 -23 -55.5 -57t-23.5 -78q0 -38 15 -65t38.5 -48.5t53.5 -39t60 -34.5q29 23 49 54.5t20 72.5z
" />
    <glyph glyph-name="copyright" unicode="&#xa9;" horiz-adv-x="856" 
d="M436 176q-40 0 -74 12t-59.5 35.5t-40 58.5t-14.5 82t15.5 83t42 60t61 36.5t73.5 12.5q15 0 31.5 -1.5t33 -4.5t31 -7.5t24.5 -10.5l-4 -96h-8q-5 16 -14 33.5t-22.5 31t-31.5 22.5t-40 9q-25 0 -45.5 -9t-35.5 -28.5t-23 -52t-8 -78.5q0 -75 28.5 -119.5t79.5 -44.5
q48 0 74.5 29t37.5 83h8l4 -108q-9 -7 -24 -12t-32.5 -8.5t-35.5 -5.5t-32 -2zM428 24q73 0 132.5 26.5t101 73t64 109t22.5 135.5t-22.5 135.5t-64 109t-101 73t-132.5 26.5q-74 0 -133 -26.5t-100.5 -73t-64 -109t-22.5 -135.5t22.5 -135.5t64 -109t100.5 -73t133 -26.5z
M428 -12q-84 0 -152 30t-116 82t-74 121t-26 147t26 147t74 121t116 82t152 30t152 -30t116 -82t74 -121t26 -147t-26 -147t-74 -121t-116 -82t-152 -30z" />
    <glyph glyph-name="registered" unicode="&#xae;" horiz-adv-x="856" 
d="M428 -12q-84 0 -152 30t-116 82t-74 121t-26 147t26 147t74 121t116 82t152 30t152 -30t116 -82t74 -121t26 -147t-26 -147t-74 -121t-116 -82t-152 -30zM428 24q73 0 132.5 26.5t101 73t64 109t22.5 135.5t-22.5 135.5t-64 109t-101 73t-132.5 26.5q-74 0 -133 -26.5
t-100.5 -73t-64 -109t-22.5 -135.5t22.5 -135.5t64 -109t100.5 -73t133 -26.5zM268 184q32 3 32 28v300q0 25 -32 28v8h144q71 0 113.5 -26t42.5 -74q0 -34 -21 -58.5t-58 -35.5q20 -61 48.5 -110t78.5 -80l-4 -12q-81 27 -126 73t-69 112l-45 -8v-117q0 -12 9.5 -19
t22.5 -9v-8h-136v8zM412 528q-18 0 -29 -6.5t-11 -21.5v-136h52q19 0 32 7.5t21 19.5t11.5 27t3.5 30q0 38 -19 59t-61 21z" />
    <glyph glyph-name="trademark" unicode="&#x2122;" horiz-adv-x="972" 
d="M528 626l-28 -250q-2 -13 7.5 -23.5t24.5 -12.5v-8h-112v8q18 2 28 12.5t12 23.5l48 316q2 13 -8 23.5t-28 12.5v8h96l112 -313l104 313h100v-8q-18 -2 -28 -12.5t-8 -23.5l44 -316q2 -13 8 -23.5t24 -12.5v-8h-144v8q15 2 24.5 12.5t7.5 23.5l-32 237l-100 -281h-48z
M52 736h332l8 -104h-8q-16 36 -31.5 58t-44.5 22q-26 0 -38.5 -6t-13.5 -23v-295q0 -25 12.5 -35.5t35.5 -12.5v-8h-176v8q23 2 35.5 12.5t12.5 35.5v295q-2 17 -14 23t-38 6q-29 0 -44 -22t-32 -58h-8z" />
    <glyph glyph-name="ordfeminine" unicode="&#xaa;" horiz-adv-x="408" 
d="M88 604q-21 0 -28.5 13t-7.5 31q0 16 10 34t29 32.5t45.5 24t59.5 9.5q144 0 144 -120v-224q0 -23 9.5 -31.5t22.5 -8.5q9 0 17.5 2.5t14.5 5.5l4 -8q-15 -18 -35.5 -29t-44.5 -11q-26 0 -43 13t-23 42q-22 -27 -48.5 -41t-61.5 -14q-57 0 -88.5 26.5t-31.5 77.5
q0 30 15 51t38.5 35.5t52.5 23t58 14.5l64 13v63q0 45 -14 70.5t-50 25.5q-24 0 -39.5 -8.5t-24.5 -23.5v-40q0 -48 -44 -48zM172 368q19 0 43.5 7.5t44.5 21.5v139l-52 -12q-45 -11 -70.5 -32t-25.5 -60q0 -64 60 -64zM32 276h348v-40h-348v40z" />
    <glyph glyph-name="ordmasculine" unicode="&#xba;" horiz-adv-x="464" 
d="M232 348q52 0 80 46t28 142q0 91 -27 139.5t-81 48.5q-52 0 -80 -46t-28 -142q0 -91 27 -139.5t81 -48.5zM232 324q-48 0 -85 15.5t-61.5 43.5t-37 67t-12.5 86q0 46 12.5 85t37.5 67t61.5 44t84.5 16t85 -15.5t61.5 -43.5t37 -67t12.5 -86q0 -46 -12.5 -85t-37.5 -67
t-61.5 -44t-84.5 -16zM60 276h344v-40h-344v40z" />
    <glyph glyph-name="hyphen.case" horiz-adv-x="340" 
d="M60 400h220v-96h-220v96z" />
    <glyph glyph-name="endash.case" 
d="M80 400h420v-68h-420v68z" />
    <glyph glyph-name="emdash.case" horiz-adv-x="780" 
d="M80 400h620v-68h-620v68z" />
    <glyph glyph-name="periodcentered.case" horiz-adv-x="336" 
d="M168 276q-33 0 -50.5 19t-17.5 49t17.5 49t50.5 19t50.5 -19t17.5 -49t-17.5 -49t-50.5 -19z" />
    <glyph glyph-name="bullet.case" horiz-adv-x="404" 
d="M80 348q0 54 32 87t92 33t90 -33t30 -87t-30 -89t-90 -35t-92 35t-32 89z" />
    <glyph glyph-name="guilsinglleft.case" horiz-adv-x="412" 
d="M100 300l-40 20v20l52 28l196 148v-72l-160 -92l160 -96v-84z" />
    <glyph glyph-name="guilsinglright.case" horiz-adv-x="412" 
d="M104 248l160 92l-160 96v84l208 -128l40 -20v-20l-52 -28l-196 -148v72z" />
    <glyph glyph-name="guillemotleft.case" 
d="M100 300l-40 20v20l52 28l168 148v-72l-136 -96l136 -92v-84zM296 300l-40 20v20l52 28l168 148v-72l-136 -96l136 -92v-84z" />
    <glyph glyph-name="guillemotright.case" 
d="M104 248l136 96l-136 92v84l180 -128l40 -20v-20l-52 -28l-168 -148v72zM300 248l136 96l-136 92v84l180 -128l40 -20v-20l-52 -28l-168 -148v72z" />
    <glyph glyph-name="exclamdown.case" horiz-adv-x="344" 
d="M231.972 39.9951q0 -23.9971 -19.498 -37.9951q-19.4971 -13.998 -40.4951 -13.998q-20.9971 0 -40.4941 13.998q-19.498 13.998 -19.498 37.9951l39.9951 467.942h43.9951zM239.971 679.917q0 -29.9961 -17.498 -48.9941q-17.498 -18.9971 -50.4941 -18.9971
q-32.9951 0 -50.4932 18.9971q-17.498 18.998 -17.498 48.9941t17.498 48.9941q17.498 18.9971 50.4932 18.9971q32.9961 0 50.4941 -18.9971q17.498 -18.998 17.498 -48.9941z" />
    <glyph glyph-name="questiondown.case" horiz-adv-x="520" 
d="M291.965 507.938q0 -46.9941 -9.99902 -79.4902t-24.9971 -56.9922q-14.998 -24.4971 -32.9961 -44.4951q-17.998 -19.9971 -32.9961 -42.4951q-14.998 -22.4971 -24.9971 -50.9932q-9.99902 -28.4971 -9.99902 -69.4912q0 -26.9971 4.5 -52.9941
q4.49902 -25.9971 16.998 -45.9941q12.498 -19.998 34.4961 -32.4961q21.9971 -12.498 55.9922 -12.498q25.9971 0 46.4951 10.998q20.4971 10.999 33.9951 30.4961q13.499 19.498 20.498 44.9951t6.99902 53.4932q0 14.998 -1.5 30.9961t-6.49902 32.9961l95.9883 -23.9971
q3 -11.999 3.5 -19.498t0.5 -16.4971q0 -42.9951 -15.998 -75.9912t-42.9951 -55.4932t-63.4922 -33.4961q-36.4961 -10.998 -77.4912 -10.998q-51.9932 0 -92.4883 13.498t-67.9912 36.9951q-27.4971 23.4971 -41.4951 55.9932t-13.998 69.4922q0 39.9941 13.998 69.9912
q13.998 29.9961 34.9951 55.4932q20.998 25.4971 44.9951 47.9941t44.9941 47.4941q20.998 24.9971 34.9961 54.4932t13.998 68.4912h51.9941zM331.959 679.917q0 -29.9961 -17.4971 -48.9941q-17.498 -18.9971 -50.4941 -18.9971t-50.4941 18.9971
q-17.4971 18.998 -17.4971 48.9941t17.4971 48.9941q17.498 18.9971 50.4941 18.9971t50.4941 -18.9971q17.4971 -18.998 17.4971 -48.9941z" />
    <glyph glyph-name="parenleft.case" horiz-adv-x="372" 
d="M168 340q0 -51 10.5 -113.5t34 -120.5t61 -104t90.5 -62v-20q-64 7 -115 45t-87 96.5t-55 131t-19 147.5v48q0 75 19 147.5t55 131t87 96.5t115 45v-20q-53 -17 -90.5 -62.5t-61 -103.5t-34 -120.5t-10.5 -113.5v-48z" />
    <glyph glyph-name="parenright.case" horiz-adv-x="372" 
d="M204 388q0 51 -10.5 113.5t-34 120.5t-61 103.5t-90.5 62.5v20q64 -7 115 -45t87 -96.5t55 -131t19 -147.5v-48q0 -75 -19 -147.5t-55 -131t-87 -96.5t-115 -45v20q53 16 90.5 62t61 104t34 120.5t10.5 113.5v48z" />
    <glyph glyph-name="bracketleft.case" horiz-adv-x="372" 
d="M128 792l220 16v-52l-144 6v-796l144 6v-52l-220 16v856z" />
    <glyph glyph-name="bracketright.case" horiz-adv-x="372" 
d="M24 -28l144 -6v796l-144 -6v52l220 -16v-856l-220 -16v52z" />
    <glyph glyph-name="braceleft.case" horiz-adv-x="372" 
d="M336 -80q-42 0 -78 8t-62 27t-40 49.5t-12 75.5l8 184q3 92 -128 92v20q131 0 128 92l-8 180q-2 45 12 75.5t40 49.5t62 27t78 8h24v-24h-24q-121 0 -116 -132l8 -176q1 -21 -8.5 -40.5t-25 -34.5t-36.5 -24t-42 -9v-4q22 0 42.5 -9t36.5 -24t25 -34.5t8 -40.5l-8 -180
q-6 -132 116 -132h24v-24h-24z" />
    <glyph glyph-name="braceright.case" horiz-adv-x="372" 
d="M12 -80v24h24q122 0 116 132l-8 180q-2 21 7.5 40.5t25.5 34.5t36.5 24t42.5 9v4q-21 0 -42 9t-36.5 24t-25 34.5t-8.5 40.5l8 176q4 132 -116 132h-24v24h24q42 0 78 -8t62 -27t40 -49.5t12 -75.5l-8 -180q-3 -92 128 -92v-20q-131 0 -128 -92l8 -184q2 -45 -12 -75.5
t-40 -49.5t-62 -27t-78 -8h-24z" />
    <glyph glyph-name="colon.case" horiz-adv-x="240" 
d="M120 108q-33 0 -50.5 19t-17.5 49t17.5 49t50.5 19t50.5 -19t17.5 -49t-17.5 -49t-50.5 -19zM120 428q-33 0 -50.5 19t-17.5 49t17.5 49t50.5 19t50.5 -19t17.5 -49t-17.5 -49t-50.5 -19z" />
    <glyph glyph-name="plus.case" 
d="M68 380h196v204h52v-204h196v-44h-196v-204h-52v204h-196v44z" />
    <glyph glyph-name="minus.case" 
d="M68 380h444v-44h-444v44z" />
    <glyph glyph-name="multiply.case" 
d="M92 164l167 182l-167 182l32 32l166 -181l166 181l32 -32l-168 -182l168 -182l-32 -32l-166 181l-166 -181z" />
    <glyph glyph-name="divide.case" 
d="M68 380h444v-44h-444v44zM292 132q-27 0 -43.5 16.5t-16.5 43.5t16.5 43.5t43.5 16.5t43.5 -16.5t16.5 -43.5t-16.5 -43.5t-43.5 -16.5zM292 464q-27 0 -43.5 16.5t-16.5 43.5t16.5 43.5t43.5 16.5t43.5 -16.5t16.5 -43.5t-16.5 -43.5t-43.5 -16.5z" />
    <glyph glyph-name="equal.case" 
d="M68 300h444v-44h-444v44zM68 456h444v-44h-444v44z" />
    <glyph glyph-name="less.case" 
d="M476 548l20 -40l-328 -168l328 -164l-20 -40l-392 200v8z" />
    <glyph glyph-name="greater.case" 
d="M496 336l-392 -200l-20 40l328 164l-328 168l20 40l392 -204v-8z" />
    <glyph glyph-name="plusminus.case" 
d="M68 412h196v172h52v-172h196v-44h-196v-172h-52v172h-196v44zM68 124h444v-44h-444v44z" />
    <glyph glyph-name="lessequal.case" 
d="M476 548l20 -40l-320 -144l320 -140l-20 -40l-392 176v8zM68 124h444v-44h-444v44z" />
    <glyph glyph-name="greaterequal.case" 
d="M496 360l-392 -176l-20 40l320 140l-320 144l20 40l392 -180v-8zM512 80h-444v44h444v-44z" />
    <glyph glyph-name="notequal.case" 
d="M68 456h263l97 136l40 -16l-85 -120h129v-44h-160l-80 -112h240v-44h-271l-93 -132l-40 16l82 116h-122v44h153l79 112h-232v44z" />
    <glyph glyph-name="logicalnot.case" 
d="M68 404h444v-256h-52v212h-392v44z" />
    <glyph glyph-name="asciitilde.case" 
d="M392 276q-30 0 -58 24.5t-54.5 53.5t-50.5 53.5t-45 24.5q-36 0 -48 -35t-12 -105h-28q-8 35 -8 64q0 51 23.5 85.5t76.5 34.5q30 0 58 -24.5t54.5 -53.5t50.5 -53.5t45 -24.5q36 0 48 35t12 105h28q8 -35 8 -64q0 -51 -23.5 -85.5t-76.5 -34.5z" />
    <glyph glyph-name="approxequal.case" 
d="M392 156q-30 0 -58 24.5t-54.5 53.5t-50.5 53.5t-45 24.5q-36 0 -48 -35t-12 -105h-28q-8 35 -8 64q0 51 23.5 85.5t76.5 34.5q30 0 58 -24.5t54.5 -53.5t50.5 -53.5t45 -24.5q36 0 48 35t12 105h28q8 -35 8 -64q0 -51 -23.5 -85.5t-76.5 -34.5zM392 356q-30 0 -58 24.5
t-54.5 53.5t-50.5 53.5t-45 24.5q-36 0 -48 -35t-12 -105h-28q-8 35 -8 64q0 51 23.5 85.5t76.5 34.5q30 0 58 -24.5t54.5 -53.5t50.5 -53.5t45 -24.5q36 0 48 35t12 105h28q8 -35 8 -64q0 -51 -23.5 -85.5t-76.5 -34.5z" />
    <glyph glyph-name="infinity.case" horiz-adv-x="632" 
d="M292 356q-9 15 -22.5 30.5t-29 28t-33 21t-35.5 8.5q-36 0 -56 -26.5t-20 -61.5t20 -61.5t56 -26.5q18 0 35.5 8.5t33 21t29 28t22.5 30.5zM340 356q9 -15 22.5 -30.5t29 -28t33 -21t35.5 -8.5q36 0 56 26.5t20 61.5t-20 61.5t-56 26.5q-18 0 -35.5 -8.5t-33 -21t-29 -28
t-22.5 -30.5zM316 316q-24 -39 -61.5 -65.5t-82.5 -26.5q-60 0 -94 36t-34 96t34 96t94 36q45 0 82.5 -26.5t61.5 -65.5q24 39 61.5 65.5t82.5 26.5q60 0 94 -36t34 -96t-34 -96t-94 -36q-45 0 -82.5 26.5t-61.5 65.5z" />
    <glyph glyph-name="uni2113" unicode="&#x2113;" horiz-adv-x="412" 
d="M240 -12q-41 0 -69.5 13.5t-47 37t-27 55.5t-8.5 70v124h-4l-60 -40l-12 24q19 15 38.5 29.5t37.5 30.5v136q0 39 5.5 87.5t22 91.5t48 72t84.5 29q48 0 80 -34t32 -94q0 -56 -20.5 -98t-50 -74.5t-63 -57.5t-58.5 -46v-160q0 -41 7.5 -67t20 -41.5t29.5 -21.5t35 -6
q35 0 62.5 21t53.5 59l24 -16q-24 -57 -62.5 -90.5t-97.5 -33.5zM172 392q23 20 45 44.5t38.5 53.5t26.5 61.5t10 68.5q0 46 -15 73t-41 27q-32 0 -50 -44.5t-18 -143.5v-140h4z" />
    <glyph glyph-name="uni2116" unicode="&#x2116;" horiz-adv-x="1140" 
d="M137 622l7 -554q0 -24 15.5 -38.5t36.5 -17.5v-12h-156v12q52 6 52 56v600q0 50 -52 56v12h144l358 -584l-6 516q0 50 -52 56v12h156v-12q-21 -3 -36.5 -17.5t-15.5 -38.5v-668h-68zM908 324q-48 0 -85 15.5t-61.5 43.5t-37 67t-12.5 86q0 46 12.5 85t37.5 67t61.5 44
t84.5 16t85 -15.5t61.5 -43.5t37 -67t12.5 -86q0 -46 -12.5 -85t-37.5 -67t-61.5 -44t-84.5 -16zM908 348q52 0 80 46t28 142q0 91 -27 139.5t-81 48.5q-52 0 -80 -46t-28 -142q0 -91 27 -139.5t81 -48.5zM736 176h344v-40h-344v40zM736 276h344v-40h-344v40z" />
    <glyph glyph-name="estimated" unicode="&#x212e;" horiz-adv-x="895" 
d="M196 120q48 -50 113.5 -79.5t143.5 -29.5q81 0 150.5 33t119.5 91h61q-57 -67 -144 -107t-188 -40q-87 0 -163.5 30t-133.5 81.5t-90 121t-33 148.5q0 78 33 147.5t90 121t133.5 82t163.5 30.5t163 -30.5t133 -82t90 -121t33 -147.5v-11h-678q-8 0 -8 -4v-209q0 -7 3 -13
t8 -12zM713 381q5 0 5 6v208q0 8 -3 14t-8 12q-49 49 -114.5 77t-139.5 28q-76 0 -142 -29.5t-114 -78.5q-12 -14 -12 -28v-203q0 -6 8 -6h520z" />
    <glyph glyph-name="uni25A0" unicode="&#x25a0;" horiz-adv-x="876" 
d="M80 736h716v-736h-716v736z" />
    <glyph glyph-name="uni25A1" unicode="&#x25a1;" horiz-adv-x="876" 
d="M80 736h716v-736h-716v736zM716 64v600h-556v-600h556z" />
    <glyph glyph-name="uni25FC" unicode="&#x25fc;" horiz-adv-x="668" 
d="M80 508h508v-508h-508v508z" />
    <glyph glyph-name="uni25FB" unicode="&#x25fb;" horiz-adv-x="668" 
d="M80 508h508v-508h-508v508zM516 60v388h-364v-388h364z" />
    <glyph glyph-name="uni25B6" unicode="&#x25b6;" horiz-adv-x="568" 
d="M80 -24v556l456 -276z" />
    <glyph glyph-name="uni25B7" unicode="&#x25b7;" horiz-adv-x="568" 
d="M152 408v-308l269 156zM80 -24v556l456 -276z" />
    <glyph glyph-name="uni25C0" unicode="&#x25c0;" horiz-adv-x="568" 
d="M32 256l456 276v-556z" />
    <glyph glyph-name="uni25C1" unicode="&#x25c1;" horiz-adv-x="568" 
d="M416 408l-269 -152l269 -156v308zM32 256l456 276v-556z" />
    <glyph glyph-name="circle" unicode="&#x25cb;" horiz-adv-x="608" 
d="M304 -12q-56 0 -104 18t-83.5 52t-56 83t-20.5 111t20.5 111.5t56 84.5t83.5 53.5t104 18.5q55 0 103.5 -18.5t84 -53.5t56 -84.5t20.5 -111.5t-20.5 -111t-56 -83t-84 -52t-103.5 -18zM304 44q42 0 77 15t60.5 42.5t40 65.5t14.5 85q0 46 -14.5 85t-40 67.5t-60.5 44
t-77 15.5t-77.5 -15.5t-61 -44t-39.5 -67.5t-14 -85q0 -47 14 -85t39.5 -65.5t61 -42.5t77.5 -15z" />
    <glyph glyph-name="H18533" unicode="&#x25cf;" horiz-adv-x="608" 
d="M40 252q0 62 20.5 111.5t56 84.5t83.5 53.5t104 18.5q55 0 103.5 -18.5t84 -53.5t56 -84.5t20.5 -111.5t-20.5 -111t-56 -83t-84 -52t-103.5 -18q-56 0 -104 18t-83.5 52t-56 83t-20.5 111z" />
    <glyph glyph-name="arrowleft" unicode="&#x2190;" horiz-adv-x="720" 
d="M680 204l-136 48l-120 -8h-300v-4l224 -172l-60 -60l-212 224l-36 24v16l36 24l212 224l60 -60l-224 -172v-4h300l120 -8l136 48v-120z" />
    <glyph glyph-name="arrowup" unicode="&#x2191;" horiz-adv-x="720" 
d="M300 -60l48 136l-8 120v304h-4l-172 -224l-60 60l224 212l24 36h16l24 -36l224 -212l-60 -60l-172 224h-4v-304l-8 -120l48 -136h-120z" />
    <glyph glyph-name="arrowright" unicode="&#x2192;" horiz-adv-x="720" 
d="M432 520l212 -224l36 -24v-16l-36 -24l-212 -224l-60 60l224 172v4h-300l-120 8l-136 -48v120l136 -48l120 8h300v4l-224 172z" />
    <glyph glyph-name="arrowdown" unicode="&#x2193;" horiz-adv-x="720" 
d="M616 188l-224 -212l-24 -36h-16l-24 36l-224 212l60 60l172 -224h4v304l8 120l-48 136h120l-48 -136l8 -120v-304h4l172 224z" />
    <glyph glyph-name="uni2196" unicode="&#x2196;" horiz-adv-x="720" 
d="M540 -12l-64 128l-88 80l-214 214l-2 -2l36 -280h-84l8 308l-8 40l12 12l40 -8l308 8v-84l-280 36l-2 -2l214 -214l80 -88l128 -64z" />
    <glyph glyph-name="uni2197" unicode="&#x2197;" horiz-adv-x="720" 
d="M236 488l308 -8l40 8l12 -12l-8 -40l8 -308h-84l36 280l-2 2l-214 -214l-88 -80l-64 -128l-84 84l128 64l80 88l214 214l-2 2l-280 -36v84z" />
    <glyph glyph-name="uni2198" unicode="&#x2198;" horiz-adv-x="720" 
d="M180 500l64 -128l88 -80l214 -214l2 2l-36 280h84l-8 -308l8 -40l-12 -12l-40 8l-308 -8v84l280 -36l2 2l-214 214l-80 88l-128 64z" />
    <glyph glyph-name="uni2199" unicode="&#x2199;" horiz-adv-x="720" 
d="M484 0l-308 8l-40 -8l-12 12l8 40l-8 308h84l-36 -280l2 -2l214 214l88 80l64 128l84 -84l-128 -64l-80 -88l-214 -214l2 -2l280 36v-84z" />
    <glyph glyph-name="uni2605" unicode="&#x2605;" horiz-adv-x="608" 
d="M372 332l220 8l4 -16l-180 -120l76 -204l-16 -12l-172 132l-172 -132l-16 12l76 204l-180 120l4 16l220 -8l60 212h16z" />
    <glyph glyph-name="a.dnom" horiz-adv-x="408" 
d="M88 268q-21 0 -28.5 13t-7.5 31q0 16 10 34t29 32.5t45.5 24t59.5 9.5q144 0 144 -120v-224q0 -23 9.5 -31.5t22.5 -8.5q9 0 17.5 2.5t14.5 5.5l4 -8q-15 -18 -35.5 -29t-44.5 -11q-26 0 -43 13t-23 42q-22 -27 -48.5 -41t-61.5 -14q-57 0 -88.5 26.5t-31.5 77.5
q0 30 15 51t38.5 35.5t52.5 23t58 14.5l64 13v63q0 45 -14 70.5t-50 25.5q-24 0 -39.5 -8.5t-24.5 -23.5v-40q0 -48 -44 -48zM172 32q19 0 43.5 7.5t44.5 21.5v139l-52 -12q-45 -11 -70.5 -32t-25.5 -60q0 -64 60 -64z" />
    <glyph glyph-name="b.dnom" horiz-adv-x="452" 
d="M216 -12q-20 0 -43.5 2.5t-48.5 7t-49 11t-43 15.5v8q23 2 31.5 13t8.5 31v420q0 19 -12.5 30.5t-35.5 13.5v8q42 5 71 16.5t49 27.5l8 -4v-224q17 19 41.5 29.5t54.5 10.5q37 0 67.5 -10.5t53 -34t35 -61t12.5 -90.5q0 -52 -14.5 -92.5t-40.5 -69t-63 -43.5t-82 -15z
M220 368q-26 0 -42 -8.5t-26 -19.5v-260q0 -36 17 -52t47 -16q28 0 50 14.5t36.5 40.5t22 61t7.5 76q0 76 -29.5 120t-82.5 44z" />
    <glyph glyph-name="c.dnom" horiz-adv-x="380" 
d="M352 96q-18 -57 -54 -82.5t-90 -25.5q-83 0 -127.5 58t-44.5 154q0 48 13 87t36.5 67t56 43t70.5 15q60 0 100 -24.5t40 -63.5q0 -24 -13 -34t-31 -10q-12 0 -24 7.5t-16 24.5l-12 60q-10 9 -23 12.5t-25 3.5q-24 0 -41.5 -12t-28.5 -32t-16.5 -47t-5.5 -57
q0 -56 10.5 -94.5t28 -62t40.5 -33.5t49 -10q35 0 56.5 18t39.5 42z" />
    <glyph glyph-name="d.dnom" horiz-adv-x="452" 
d="M308 31q-18 -19 -44.5 -31t-55.5 -12q-36 0 -67.5 11.5t-54.5 36t-36.5 62t-13.5 90.5q0 48 14 87.5t38.5 68t59 44.5t76.5 16q21 0 43.5 -6t36.5 -18v116q0 44 -56 44v8q42 5 75 16.5t53 27.5l8 -4v-532q0 -44 44 -48v-8h-120v31zM236 24q23 0 40.5 8.5t27.5 19.5v308
q-10 5 -24 8.5t-28 3.5q-32 0 -56.5 -14.5t-41 -39t-25.5 -57t-9 -69.5q0 -78 32 -123t84 -45z" />
    <glyph glyph-name="e.dnom" horiz-adv-x="396" 
d="M116 232q1 -55 12 -91.5t29 -59t41.5 -32t49.5 -9.5q17 0 33.5 5.5t31 14.5t26.5 19.5t21 20.5l8 -4q-17 -53 -57.5 -80.5t-94.5 -27.5q-41 0 -74.5 15t-57 43t-36 67t-12.5 87q0 51 13 90.5t36.5 66.5t56 41t70.5 14q37 0 65.5 -13t47.5 -35t29 -51t10 -61v-16l-4 -4
h-244zM212 388q-41 0 -66 -35.5t-30 -92.5l136 4q18 1 25 12.5t7 31.5q0 33 -19.5 56.5t-52.5 23.5z" />
    <glyph glyph-name="f.dnom" horiz-adv-x="256" 
d="M20 396h53q-4 27 -10.5 50.5t-6.5 57.5q0 43 32.5 65.5t79.5 22.5q60 0 88 -23t28 -53q0 -20 -12.5 -32t-31.5 -12q-20 0 -30 10t-10 34v24q0 15 -11.5 21.5t-24.5 6.5q-17 0 -30.5 -12t-13.5 -32t4 -35.5t9.5 -30.5l11 -30t8.5 -32h87v-48h-84v-292q0 -19 13.5 -32.5
t38.5 -15.5v-8h-172v8q23 2 31.5 15.5t8.5 32.5v292h-56v48z" />
    <glyph glyph-name="g.dnom" horiz-adv-x="432" 
d="M200 -172q-86 0 -139 20.5t-53 63.5q0 14 7 28.5t21 27.5t35.5 22.5t51.5 14.5q-34 8 -54.5 24t-20.5 39q0 26 20 45.5t69 34.5q-49 13 -75 45.5t-26 82.5q0 64 43.5 100t124.5 36q50 0 86 -15q6 31 29 49t57 18q31 0 47.5 -17t16.5 -39q0 -18 -11.5 -35t-32.5 -29l-4 4
q8 16 8 28q0 21 -13 32.5t-31 11.5q-15 0 -28.5 -9t-20.5 -23q29 -17 45 -45.5t16 -66.5q0 -65 -43 -100.5t-121 -35.5h-19t-17 2q-26 -11 -37 -21t-11 -21q0 -14 10 -22.5t38 -13.5l120 -24q57 -11 88.5 -35.5t31.5 -68.5q0 -47 -54 -77.5t-154 -30.5zM204 160
q35 0 57.5 28.5t22.5 87.5t-22.5 87.5t-57.5 28.5q-38 0 -61 -28.5t-23 -87.5t23 -87.5t61 -28.5zM150 -1q-37 -12 -53.5 -34t-16.5 -45q0 -26 31 -47t89 -21q57 0 92.5 18t35.5 54q0 15 -15 28.5t-49 21.5z" />
    <glyph glyph-name="h.dnom" horiz-adv-x="464" 
d="M32 0v8q23 2 31.5 15.5t8.5 32.5v440q0 19 -12.5 30.5t-35.5 13.5v8q42 5 71 16.5t49 27.5l8 -4v-230q29 23 72 38.5t84 15.5q27 0 44.5 -8.5t27 -23t13 -34t3.5 -42.5v-248q0 -19 8.5 -32.5t31.5 -15.5v-8h-160v8q23 2 31.5 15.5t8.5 32.5v224q0 44 -17.5 62t-62.5 18
q-17 0 -39.5 -4.5t-44.5 -16.5v-283q0 -19 8.5 -32.5t31.5 -15.5v-8h-160z" />
    <glyph glyph-name="i.dnom" horiz-adv-x="232" 
d="M36 8q23 2 31.5 15.5t8.5 32.5v264q0 19 -12.5 30.5t-35.5 13.5v8q42 5 71 16.5t49 27.5l8 -4v-356q0 -19 8.5 -32.5t31.5 -15.5v-8h-160v8zM60 528q0 20 15 36t41 16t41 -16t15 -36t-15 -36t-41 -16t-41 16t-15 36z" />
    <glyph glyph-name="j.dnom" horiz-adv-x="232" 
d="M76 320q0 19 -12.5 30.5t-35.5 13.5v8q42 5 71 16.5t49 27.5l8 -4v-312q0 -29 4.5 -51.5t9.5 -42t9.5 -38.5t4.5 -40q0 -42 -25.5 -69t-70.5 -27q-56 0 -78 22.5t-22 49.5q0 20 10.5 32t29.5 12q20 0 28 -10t8 -34v-40q4 -5 11 -6.5t13 -1.5q40 0 40 48q0 26 -8 44
t-18 36.5t-18 41t-8 58.5v236zM60 528q0 20 15 36t41 16t41 -16t15 -36t-15 -36t-41 -16t-41 16t-15 36z" />
    <glyph glyph-name="k.dnom" horiz-adv-x="436" 
d="M32 8q23 2 31.5 15.5t8.5 32.5v440q0 19 -12.5 30.5t-35.5 13.5v8q42 5 71 16.5t49 27.5l8 -4v-390l52 26l88 112q12 15 12 26q0 20 -32 26v8h144v-8q-24 -6 -41.5 -22t-30.5 -30l-80 -87l120 -197q13 -20 24.5 -30.5t31.5 -13.5v-8h-160v8q24 4 24 20q0 5 -3 11t-9 17
l-85 138l-55 -51v-87q0 -19 8.5 -32.5t31.5 -15.5v-8h-160v8z" />
    <glyph glyph-name="l.dnom" horiz-adv-x="228" 
d="M32 8q23 2 31.5 15.5t8.5 32.5v440q0 19 -12.5 30.5t-35.5 13.5v8q42 5 71 16.5t49 27.5l8 -4v-532q0 -19 8.5 -32.5t31.5 -15.5v-8h-160v8z" />
    <glyph glyph-name="m.dnom" horiz-adv-x="696" 
d="M508 8q23 2 31.5 15.5t8.5 32.5v224q0 44 -15.5 62t-60.5 18q-17 0 -38.5 -5t-43.5 -17q2 -8 2 -16.5v-17.5v-248q0 -19 8.5 -32.5t31.5 -15.5v-8h-160v8q23 2 31.5 15.5t8.5 32.5v224q0 44 -15.5 62t-60.5 18q-17 0 -38 -4.5t-42 -16.5v-283q0 -19 8.5 -32.5t31.5 -15.5
v-8h-160v8q23 2 31.5 15.5t8.5 32.5v264q0 19 -12.5 30.5t-35.5 13.5v8q42 5 71 16.5t49 27.5l8 -4v-53q29 23 70 38t82 15q38 0 55.5 -15.5t23.5 -41.5q29 24 72 40.5t85 16.5q27 0 43.5 -8.5t25.5 -23t12 -34t3 -42.5v-248q0 -19 8.5 -32.5t31.5 -15.5v-8h-160v8z" />
    <glyph glyph-name="n.dnom" horiz-adv-x="468" 
d="M36 8q23 2 31.5 15.5t8.5 32.5v264q0 19 -12.5 30.5t-35.5 13.5v8q42 5 71 16.5t49 27.5l8 -4v-54q29 23 72 38.5t84 15.5q27 0 44.5 -8.5t27 -23t13 -34t3.5 -42.5v-248q0 -19 8.5 -32.5t31.5 -15.5v-8h-160v8q23 2 31.5 15.5t8.5 32.5v224q0 44 -17.5 62t-62.5 18
q-17 0 -39.5 -4.5t-44.5 -16.5v-283q0 -19 8.5 -32.5t31.5 -15.5v-8h-160v8z" />
    <glyph glyph-name="o.dnom" horiz-adv-x="464" 
d="M232 12q52 0 80 46t28 142q0 91 -27 139.5t-81 48.5q-52 0 -80 -46t-28 -142q0 -91 27 -139.5t81 -48.5zM232 -12q-48 0 -85 15.5t-61.5 43.5t-37 67t-12.5 86q0 46 12.5 85t37.5 67t61.5 44t84.5 16t85 -15.5t61.5 -43.5t37 -67t12.5 -86q0 -46 -12.5 -85t-37.5 -67
t-61.5 -44t-84.5 -16z" />
    <glyph glyph-name="p.dnom" horiz-adv-x="456" 
d="M28 -152q23 2 31.5 15.5t8.5 32.5v424q0 19 -12.5 30.5t-35.5 13.5v8q42 5 71 16.5t49 27.5l8 -4v-40q18 18 44.5 29t55.5 11q35 0 65 -11.5t52 -36.5t34.5 -63.5t12.5 -92.5q0 -55 -13.5 -96t-36.5 -68.5t-53.5 -41.5t-64.5 -14q-26 0 -44.5 6t-35.5 18l4 12
q9 -2 16.5 -3t15.5 -1q35 0 59.5 15t39.5 40.5t22 59t7 69.5q0 76 -28 122t-80 46q-22 0 -41 -6.5t-31 -17.5v-452q0 -19 10.5 -32.5t33.5 -15.5v-8h-164v8z" />
    <glyph glyph-name="q.dnom" horiz-adv-x="456" 
d="M208 -12q-36 0 -67.5 12t-54.5 37.5t-36.5 63.5t-13.5 91q0 48 14 88.5t38.5 69.5t59 45.5t76.5 16.5q21 0 43.5 -6t36.5 -18h4q22 1 39.5 11t28.5 21l8 -4v-520q0 -19 8.5 -32.5t31.5 -15.5v-8h-160v8q23 2 31.5 15.5t8.5 32.5v131q-18 -17 -43 -28t-53 -11zM236 24
q23 0 40.5 8.5t27.5 19.5v316q-10 5 -24 8.5t-28 3.5q-32 0 -56.5 -15t-41 -40.5t-25.5 -58.5t-9 -70q0 -78 32 -125t84 -47z" />
    <glyph glyph-name="r.dnom" horiz-adv-x="332" 
d="M36 8q23 2 31.5 15.5t8.5 32.5v264q0 19 -12.5 30.5t-35.5 13.5v8q42 5 71 16.5t49 27.5l8 -4v-65q17 26 44.5 45.5t59.5 19.5q26 0 45 -13.5t19 -38.5q0 -27 -14.5 -39.5t-37.5 -12.5q-21 0 -32 16l-20 32q-24 0 -39 -11.5t-25 -25.5v-263q0 -25 12.5 -35.5t35.5 -12.5
v-8h-168v8z" />
    <glyph glyph-name="s.dnom" horiz-adv-x="344" 
d="M36 132h12q14 -57 45.5 -88.5t78.5 -31.5q17 0 29 6.5t20 17t11.5 23t3.5 25.5q0 21 -9.5 37t-25 29t-35 24t-38.5 22q-17 10 -33 20.5t-28 24t-19.5 30t-7.5 37.5q0 53 39 78.5t97 25.5q33 0 61.5 -7t54.5 -21l4 -96h-12q-17 51 -41.5 75.5t-62.5 24.5q-34 0 -51 -19
t-17 -45q0 -29 25.5 -48t58.5 -36q21 -11 41.5 -23t37 -27t27 -35t10.5 -47q0 -56 -38.5 -88t-101.5 -32q-29 0 -64.5 7.5t-67.5 24.5z" />
    <glyph glyph-name="t.dnom" horiz-adv-x="284" 
d="M76 348h-72v20q38 15 63 41t40.5 55.5t22.5 59t10 52.5h16v-180h88v-48h-88v-256q0 -29 14.5 -46.5t45.5 -17.5q12 0 25 2.5t27 9.5l4 -8q-21 -21 -45.5 -32.5t-62.5 -11.5q-48 0 -68 24t-20 72v264z" />
    <glyph glyph-name="u.dnom" horiz-adv-x="472" 
d="M316 41q-29 -23 -72 -38t-84 -15q-27 0 -44.5 8.5t-27 23t-13 34t-3.5 42.5v224q0 19 -12.5 30.5t-35.5 13.5v8q42 5 71 16.5t49 27.5l8 -4v-292q0 -44 17.5 -62t62.5 -18q17 0 39.5 4.5t44.5 15.5v260q0 19 -12.5 30.5t-35.5 13.5v8q42 5 71 16.5t49 27.5l8 -4v-356
q0 -19 8.5 -32.5t31.5 -15.5v-8h-120v41z" />
    <glyph glyph-name="v.dnom" horiz-adv-x="428" 
d="M52 344q-7 19 -15 27.5t-25 16.5v8h152v-8q-13 -2 -22.5 -6t-9.5 -14q0 -5 1 -11t3 -13l92 -272l88 272q4 12 4 16q0 23 -36 28v8h132v-8q-20 -5 -28 -15t-16 -29l-132 -344h-64z" />
    <glyph glyph-name="w.dnom" horiz-adv-x="648" 
d="M319 239l-91 -239h-60l-112 344q-6 20 -14.5 28t-25.5 16v8h144v-8q-13 -2 -20.5 -6t-7.5 -14q0 -5 1 -11t3 -13l78 -265l79 229l-13 36q-7 19 -17 27.5t-27 16.5v8h144v-8q-13 -2 -20.5 -6t-7.5 -14q0 -5 3 -11t5 -13l93 -265l75 265q4 12 4 16q0 23 -36 28v8h136v-8
q-20 -5 -30.5 -15t-17.5 -29l-116 -344h-60z" />
    <glyph glyph-name="x.dnom" horiz-adv-x="416" 
d="M248 8q20 5 20 19q0 16 -8 28l-68 102l-68 -102q-5 -7 -8.5 -13t-3.5 -11q0 -8 7 -14.5t21 -8.5v-8h-128v8q17 8 30.5 17t25.5 26l104 135l-104 158q-12 17 -25.5 27t-30.5 17v8h160v-8q-10 -2 -15 -5t-5 -11q0 -16 8 -28l68 -105l64 105q5 7 6.5 13t1.5 11q0 8 -4.5 13
t-19.5 7v8h128v-8q-17 -8 -30 -17.5t-26 -26.5l-102 -131l106 -162q12 -17 23.5 -26.5t28.5 -16.5v-8h-156v8z" />
    <glyph glyph-name="y.dnom" horiz-adv-x="428" 
d="M96 -172q-48 0 -78 16.5t-30 51.5q0 26 11 39t29 13q21 0 34.5 -10t13.5 -34v-16q0 -14 5.5 -23t18.5 -9q24 0 46.5 35.5t45.5 104.5l-140 348q-8 19 -15.5 27.5t-24.5 16.5v8h152v-8q-13 -2 -22.5 -6t-9.5 -14q0 -5 1 -11t3 -13l91 -256l89 256q4 12 4 16q0 23 -36 28v8
h132v-8q-20 -5 -28 -15t-16 -29l-132 -328q-17 -43 -32 -77.5t-31 -59t-35.5 -38t-45.5 -13.5z" />
    <glyph glyph-name="z.dnom" horiz-adv-x="372" 
d="M24 8l216 360h-72q-29 0 -47.5 -4t-32 -14t-22.5 -26t-18 -40h-12l4 112h292l4 -8l-216 -360h88q31 0 50.5 6t32.5 18t21 30t16 42h12l-4 -124h-308z" />
    <glyph glyph-name="zero.dnom" horiz-adv-x="400" 
d="M200 16q54 0 75 50.5t21 137.5q0 85 -22 134.5t-74 49.5q-54 0 -75 -50.5t-21 -137.5q0 -85 22 -134.5t74 -49.5zM200 -8q-50 0 -84.5 17.5t-55.5 46t-30.5 66t-9.5 78.5q0 40 9.5 78.5t30.5 68t55.5 47.5t84.5 18t84.5 -17.5t55.5 -46t30.5 -66.5t9.5 -78
q0 -41 -9.5 -79t-30.5 -67.5t-55.5 -47.5t-84.5 -18z" />
    <glyph glyph-name="one.dnom" horiz-adv-x="400" 
d="M120 12q19 0 33.5 9t14.5 31v248q0 29 -13 42.5t-47 13.5v12q19 3 39.5 8.5t39 12t33.5 14t24 13.5l8 -4q-2 -14 -3 -35.5t-1 -36.5v-288q0 -22 14 -31t34 -9v-12h-176v12z" />
    <glyph glyph-name="two.dnom" horiz-adv-x="400" 
d="M56 40q0 26 15 47.5t37 40.5t48 38.5t48 41.5t37 49t15 63t-17 52t-47 16q-35 0 -51.5 -22t-16.5 -58q0 -11 1.5 -20t6.5 -20l-80 20q-4 9 -4 20q0 25 13 44.5t33.5 32.5t46 20t51.5 7q69 0 108.5 -24t39.5 -72q0 -33 -16 -60.5t-41 -50.5t-55 -42t-57 -36t-47.5 -33.5
t-27.5 -33.5h176q33 0 45.5 19t18.5 49h12v-128h-292v40z" />
    <glyph glyph-name="three.dnom" horiz-adv-x="400" 
d="M136 228h16q46 0 73 22t27 70q0 28 -14 48t-54 20q-32 0 -46 -23.5t-14 -52.5q0 -7 1 -14t3 -14l-76 20q-2 6 -3 10.5t-1 9.5q0 22 11.5 38.5t31 27.5t43.5 16.5t50 5.5q72 0 110 -22.5t38 -69.5q0 -22 -10 -39.5t-26.5 -31t-37 -22t-42.5 -11.5q25 0 49 -6t42.5 -19
t29.5 -32.5t11 -46.5q0 -32 -15 -54.5t-39 -37t-54 -21.5t-60 -7q-51 0 -91 25.5t-49 82.5l28 8q8 -41 35.5 -62.5t72.5 -21.5t68.5 24.5t23.5 63.5q0 32 -22.5 56.5t-72.5 27.5h-37v32z" />
    <glyph glyph-name="four.dnom" horiz-adv-x="400" 
d="M172 12q19 0 33.5 9t14.5 31v52h-188l-12 44l192 256l84 8v-256h84l-12 -52h-72v-52q0 -22 14 -31t34 -9v-12h-172v12zM72 156h148v200z" />
    <glyph glyph-name="five.dnom" horiz-adv-x="400" 
d="M88 404l8 4q18 -6 53.5 -9t70.5 -3q36 0 64.5 3.5t47.5 12.5l8 -4q-16 -46 -53 -64t-79 -18q-20 0 -39.5 3.5t-37.5 8.5l-10 -112q20 8 39.5 11t39.5 3q30 0 58 -7.5t50 -22.5t35 -38.5t13 -55.5t-14 -55t-37.5 -38.5t-53 -23t-59.5 -7.5q-51 0 -89 23t-47 77l28 8
q12 -39 35.5 -57.5t68.5 -18.5t66.5 26.5t21.5 65.5q0 47 -30.5 71.5t-73.5 24.5q-19 0 -37 -5t-39 -15l-4 4z" />
    <glyph glyph-name="six.dnom" horiz-adv-x="400" 
d="M352 396q-86 -11 -141.5 -51.5t-74.5 -118.5q20 15 45 22.5t51 7.5q27 0 51.5 -7.5t43.5 -22.5t30 -37.5t11 -52.5q0 -31 -10.5 -57t-31 -45.5t-49.5 -30.5t-65 -11q-37 0 -67.5 9t-53 28t-35 48.5t-12.5 70.5q0 58 20 106.5t58.5 83.5t95 54.5t130.5 19.5zM210 224
q-22 0 -42 -5.5t-37 -19.5q-3 -24 -3 -51q0 -66 24.5 -101t59.5 -35q39 0 57.5 31t18.5 85q0 45 -20 70.5t-58 25.5z" />
    <glyph glyph-name="seven.dnom" horiz-adv-x="400" 
d="M64 404h304v-52q-26 -27 -52 -67.5t-47.5 -87.5t-35 -98t-13.5 -99h-84q0 45 19 97t48 101t62.5 88.5t62.5 57.5h-176q-36 0 -53 -13.5t-23 -46.5h-12v120z" />
    <glyph glyph-name="eight.dnom" horiz-adv-x="400" 
d="M44 96q0 33 24 61.5t75 39.5q-17 9 -33 20t-28 25.5t-19 32.5t-7 41q0 44 41 70t107 26q63 0 103.5 -20t40.5 -68q0 -40 -30.5 -65.5t-72.5 -37.5q21 -9 42 -18.5t37 -23t26 -31.5t10 -44q0 -57 -42.5 -84.5t-113.5 -27.5q-160 0 -160 104zM280 80q0 21 -10.5 36t-27 27
t-37.5 22t-42 21q-26 -21 -36.5 -45t-10.5 -49q0 -31 24 -55.5t64 -24.5q37 0 56.5 20t19.5 48zM136 324q0 -19 7 -33.5t19 -25.5t27.5 -19.5t33.5 -15.5q22 18 37.5 41t15.5 49q0 31 -19.5 51.5t-52.5 20.5t-50.5 -18.5t-17.5 -49.5z" />
    <glyph glyph-name="nine.dnom" horiz-adv-x="400" 
d="M60 8q86 11 141.5 51.5t73.5 117.5q-20 -14 -44.5 -21.5t-50.5 -7.5q-27 0 -51.5 7.5t-43.5 22.5t-30 37.5t-11 52.5q0 31 10.5 57t31 45.5t49.5 30.5t65 11q37 0 67.5 -9t53 -28t35 -48.5t12.5 -70.5q0 -58 -20 -106.5t-58.5 -83.5t-95.5 -54.5t-130 -19.5zM202 180
q21 0 41 5.5t37 19.5q2 12 3 24.5t1 26.5q0 66 -24.5 101t-59.5 35q-39 0 -57.5 -31t-18.5 -85q0 -45 20 -70.5t58 -25.5z" />
    <glyph glyph-name="dollar.dnom" horiz-adv-x="440" 
d="M188 -11q-33 2 -65 9.5t-51 13.5l8 92h12q11 -42 37 -64t59 -27v172q-22 11 -43.5 23t-38.5 27.5t-27.5 35t-10.5 45.5q0 40 36.5 66.5t99.5 29.5v40h36v-41q28 -2 56 -6.5t48 -12.5v-88h-12q-11 33 -34.5 54.5t-57.5 27.5v-145q23 -11 46.5 -23t42.5 -28t31 -37t12 -49
q0 -53 -41 -82.5t-107 -32.5v-37h-36v37zM292 88q0 27 -19.5 45.5t-48.5 33.5v-154q33 4 50.5 24t17.5 51zM144 328q0 -23 17 -39t43 -30v128q-29 -3 -44.5 -18.5t-15.5 -40.5z" />
    <glyph glyph-name="cent.dnom" horiz-adv-x="440" 
d="M204 -7q-57 5 -90.5 38t-33.5 101q0 72 34 110t90 44v38h36v-36q45 -2 74.5 -20.5t29.5 -47.5q0 -17 -11 -26.5t-25 -9.5q-22 0 -28 24l-12 48q-6 2 -13 4t-15 3v-227h12q55 0 84 36h8q-26 -73 -104 -79v-41h-36v41zM148 168q0 -50 15.5 -78.5t40.5 -42.5v213
q-27 -9 -41.5 -36t-14.5 -56z" />
    <glyph glyph-name="Euro.dnom" horiz-adv-x="440" 
d="M19 252h53q14 72 65.5 116t129.5 44q37 0 70 -6t62 -14l-4 -88h-12q-13 44 -44 64t-72 20q-45 0 -74.5 -36.5t-38.5 -99.5h141v-32h-144v-32h128v-32h-126q4 -30 13.5 -56.5t24 -46t34.5 -30.5t46 -11q46 0 73 26.5t39 77.5h12l4 -100q-30 -15 -63 -21.5t-69 -6.5
q-91 0 -139 45t-58 123h-51v32h48v32h-48v32z" />
    <glyph glyph-name="yen.dnom" horiz-adv-x="440" 
d="M79 198h83l-87 169q-12 25 -40 28v10h149v-10q-29 -3 -29 -18q0 -4 3 -10l78 -170l80 167q3 6 3 12q0 9 -8 13t-20 6v10h115v-10q-20 -3 -28.5 -10t-16.5 -21l-91 -166h83v-30h-97v-36h97v-30h-97v-57q0 -14 12 -24.5t32 -10.5v-10h-168v10q19 0 31.5 10.5t12.5 24.5v57
h-97v30h97v36h-97v30z" />
    <glyph glyph-name="sterling.dnom" horiz-adv-x="440" 
d="M350 301q-11 0 -21.5 5.5t-15.5 18.5l-17 55q-8 4 -20.5 5.5t-21.5 1.5q-34 0 -50 -18t-16 -47q0 -22 5.5 -43t11.5 -44h99v-33h-92q3 -17 3 -34q0 -47 -14 -89q22 -8 45 -13.5t52 -5.5q36 0 52 21t27 58h9q3 -26 3 -47q-2 -99 -93 -99q-33 0 -60 16t-52 33
q-14 -23 -34.5 -36t-49.5 -13q-32 0 -50.5 13.5t-18.5 39.5t22 40t51 14q14 0 27 -2t24 -4q-2 20 -10 49t-17 59h-63v33h54q-5 18 -8 34t-3 28q0 48 37 81t109 33q23 0 46.5 -5t43 -14t32 -21.5t12.5 -28.5q0 -20 -10.5 -30.5t-27.5 -10.5zM100 16q19 0 33.5 11.5t19.5 35.5
q-12 7 -24 11t-25 4q-20 0 -31.5 -7.5t-11.5 -24.5t12 -23.5t27 -6.5z" />
    <glyph glyph-name="plus.dnom" horiz-adv-x="440" 
d="M72 168h130v112h36v-112h130v-32h-130v-112h-36v112h-130v32z" />
    <glyph glyph-name="minus.dnom" horiz-adv-x="440" 
d="M72 168h296v-32h-296v32z" />
    <glyph glyph-name="multiply.dnom" horiz-adv-x="440" 
d="M356 244l-111 -98l111 -98l-24 -24l-112 99l-112 -99l-24 24l110 98l-110 98l24 24l112 -100l112 100z" />
    <glyph glyph-name="divide.dnom" horiz-adv-x="440" 
d="M72 168h296v-32h-296v32zM220 16q-19 0 -29.5 11.5t-10.5 28.5t10.5 28.5t29.5 11.5t29.5 -11.5t10.5 -28.5t-10.5 -28.5t-29.5 -11.5zM220 208q-19 0 -29.5 11.5t-10.5 28.5t10.5 28.5t29.5 11.5t29.5 -11.5t10.5 -28.5t-10.5 -28.5t-29.5 -11.5z" />
    <glyph glyph-name="equal.dnom" horiz-adv-x="440" 
d="M72 124h296v-32h-296v32zM72 212h296v-32h-296v32z" />
    <glyph glyph-name="period.dnom" horiz-adv-x="192" 
d="M40 44q0 24 15 40t41 16t41 -16t15 -40t-15 -40t-41 -16t-41 16t-15 40z" />
    <glyph glyph-name="comma.dnom" horiz-adv-x="192" 
d="M12 -96q46 8 67 27.5t21 40.5q0 12 -9.5 17t-20.5 11t-20.5 16t-9.5 32q0 26 18 39t38 13q26 0 41 -15t15 -41v-4q0 -27 -5.5 -54.5t-20.5 -50t-42.5 -38.5t-71.5 -21v28z" />
    <glyph glyph-name="hyphen.dnom" horiz-adv-x="272" 
d="M48 256h176v-76h-176v76z" />
    <glyph glyph-name="parenleft.dnom" horiz-adv-x="324" 
d="M88 208q0 46 13 90.5t38.5 79.5t63 57t85.5 25v-16q-37 -10 -62.5 -35.5t-41 -59.5t-22 -71t-6.5 -70v-28q0 -33 6.5 -70t22 -71t41 -59.5t62.5 -35.5v-16q-48 3 -85.5 25t-63 57t-38.5 79t-13 91v28z" />
    <glyph glyph-name="parenright.dnom" horiz-adv-x="324" 
d="M36 460q48 -3 85 -25t62.5 -57t39 -79.5t13.5 -90.5v-28q0 -47 -13.5 -91t-39 -79t-62.5 -57t-85 -25v16q37 10 62.5 35.5t41 59.5t22 71t6.5 70v28q0 33 -6.5 70t-22 71t-41 59.5t-62.5 35.5v16z" />
    <glyph glyph-name="a.numr" horiz-adv-x="408" 
d="M88 604q-21 0 -28.5 13t-7.5 31q0 16 10 34t29 32.5t45.5 24t59.5 9.5q144 0 144 -120v-224q0 -23 9.5 -31.5t22.5 -8.5q9 0 17.5 2.5t14.5 5.5l4 -8q-15 -18 -35.5 -29t-44.5 -11q-26 0 -43 13t-23 42q-22 -27 -48.5 -41t-61.5 -14q-57 0 -88.5 26.5t-31.5 77.5
q0 30 15 51t38.5 35.5t52.5 23t58 14.5l64 13v63q0 45 -14 70.5t-50 25.5q-24 0 -39.5 -8.5t-24.5 -23.5v-40q0 -48 -44 -48zM172 368q19 0 43.5 7.5t44.5 21.5v139l-52 -12q-45 -11 -70.5 -32t-25.5 -60q0 -64 60 -64z" />
    <glyph glyph-name="b.numr" horiz-adv-x="452" 
d="M216 324q-20 0 -43.5 2.5t-48.5 7t-49 11t-43 15.5v8q23 2 31.5 13t8.5 31v420q0 19 -12.5 30.5t-35.5 13.5v8q42 5 71 16.5t49 27.5l8 -4v-224q17 19 41.5 29.5t54.5 10.5q37 0 67.5 -10.5t53 -34t35 -61t12.5 -90.5q0 -52 -14.5 -92.5t-40.5 -69t-63 -43.5t-82 -15z
M220 704q-26 0 -42 -8.5t-26 -19.5v-260q0 -36 17 -52t47 -16q28 0 50 14.5t36.5 40.5t22 61t7.5 76q0 76 -29.5 120t-82.5 44z" />
    <glyph glyph-name="c.numr" horiz-adv-x="380" 
d="M352 432q-18 -57 -54 -82.5t-90 -25.5q-83 0 -127.5 58t-44.5 154q0 48 13 87t36.5 67t56 43t70.5 15q60 0 100 -24.5t40 -63.5q0 -24 -13 -34t-31 -10q-12 0 -24 7.5t-16 24.5l-12 60q-10 9 -23 12.5t-25 3.5q-24 0 -41.5 -12t-28.5 -32t-16.5 -47t-5.5 -57
q0 -56 10.5 -94.5t28 -62t40.5 -33.5t49 -10q35 0 56.5 18t39.5 42z" />
    <glyph glyph-name="d.numr" horiz-adv-x="452" 
d="M308 367q-18 -19 -44.5 -31t-55.5 -12q-36 0 -67.5 11.5t-54.5 36t-36.5 62t-13.5 90.5q0 48 14 87.5t38.5 68t59 44.5t76.5 16q21 0 43.5 -6t36.5 -18v116q0 44 -56 44v8q42 5 75 16.5t53 27.5l8 -4v-532q0 -44 44 -48v-8h-120v31zM236 360q23 0 40.5 8.5t27.5 19.5v308
q-10 5 -24 8.5t-28 3.5q-32 0 -56.5 -14.5t-41 -39t-25.5 -57t-9 -69.5q0 -78 32 -123t84 -45z" />
    <glyph glyph-name="e.numr" horiz-adv-x="396" 
d="M116 568q1 -55 12 -91.5t29 -59t41.5 -32t49.5 -9.5q17 0 33.5 5.5t31 14.5t26.5 19.5t21 20.5l8 -4q-17 -53 -57.5 -80.5t-94.5 -27.5q-41 0 -74.5 15t-57 43t-36 67t-12.5 87q0 51 13 90.5t36.5 66.5t56 41t70.5 14q37 0 65.5 -13t47.5 -35t29 -51t10 -61v-16l-4 -4
h-244zM212 724q-41 0 -66 -35.5t-30 -92.5l136 4q18 1 25 12.5t7 31.5q0 33 -19.5 56.5t-52.5 23.5z" />
    <glyph glyph-name="f.numr" horiz-adv-x="256" 
d="M20 732h53q-4 27 -10.5 50.5t-6.5 57.5q0 43 32.5 65.5t79.5 22.5q60 0 88 -23t28 -53q0 -20 -12.5 -32t-31.5 -12q-20 0 -30 10t-10 34v24q0 15 -11.5 21.5t-24.5 6.5q-17 0 -30.5 -12t-13.5 -32t4 -35.5t9.5 -30.5l11 -30t8.5 -32h87v-48h-84v-292q0 -19 13.5 -32.5
t38.5 -15.5v-8h-172v8q23 2 31.5 15.5t8.5 32.5v292h-56v48z" />
    <glyph glyph-name="g.numr" horiz-adv-x="432" 
d="M200 164q-86 0 -139 20.5t-53 63.5q0 14 7 28.5t21 27.5t35.5 22.5t51.5 14.5q-34 8 -54.5 24t-20.5 39q0 26 20 45.5t69 34.5q-49 13 -75 45.5t-26 82.5q0 64 43.5 100t124.5 36q50 0 86 -15q6 31 29 49t57 18q31 0 47.5 -17t16.5 -39q0 -18 -11.5 -35t-32.5 -29l-4 4
q8 16 8 28q0 21 -13 32.5t-31 11.5q-15 0 -28.5 -9t-20.5 -23q29 -17 45 -45.5t16 -66.5q0 -65 -43 -100.5t-121 -35.5h-19t-17 2q-26 -11 -37 -21t-11 -21q0 -14 10 -22.5t38 -13.5l120 -24q57 -11 88.5 -35.5t31.5 -68.5q0 -47 -54 -77.5t-154 -30.5zM204 496
q35 0 57.5 28.5t22.5 87.5t-22.5 87.5t-57.5 28.5q-38 0 -61 -28.5t-23 -87.5t23 -87.5t61 -28.5zM150 335q-37 -12 -53.5 -34t-16.5 -45q0 -26 31 -47t89 -21q57 0 92.5 18t35.5 54q0 15 -15 28.5t-49 21.5z" />
    <glyph glyph-name="h.numr" horiz-adv-x="464" 
d="M32 336v8q23 2 31.5 15.5t8.5 32.5v440q0 19 -12.5 30.5t-35.5 13.5v8q42 5 71 16.5t49 27.5l8 -4v-230q29 23 72 38.5t84 15.5q27 0 44.5 -8.5t27 -23t13 -34t3.5 -42.5v-248q0 -19 8.5 -32.5t31.5 -15.5v-8h-160v8q23 2 31.5 15.5t8.5 32.5v224q0 44 -17.5 62t-62.5 18
q-17 0 -39.5 -4.5t-44.5 -16.5v-283q0 -19 8.5 -32.5t31.5 -15.5v-8h-160z" />
    <glyph glyph-name="i.numr" horiz-adv-x="232" 
d="M36 344q23 2 31.5 15.5t8.5 32.5v264q0 19 -12.5 30.5t-35.5 13.5v8q42 5 71 16.5t49 27.5l8 -4v-356q0 -19 8.5 -32.5t31.5 -15.5v-8h-160v8zM60 864q0 20 15 36t41 16t41 -16t15 -36t-15 -36t-41 -16t-41 16t-15 36z" />
    <glyph glyph-name="j.numr" horiz-adv-x="232" 
d="M76 656q0 19 -12.5 30.5t-35.5 13.5v8q42 5 71 16.5t49 27.5l8 -4v-312q0 -29 4.5 -51.5t9.5 -42t9.5 -38.5t4.5 -40q0 -42 -25.5 -69t-70.5 -27q-56 0 -78 22.5t-22 49.5q0 20 10.5 32t29.5 12q20 0 28 -10t8 -34v-40q4 -5 11 -6.5t13 -1.5q40 0 40 48q0 26 -8 44
t-18 36.5t-18 41t-8 58.5v236zM60 864q0 20 15 36t41 16t41 -16t15 -36t-15 -36t-41 -16t-41 16t-15 36z" />
    <glyph glyph-name="k.numr" horiz-adv-x="436" 
d="M32 344q23 2 31.5 15.5t8.5 32.5v440q0 19 -12.5 30.5t-35.5 13.5v8q42 5 71 16.5t49 27.5l8 -4v-390l52 26l88 112q12 15 12 26q0 20 -32 26v8h144v-8q-24 -6 -41.5 -22t-30.5 -30l-80 -87l120 -197q13 -20 24.5 -30.5t31.5 -13.5v-8h-160v8q24 4 24 20q0 5 -3 11t-9 17
l-85 138l-55 -51v-87q0 -19 8.5 -32.5t31.5 -15.5v-8h-160v8z" />
    <glyph glyph-name="l.numr" horiz-adv-x="228" 
d="M32 344q23 2 31.5 15.5t8.5 32.5v440q0 19 -12.5 30.5t-35.5 13.5v8q42 5 71 16.5t49 27.5l8 -4v-532q0 -19 8.5 -32.5t31.5 -15.5v-8h-160v8z" />
    <glyph glyph-name="m.numr" horiz-adv-x="696" 
d="M508 344q23 2 31.5 15.5t8.5 32.5v224q0 44 -15.5 62t-60.5 18q-17 0 -38.5 -5t-43.5 -17q2 -8 2 -16.5v-17.5v-248q0 -19 8.5 -32.5t31.5 -15.5v-8h-160v8q23 2 31.5 15.5t8.5 32.5v224q0 44 -15.5 62t-60.5 18q-17 0 -38 -4.5t-42 -16.5v-283q0 -19 8.5 -32.5
t31.5 -15.5v-8h-160v8q23 2 31.5 15.5t8.5 32.5v264q0 19 -12.5 30.5t-35.5 13.5v8q42 5 71 16.5t49 27.5l8 -4v-53q29 23 70 38t82 15q38 0 55.5 -15.5t23.5 -41.5q29 24 72 40.5t85 16.5q27 0 43.5 -8.5t25.5 -23t12 -34t3 -42.5v-248q0 -19 8.5 -32.5t31.5 -15.5v-8h-160
v8z" />
    <glyph glyph-name="n.numr" horiz-adv-x="468" 
d="M36 344q23 2 31.5 15.5t8.5 32.5v264q0 19 -12.5 30.5t-35.5 13.5v8q42 5 71 16.5t49 27.5l8 -4v-54q29 23 72 38.5t84 15.5q27 0 44.5 -8.5t27 -23t13 -34t3.5 -42.5v-248q0 -19 8.5 -32.5t31.5 -15.5v-8h-160v8q23 2 31.5 15.5t8.5 32.5v224q0 44 -17.5 62t-62.5 18
q-17 0 -39.5 -4.5t-44.5 -16.5v-283q0 -19 8.5 -32.5t31.5 -15.5v-8h-160v8z" />
    <glyph glyph-name="o.numr" horiz-adv-x="464" 
d="M232 348q52 0 80 46t28 142q0 91 -27 139.5t-81 48.5q-52 0 -80 -46t-28 -142q0 -91 27 -139.5t81 -48.5zM232 324q-48 0 -85 15.5t-61.5 43.5t-37 67t-12.5 86q0 46 12.5 85t37.5 67t61.5 44t84.5 16t85 -15.5t61.5 -43.5t37 -67t12.5 -86q0 -46 -12.5 -85t-37.5 -67
t-61.5 -44t-84.5 -16z" />
    <glyph glyph-name="p.numr" horiz-adv-x="456" 
d="M28 184q23 2 31.5 15.5t8.5 32.5v424q0 19 -12.5 30.5t-35.5 13.5v8q42 5 71 16.5t49 27.5l8 -4v-40q18 18 44.5 29t55.5 11q35 0 65 -11.5t52 -36.5t34.5 -63.5t12.5 -92.5q0 -55 -13.5 -96t-36.5 -68.5t-53.5 -41.5t-64.5 -14q-26 0 -44.5 6t-35.5 18l4 12
q9 -2 16.5 -3t15.5 -1q35 0 59.5 15t39.5 40.5t22 59t7 69.5q0 76 -28 122t-80 46q-22 0 -41 -6.5t-31 -17.5v-452q0 -19 10.5 -32.5t33.5 -15.5v-8h-164v8z" />
    <glyph glyph-name="q.numr" horiz-adv-x="456" 
d="M208 324q-36 0 -67.5 12t-54.5 37.5t-36.5 63.5t-13.5 91q0 48 14 88.5t38.5 69.5t59 45.5t76.5 16.5q21 0 43.5 -6t36.5 -18h4q22 1 39.5 11t28.5 21l8 -4v-520q0 -19 8.5 -32.5t31.5 -15.5v-8h-160v8q23 2 31.5 15.5t8.5 32.5v131q-18 -17 -43 -28t-53 -11zM236 360
q23 0 40.5 8.5t27.5 19.5v316q-10 5 -24 8.5t-28 3.5q-32 0 -56.5 -15t-41 -40.5t-25.5 -58.5t-9 -70q0 -78 32 -125t84 -47z" />
    <glyph glyph-name="r.numr" horiz-adv-x="332" 
d="M36 344q23 2 31.5 15.5t8.5 32.5v264q0 19 -12.5 30.5t-35.5 13.5v8q42 5 71 16.5t49 27.5l8 -4v-65q17 26 44.5 45.5t59.5 19.5q26 0 45 -13.5t19 -38.5q0 -27 -14.5 -39.5t-37.5 -12.5q-21 0 -32 16l-20 32q-24 0 -39 -11.5t-25 -25.5v-263q0 -25 12.5 -35.5
t35.5 -12.5v-8h-168v8z" />
    <glyph glyph-name="s.numr" horiz-adv-x="344" 
d="M36 468h12q14 -57 45.5 -88.5t78.5 -31.5q17 0 29 6.5t20 17t11.5 23t3.5 25.5q0 21 -9.5 37t-25 29t-35 24t-38.5 22q-17 10 -33 20.5t-28 24t-19.5 30t-7.5 37.5q0 53 39 78.5t97 25.5q33 0 61.5 -7t54.5 -21l4 -96h-12q-17 51 -41.5 75.5t-62.5 24.5q-34 0 -51 -19
t-17 -45q0 -29 25.5 -48t58.5 -36q21 -11 41.5 -23t37 -27t27 -35t10.5 -47q0 -56 -38.5 -88t-101.5 -32q-29 0 -64.5 7.5t-67.5 24.5z" />
    <glyph glyph-name="t.numr" horiz-adv-x="284" 
d="M76 684h-72v20q38 15 63 41t40.5 55.5t22.5 59t10 52.5h16v-180h88v-48h-88v-256q0 -29 14.5 -46.5t45.5 -17.5q12 0 25 2.5t27 9.5l4 -8q-21 -21 -45.5 -32.5t-62.5 -11.5q-48 0 -68 24t-20 72v264z" />
    <glyph glyph-name="u.numr" horiz-adv-x="472" 
d="M316 377q-29 -23 -72 -38t-84 -15q-27 0 -44.5 8.5t-27 23t-13 34t-3.5 42.5v224q0 19 -12.5 30.5t-35.5 13.5v8q42 5 71 16.5t49 27.5l8 -4v-292q0 -44 17.5 -62t62.5 -18q17 0 39.5 4.5t44.5 15.5v260q0 19 -12.5 30.5t-35.5 13.5v8q42 5 71 16.5t49 27.5l8 -4v-356
q0 -19 8.5 -32.5t31.5 -15.5v-8h-120v41z" />
    <glyph glyph-name="v.numr" horiz-adv-x="428" 
d="M52 680q-7 19 -15 27.5t-25 16.5v8h152v-8q-13 -2 -22.5 -6t-9.5 -14q0 -5 1 -11t3 -13l92 -272l88 272q4 12 4 16q0 23 -36 28v8h132v-8q-20 -5 -28 -15t-16 -29l-132 -344h-64z" />
    <glyph glyph-name="w.numr" horiz-adv-x="648" 
d="M319 575l-91 -239h-60l-112 344q-6 20 -14.5 28t-25.5 16v8h144v-8q-13 -2 -20.5 -6t-7.5 -14q0 -5 1 -11t3 -13l78 -265l79 229l-13 36q-7 19 -17 27.5t-27 16.5v8h144v-8q-13 -2 -20.5 -6t-7.5 -14q0 -5 3 -11t5 -13l93 -265l75 265q4 12 4 16q0 23 -36 28v8h136v-8
q-20 -5 -30.5 -15t-17.5 -29l-116 -344h-60z" />
    <glyph glyph-name="x.numr" horiz-adv-x="416" 
d="M248 344q20 5 20 19q0 16 -8 28l-68 102l-68 -102q-5 -7 -8.5 -13t-3.5 -11q0 -8 7 -14.5t21 -8.5v-8h-128v8q17 8 30.5 17t25.5 26l104 135l-104 158q-12 17 -25.5 27t-30.5 17v8h160v-8q-10 -2 -15 -5t-5 -11q0 -16 8 -28l68 -105l64 105q5 7 6.5 13t1.5 11
q0 8 -4.5 13t-19.5 7v8h128v-8q-17 -8 -30 -17.5t-26 -26.5l-102 -131l106 -162q12 -17 23.5 -26.5t28.5 -16.5v-8h-156v8z" />
    <glyph glyph-name="y.numr" horiz-adv-x="428" 
d="M96 164q-48 0 -78 16.5t-30 51.5q0 26 11 39t29 13q21 0 34.5 -10t13.5 -34v-16q0 -14 5.5 -23t18.5 -9q24 0 46.5 35.5t45.5 104.5l-140 348q-8 19 -15.5 27.5t-24.5 16.5v8h152v-8q-13 -2 -22.5 -6t-9.5 -14q0 -5 1 -11t3 -13l91 -256l89 256q4 12 4 16q0 23 -36 28v8
h132v-8q-20 -5 -28 -15t-16 -29l-132 -328q-17 -43 -32 -77.5t-31 -59t-35.5 -38t-45.5 -13.5z" />
    <glyph glyph-name="z.numr" horiz-adv-x="372" 
d="M24 344l216 360h-72q-29 0 -47.5 -4t-32 -14t-22.5 -26t-18 -40h-12l4 112h292l4 -8l-216 -360h88q31 0 50.5 6t32.5 18t21 30t16 42h12l-4 -124h-308z" />
    <glyph glyph-name="zero.numr" horiz-adv-x="400" 
d="M200 352q54 0 75 50.5t21 137.5q0 85 -22 134.5t-74 49.5q-54 0 -75 -50.5t-21 -137.5q0 -85 22 -134.5t74 -49.5zM200 328q-50 0 -84.5 17.5t-55.5 46t-30.5 66t-9.5 78.5q0 40 9.5 78.5t30.5 68t55.5 47.5t84.5 18t84.5 -17.5t55.5 -46t30.5 -66.5t9.5 -78
q0 -41 -9.5 -79t-30.5 -67.5t-55.5 -47.5t-84.5 -18z" />
    <glyph glyph-name="one.numr" horiz-adv-x="400" 
d="M120 348q19 0 33.5 9t14.5 31v248q0 29 -13 42.5t-47 13.5v12q19 3 39.5 8.5t39 12t33.5 14t24 13.5l8 -4q-2 -14 -3 -35.5t-1 -36.5v-288q0 -22 14 -31t34 -9v-12h-176v12z" />
    <glyph glyph-name="two.numr" horiz-adv-x="400" 
d="M56 376q0 26 15 47.5t37 40.5t48 38.5t48 41.5t37 49t15 63t-17 52t-47 16q-35 0 -51.5 -22t-16.5 -58q0 -11 1.5 -20t6.5 -20l-80 20q-4 9 -4 20q0 25 13 44.5t33.5 32.5t46 20t51.5 7q69 0 108.5 -24t39.5 -72q0 -33 -16 -60.5t-41 -50.5t-55 -42t-57 -36t-47.5 -33.5
t-27.5 -33.5h176q33 0 45.5 19t18.5 49h12v-128h-292v40z" />
    <glyph glyph-name="three.numr" horiz-adv-x="400" 
d="M136 564h16q46 0 73 22t27 70q0 28 -14 48t-54 20q-32 0 -46 -23.5t-14 -52.5q0 -7 1 -14t3 -14l-76 20q-2 6 -3 10.5t-1 9.5q0 22 11.5 38.5t31 27.5t43.5 16.5t50 5.5q72 0 110 -22.5t38 -69.5q0 -22 -10 -39.5t-26.5 -31t-37 -22t-42.5 -11.5q25 0 49 -6t42.5 -19
t29.5 -32.5t11 -46.5q0 -32 -15 -54.5t-39 -37t-54 -21.5t-60 -7q-51 0 -91 25.5t-49 82.5l28 8q8 -41 35.5 -62.5t72.5 -21.5t68.5 24.5t23.5 63.5q0 32 -22.5 56.5t-72.5 27.5h-37v32z" />
    <glyph glyph-name="four.numr" horiz-adv-x="400" 
d="M172 348q19 0 33.5 9t14.5 31v52h-188l-12 44l192 256l84 8v-256h84l-12 -52h-72v-52q0 -22 14 -31t34 -9v-12h-172v12zM72 492h148v200z" />
    <glyph glyph-name="five.numr" horiz-adv-x="400" 
d="M88 740l8 4q18 -6 53.5 -9t70.5 -3q36 0 64.5 3.5t47.5 12.5l8 -4q-16 -46 -53 -64t-79 -18q-20 0 -39.5 3.5t-37.5 8.5l-10 -112q20 8 39.5 11t39.5 3q30 0 58 -7.5t50 -22.5t35 -38.5t13 -55.5t-14 -55t-37.5 -38.5t-53 -23t-59.5 -7.5q-51 0 -89 23t-47 77l28 8
q12 -39 35.5 -57.5t68.5 -18.5t66.5 26.5t21.5 65.5q0 47 -30.5 71.5t-73.5 24.5q-19 0 -37 -5t-39 -15l-4 4z" />
    <glyph glyph-name="six.numr" horiz-adv-x="400" 
d="M352 732q-86 -11 -141.5 -51.5t-74.5 -118.5q20 15 45 22.5t51 7.5q27 0 51.5 -7.5t43.5 -22.5t30 -37.5t11 -52.5q0 -31 -10.5 -57t-31 -45.5t-49.5 -30.5t-65 -11q-37 0 -67.5 9t-53 28t-35 48.5t-12.5 70.5q0 58 20 106.5t58.5 83.5t95 54.5t130.5 19.5zM210 560
q-22 0 -42 -5.5t-37 -19.5q-3 -24 -3 -51q0 -66 24.5 -101t59.5 -35q39 0 57.5 31t18.5 85q0 45 -20 70.5t-58 25.5z" />
    <glyph glyph-name="seven.numr" horiz-adv-x="400" 
d="M64 740h304v-52q-26 -27 -52 -67.5t-47.5 -87.5t-35 -98t-13.5 -99h-84q0 45 19 97t48 101t62.5 88.5t62.5 57.5h-176q-36 0 -53 -13.5t-23 -46.5h-12v120z" />
    <glyph glyph-name="eight.numr" horiz-adv-x="400" 
d="M44 432q0 33 24 61.5t75 39.5q-17 9 -33 20t-28 25.5t-19 32.5t-7 41q0 44 41 70t107 26q63 0 103.5 -20t40.5 -68q0 -40 -30.5 -65.5t-72.5 -37.5q21 -9 42 -18.5t37 -23t26 -31.5t10 -44q0 -57 -42.5 -84.5t-113.5 -27.5q-160 0 -160 104zM280 416q0 21 -10.5 36
t-27 27t-37.5 22t-42 21q-26 -21 -36.5 -45t-10.5 -49q0 -31 24 -55.5t64 -24.5q37 0 56.5 20t19.5 48zM136 660q0 -19 7 -33.5t19 -25.5t27.5 -19.5t33.5 -15.5q22 18 37.5 41t15.5 49q0 31 -19.5 51.5t-52.5 20.5t-50.5 -18.5t-17.5 -49.5z" />
    <glyph glyph-name="nine.numr" horiz-adv-x="400" 
d="M60 344q86 11 141.5 51.5t73.5 117.5q-20 -14 -44.5 -21.5t-50.5 -7.5q-27 0 -51.5 7.5t-43.5 22.5t-30 37.5t-11 52.5q0 31 10.5 57t31 45.5t49.5 30.5t65 11q37 0 67.5 -9t53 -28t35 -48.5t12.5 -70.5q0 -58 -20 -106.5t-58.5 -83.5t-95.5 -54.5t-130 -19.5zM202 516
q21 0 41 5.5t37 19.5q2 12 3 24.5t1 26.5q0 66 -24.5 101t-59.5 35q-39 0 -57.5 -31t-18.5 -85q0 -45 20 -70.5t58 -25.5z" />
    <glyph glyph-name="dollar.numr" horiz-adv-x="440" 
d="M188 325q-33 2 -65 9.5t-51 13.5l8 92h12q11 -42 37 -64t59 -27v172q-22 11 -43.5 23t-38.5 27.5t-27.5 35t-10.5 45.5q0 40 36.5 66.5t99.5 29.5v40h36v-41q28 -2 56 -6.5t48 -12.5v-88h-12q-11 33 -34.5 54.5t-57.5 27.5v-145q23 -11 46.5 -23t42.5 -28t31 -37t12 -49
q0 -53 -41 -82.5t-107 -32.5v-37h-36v37zM292 424q0 27 -19.5 45.5t-48.5 33.5v-154q33 4 50.5 24t17.5 51zM144 664q0 -23 17 -39t43 -30v128q-29 -3 -44.5 -18.5t-15.5 -40.5z" />
    <glyph glyph-name="cent.numr" horiz-adv-x="440" 
d="M204 329q-57 5 -90.5 38t-33.5 101q0 72 34 110t90 44v38h36v-36q45 -2 74.5 -20.5t29.5 -47.5q0 -17 -11 -26.5t-25 -9.5q-22 0 -28 24l-12 48q-6 2 -13 4t-15 3v-227h12q55 0 84 36h8q-26 -73 -104 -79v-41h-36v41zM148 504q0 -50 15.5 -78.5t40.5 -42.5v213
q-27 -9 -41.5 -36t-14.5 -56z" />
    <glyph glyph-name="Euro.numr" horiz-adv-x="440" 
d="M19 588h53q14 72 65.5 116t129.5 44q37 0 70 -6t62 -14l-4 -88h-12q-13 44 -44 64t-72 20q-45 0 -74.5 -36.5t-38.5 -99.5h141v-32h-144v-32h128v-32h-126q4 -30 13.5 -56.5t24 -46t34.5 -30.5t46 -11q46 0 73 26.5t39 77.5h12l4 -100q-30 -15 -63 -21.5t-69 -6.5
q-91 0 -139 45t-58 123h-51v32h48v32h-48v32z" />
    <glyph glyph-name="yen.numr" horiz-adv-x="440" 
d="M79 534h83l-87 169q-12 25 -40 28v10h149v-10q-29 -3 -29 -18q0 -4 3 -10l78 -170l80 167q3 6 3 12q0 9 -8 13t-20 6v10h115v-10q-20 -3 -28.5 -10t-16.5 -21l-91 -166h83v-30h-97v-36h97v-30h-97v-57q0 -14 12 -24.5t32 -10.5v-10h-168v10q19 0 31.5 10.5t12.5 24.5v57
h-97v30h97v36h-97v30z" />
    <glyph glyph-name="sterling.numr" horiz-adv-x="440" 
d="M350 637q-11 0 -21.5 5.5t-15.5 18.5l-17 55q-8 4 -20.5 5.5t-21.5 1.5q-34 0 -50 -18t-16 -47q0 -22 5.5 -43t11.5 -44h99v-33h-92q3 -17 3 -34q0 -47 -14 -89q22 -8 45 -13.5t52 -5.5q36 0 52 21t27 58h9q3 -26 3 -47q-2 -99 -93 -99q-33 0 -60 16t-52 33
q-14 -23 -34.5 -36t-49.5 -13q-32 0 -50.5 13.5t-18.5 39.5t22 40t51 14q14 0 27 -2t24 -4q-2 20 -10 49t-17 59h-63v33h54q-5 18 -8 34t-3 28q0 48 37 81t109 33q23 0 46.5 -5t43 -14t32 -21.5t12.5 -28.5q0 -20 -10.5 -30.5t-27.5 -10.5zM100 352q19 0 33.5 11.5
t19.5 35.5q-12 7 -24 11t-25 4q-20 0 -31.5 -7.5t-11.5 -24.5t12 -23.5t27 -6.5z" />
    <glyph glyph-name="plus.numr" horiz-adv-x="440" 
d="M72 504h130v112h36v-112h130v-32h-130v-112h-36v112h-130v32z" />
    <glyph glyph-name="minus.numr" horiz-adv-x="440" 
d="M72 504h296v-32h-296v32z" />
    <glyph glyph-name="multiply.numr" horiz-adv-x="440" 
d="M356 580l-111 -98l111 -98l-24 -24l-112 99l-112 -99l-24 24l110 98l-110 98l24 24l112 -100l112 100z" />
    <glyph glyph-name="divide.numr" horiz-adv-x="440" 
d="M72 504h296v-32h-296v32zM220 352q-19 0 -29.5 11.5t-10.5 28.5t10.5 28.5t29.5 11.5t29.5 -11.5t10.5 -28.5t-10.5 -28.5t-29.5 -11.5zM220 544q-19 0 -29.5 11.5t-10.5 28.5t10.5 28.5t29.5 11.5t29.5 -11.5t10.5 -28.5t-10.5 -28.5t-29.5 -11.5z" />
    <glyph glyph-name="equal.numr" horiz-adv-x="440" 
d="M72 460h296v-32h-296v32zM72 548h296v-32h-296v32z" />
    <glyph glyph-name="period.numr" horiz-adv-x="192" 
d="M40 380q0 24 15 40t41 16t41 -16t15 -40t-15 -40t-41 -16t-41 16t-15 40z" />
    <glyph glyph-name="comma.numr" horiz-adv-x="192" 
d="M12 240q46 8 67 27.5t21 40.5q0 12 -9.5 17t-20.5 11t-20.5 16t-9.5 32q0 26 18 39t38 13q26 0 41 -15t15 -41v-4q0 -27 -5.5 -54.5t-20.5 -50t-42.5 -38.5t-71.5 -21v28z" />
    <glyph glyph-name="hyphen.numr" horiz-adv-x="272" 
d="M48 592h176v-76h-176v76z" />
    <glyph glyph-name="parenleft.numr" horiz-adv-x="324" 
d="M88 544q0 46 13 90.5t38.5 79.5t63 57t85.5 25v-16q-37 -10 -62.5 -35.5t-41 -59.5t-22 -71t-6.5 -70v-28q0 -33 6.5 -70t22 -71t41 -59.5t62.5 -35.5v-16q-48 3 -85.5 25t-63 57t-38.5 79t-13 91v28z" />
    <glyph glyph-name="parenright.numr" horiz-adv-x="324" 
d="M36 796q48 -3 85 -25t62.5 -57t39 -79.5t13.5 -90.5v-28q0 -47 -13.5 -91t-39 -79t-62.5 -57t-85 -25v16q37 10 62.5 35.5t41 59.5t22 71t6.5 70v28q0 33 -6.5 70t-22 71t-41 59.5t-62.5 35.5v16z" />
    <glyph glyph-name="uni2090" unicode="&#x2090;" horiz-adv-x="408" 
d="M88 117q-21 0 -28.5 13t-7.5 31q0 16 10 34t29 32.5t45.5 24t59.5 9.5q144 0 144 -120v-224q0 -23 9.5 -31.5t22.5 -8.5q9 0 17.5 2.5t14.5 5.5l4 -8q-15 -18 -35.5 -29t-44.5 -11q-26 0 -43 13t-23 42q-22 -27 -48.5 -41t-61.5 -14q-57 0 -88.5 26.5t-31.5 77.5
q0 30 15 51t38.5 35.5t52.5 23t58 14.5l64 13v63q0 45 -14 70.5t-50 25.5q-24 0 -39.5 -8.5t-24.5 -23.5v-40q0 -48 -44 -48zM172 -119q19 0 43.5 7.5t44.5 21.5v139l-52 -12q-45 -11 -70.5 -32t-25.5 -60q0 -64 60 -64z" />
    <glyph glyph-name="b.subs" horiz-adv-x="452" 
d="M216 -163q-20 0 -43.5 2.5t-48.5 7t-49 11t-43 15.5v8q23 2 31.5 13t8.5 31v420q0 19 -12.5 30.5t-35.5 13.5v8q42 5 71 16.5t49 27.5l8 -4v-224q17 19 41.5 29.5t54.5 10.5q37 0 67.5 -10.5t53 -34t35 -61t12.5 -90.5q0 -52 -14.5 -92.5t-40.5 -69t-63 -43.5t-82 -15z
M220 217q-26 0 -42 -8.5t-26 -19.5v-260q0 -36 17 -52t47 -16q28 0 50 14.5t36.5 40.5t22 61t7.5 76q0 76 -29.5 120t-82.5 44z" />
    <glyph glyph-name="c.subs" horiz-adv-x="380" 
d="M352 -55q-18 -57 -54 -82.5t-90 -25.5q-83 0 -127.5 58t-44.5 154q0 48 13 87t36.5 67t56 43t70.5 15q60 0 100 -24.5t40 -63.5q0 -24 -13 -34t-31 -10q-12 0 -24 7.5t-16 24.5l-12 60q-10 9 -23 12.5t-25 3.5q-24 0 -41.5 -12t-28.5 -32t-16.5 -47t-5.5 -57
q0 -56 10.5 -94.5t28 -62t40.5 -33.5t49 -10q35 0 56.5 18t39.5 42z" />
    <glyph glyph-name="d.subs" horiz-adv-x="452" 
d="M308 -120q-18 -19 -44.5 -31t-55.5 -12q-36 0 -67.5 11.5t-54.5 36t-36.5 62t-13.5 90.5q0 48 14 87.5t38.5 68t59 44.5t76.5 16q21 0 43.5 -6t36.5 -18v116q0 44 -56 44v8q42 5 75 16.5t53 27.5l8 -4v-532q0 -44 44 -48v-8h-120v31zM236 -127q23 0 40.5 8.5t27.5 19.5
v308q-10 5 -24 8.5t-28 3.5q-32 0 -56.5 -14.5t-41 -39t-25.5 -57t-9 -69.5q0 -78 32 -123t84 -45z" />
    <glyph glyph-name="uni2091" unicode="&#x2091;" horiz-adv-x="396" 
d="M116 81q1 -55 12 -91.5t29 -59t41.5 -32t49.5 -9.5q17 0 33.5 5.5t31 14.5t26.5 19.5t21 20.5l8 -4q-17 -53 -57.5 -80.5t-94.5 -27.5q-41 0 -74.5 15t-57 43t-36 67t-12.5 87q0 51 13 90.5t36.5 66.5t56 41t70.5 14q37 0 65.5 -13t47.5 -35t29 -51t10 -61v-16l-4 -4
h-244zM212 237q-41 0 -66 -35.5t-30 -92.5l136 4q18 1 25 12.5t7 31.5q0 33 -19.5 56.5t-52.5 23.5z" />
    <glyph glyph-name="f.subs" horiz-adv-x="256" 
d="M20 245h53q-4 27 -10.5 50.5t-6.5 57.5q0 43 32.5 65.5t79.5 22.5q60 0 88 -23t28 -53q0 -20 -12.5 -32t-31.5 -12q-20 0 -30 10t-10 34v24q0 15 -11.5 21.5t-24.5 6.5q-17 0 -30.5 -12t-13.5 -32t4 -35.5t9.5 -30.5l11 -30t8.5 -32h87v-48h-84v-292q0 -19 13.5 -32.5
t38.5 -15.5v-8h-172v8q23 2 31.5 15.5t8.5 32.5v292h-56v48z" />
    <glyph glyph-name="g.subs" horiz-adv-x="432" 
d="M200 -323q-86 0 -139 20.5t-53 63.5q0 14 7 28.5t21 27.5t35.5 22.5t51.5 14.5q-34 8 -54.5 24t-20.5 39q0 26 20 45.5t69 34.5q-49 13 -75 45.5t-26 82.5q0 64 43.5 100t124.5 36q50 0 86 -15q6 31 29 49t57 18q31 0 47.5 -17t16.5 -39q0 -18 -11.5 -35t-32.5 -29l-4 4
q8 16 8 28q0 21 -13 32.5t-31 11.5q-15 0 -28.5 -9t-20.5 -23q29 -17 45 -45.5t16 -66.5q0 -65 -43 -100.5t-121 -35.5h-19t-17 2q-26 -11 -37 -21t-11 -21q0 -14 10 -22.5t38 -13.5l120 -24q57 -11 88.5 -35.5t31.5 -68.5q0 -47 -54 -77.5t-154 -30.5zM204 9
q35 0 57.5 28.5t22.5 87.5t-22.5 87.5t-57.5 28.5q-38 0 -61 -28.5t-23 -87.5t23 -87.5t61 -28.5zM150 -152q-37 -12 -53.5 -34t-16.5 -45q0 -26 31 -47t89 -21q57 0 92.5 18t35.5 54q0 15 -15 28.5t-49 21.5z" />
    <glyph glyph-name="uni2095" unicode="&#x2095;" horiz-adv-x="464" 
d="M32 -151v8q23 2 31.5 15.5t8.5 32.5v440q0 19 -12.5 30.5t-35.5 13.5v8q42 5 71 16.5t49 27.5l8 -4v-230q29 23 72 38.5t84 15.5q27 0 44.5 -8.5t27 -23t13 -34t3.5 -42.5v-248q0 -19 8.5 -32.5t31.5 -15.5v-8h-160v8q23 2 31.5 15.5t8.5 32.5v224q0 44 -17.5 62
t-62.5 18q-17 0 -39.5 -4.5t-44.5 -16.5v-283q0 -19 8.5 -32.5t31.5 -15.5v-8h-160z" />
    <glyph glyph-name="i.subs" horiz-adv-x="232" 
d="M36 -143q23 2 31.5 15.5t8.5 32.5v264q0 19 -12.5 30.5t-35.5 13.5v8q42 5 71 16.5t49 27.5l8 -4v-356q0 -19 8.5 -32.5t31.5 -15.5v-8h-160v8zM60 377q0 20 15 36t41 16t41 -16t15 -36t-15 -36t-41 -16t-41 16t-15 36z" />
    <glyph glyph-name="j.subs" horiz-adv-x="232" 
d="M76 169q0 19 -12.5 30.5t-35.5 13.5v8q42 5 71 16.5t49 27.5l8 -4v-312q0 -29 4.5 -51.5t9.5 -42t9.5 -38.5t4.5 -40q0 -42 -25.5 -69t-70.5 -27q-56 0 -78 22.5t-22 49.5q0 20 10.5 32t29.5 12q20 0 28 -10t8 -34v-40q4 -5 11 -6.5t13 -1.5q40 0 40 48q0 26 -8 44
t-18 36.5t-18 41t-8 58.5v236zM60 377q0 20 15 36t41 16t41 -16t15 -36t-15 -36t-41 -16t-41 16t-15 36z" />
    <glyph glyph-name="uni2096" unicode="&#x2096;" horiz-adv-x="436" 
d="M32 -143q23 2 31.5 15.5t8.5 32.5v440q0 19 -12.5 30.5t-35.5 13.5v8q42 5 71 16.5t49 27.5l8 -4v-390l52 26l88 112q12 15 12 26q0 20 -32 26v8h144v-8q-24 -6 -41.5 -22t-30.5 -30l-80 -87l120 -197q13 -20 24.5 -30.5t31.5 -13.5v-8h-160v8q24 4 24 20q0 5 -3 11
t-9 17l-85 138l-55 -51v-87q0 -19 8.5 -32.5t31.5 -15.5v-8h-160v8z" />
    <glyph glyph-name="uni2097" unicode="&#x2097;" horiz-adv-x="228" 
d="M32 -143q23 2 31.5 15.5t8.5 32.5v440q0 19 -12.5 30.5t-35.5 13.5v8q42 5 71 16.5t49 27.5l8 -4v-532q0 -19 8.5 -32.5t31.5 -15.5v-8h-160v8z" />
    <glyph glyph-name="uni2098" unicode="&#x2098;" horiz-adv-x="696" 
d="M508 -143q23 2 31.5 15.5t8.5 32.5v224q0 44 -15.5 62t-60.5 18q-17 0 -38.5 -5t-43.5 -17q2 -8 2 -16.5v-17.5v-248q0 -19 8.5 -32.5t31.5 -15.5v-8h-160v8q23 2 31.5 15.5t8.5 32.5v224q0 44 -15.5 62t-60.5 18q-17 0 -38 -4.5t-42 -16.5v-283q0 -19 8.5 -32.5
t31.5 -15.5v-8h-160v8q23 2 31.5 15.5t8.5 32.5v264q0 19 -12.5 30.5t-35.5 13.5v8q42 5 71 16.5t49 27.5l8 -4v-53q29 23 70 38t82 15q38 0 55.5 -15.5t23.5 -41.5q29 24 72 40.5t85 16.5q27 0 43.5 -8.5t25.5 -23t12 -34t3 -42.5v-248q0 -19 8.5 -32.5t31.5 -15.5v-8h-160
v8z" />
    <glyph glyph-name="uni2099" unicode="&#x2099;" horiz-adv-x="468" 
d="M36 -143q23 2 31.5 15.5t8.5 32.5v264q0 19 -12.5 30.5t-35.5 13.5v8q42 5 71 16.5t49 27.5l8 -4v-54q29 23 72 38.5t84 15.5q27 0 44.5 -8.5t27 -23t13 -34t3.5 -42.5v-248q0 -19 8.5 -32.5t31.5 -15.5v-8h-160v8q23 2 31.5 15.5t8.5 32.5v224q0 44 -17.5 62t-62.5 18
q-17 0 -39.5 -4.5t-44.5 -16.5v-283q0 -19 8.5 -32.5t31.5 -15.5v-8h-160v8z" />
    <glyph glyph-name="uni2092" unicode="&#x2092;" horiz-adv-x="464" 
d="M232 -139q52 0 80 46t28 142q0 91 -27 139.5t-81 48.5q-52 0 -80 -46t-28 -142q0 -91 27 -139.5t81 -48.5zM232 -163q-48 0 -85 15.5t-61.5 43.5t-37 67t-12.5 86q0 46 12.5 85t37.5 67t61.5 44t84.5 16t85 -15.5t61.5 -43.5t37 -67t12.5 -86q0 -46 -12.5 -85t-37.5 -67
t-61.5 -44t-84.5 -16z" />
    <glyph glyph-name="uni209A" unicode="&#x209a;" horiz-adv-x="456" 
d="M28 -303q23 2 31.5 15.5t8.5 32.5v424q0 19 -12.5 30.5t-35.5 13.5v8q42 5 71 16.5t49 27.5l8 -4v-40q18 18 44.5 29t55.5 11q35 0 65 -11.5t52 -36.5t34.5 -63.5t12.5 -92.5q0 -55 -13.5 -96t-36.5 -68.5t-53.5 -41.5t-64.5 -14q-26 0 -44.5 6t-35.5 18l4 12
q9 -2 16.5 -3t15.5 -1q35 0 59.5 15t39.5 40.5t22 59t7 69.5q0 76 -28 122t-80 46q-22 0 -41 -6.5t-31 -17.5v-452q0 -19 10.5 -32.5t33.5 -15.5v-8h-164v8z" />
    <glyph glyph-name="q.subs" horiz-adv-x="456" 
d="M208 -163q-36 0 -67.5 12t-54.5 37.5t-36.5 63.5t-13.5 91q0 48 14 88.5t38.5 69.5t59 45.5t76.5 16.5q21 0 43.5 -6t36.5 -18h4q22 1 39.5 11t28.5 21l8 -4v-520q0 -19 8.5 -32.5t31.5 -15.5v-8h-160v8q23 2 31.5 15.5t8.5 32.5v131q-18 -17 -43 -28t-53 -11zM236 -127
q23 0 40.5 8.5t27.5 19.5v316q-10 5 -24 8.5t-28 3.5q-32 0 -56.5 -15t-41 -40.5t-25.5 -58.5t-9 -70q0 -78 32 -125t84 -47z" />
    <glyph glyph-name="r.subs" horiz-adv-x="332" 
d="M36 -143q23 2 31.5 15.5t8.5 32.5v264q0 19 -12.5 30.5t-35.5 13.5v8q42 5 71 16.5t49 27.5l8 -4v-65q17 26 44.5 45.5t59.5 19.5q26 0 45 -13.5t19 -38.5q0 -27 -14.5 -39.5t-37.5 -12.5q-21 0 -32 16l-20 32q-24 0 -39 -11.5t-25 -25.5v-263q0 -25 12.5 -35.5
t35.5 -12.5v-8h-168v8z" />
    <glyph glyph-name="uni209B" unicode="&#x209b;" horiz-adv-x="344" 
d="M36 -19h12q14 -57 45.5 -88.5t78.5 -31.5q17 0 29 6.5t20 17t11.5 23t3.5 25.5q0 21 -9.5 37t-25 29t-35 24t-38.5 22q-17 10 -33 20.5t-28 24t-19.5 30t-7.5 37.5q0 53 39 78.5t97 25.5q33 0 61.5 -7t54.5 -21l4 -96h-12q-17 51 -41.5 75.5t-62.5 24.5q-34 0 -51 -19
t-17 -45q0 -29 25.5 -48t58.5 -36q21 -11 41.5 -23t37 -27t27 -35t10.5 -47q0 -56 -38.5 -88t-101.5 -32q-29 0 -64.5 7.5t-67.5 24.5z" />
    <glyph glyph-name="uni209C" unicode="&#x209c;" horiz-adv-x="284" 
d="M76 197h-72v20q38 15 63 41t40.5 55.5t22.5 59t10 52.5h16v-180h88v-48h-88v-256q0 -29 14.5 -46.5t45.5 -17.5q12 0 25 2.5t27 9.5l4 -8q-21 -21 -45.5 -32.5t-62.5 -11.5q-48 0 -68 24t-20 72v264z" />
    <glyph glyph-name="u.subs" horiz-adv-x="472" 
d="M316 -110q-29 -23 -72 -38t-84 -15q-27 0 -44.5 8.5t-27 23t-13 34t-3.5 42.5v224q0 19 -12.5 30.5t-35.5 13.5v8q42 5 71 16.5t49 27.5l8 -4v-292q0 -44 17.5 -62t62.5 -18q17 0 39.5 4.5t44.5 15.5v260q0 19 -12.5 30.5t-35.5 13.5v8q42 5 71 16.5t49 27.5l8 -4v-356
q0 -19 8.5 -32.5t31.5 -15.5v-8h-120v41z" />
    <glyph glyph-name="v.subs" horiz-adv-x="428" 
d="M52 193q-7 19 -15 27.5t-25 16.5v8h152v-8q-13 -2 -22.5 -6t-9.5 -14q0 -5 1 -11t3 -13l92 -272l88 272q4 12 4 16q0 23 -36 28v8h132v-8q-20 -5 -28 -15t-16 -29l-132 -344h-64z" />
    <glyph glyph-name="w.subs" horiz-adv-x="648" 
d="M319 88l-91 -239h-60l-112 344q-6 20 -14.5 28t-25.5 16v8h144v-8q-13 -2 -20.5 -6t-7.5 -14q0 -5 1 -11t3 -13l78 -265l79 229l-13 36q-7 19 -17 27.5t-27 16.5v8h144v-8q-13 -2 -20.5 -6t-7.5 -14q0 -5 3 -11t5 -13l93 -265l75 265q4 12 4 16q0 23 -36 28v8h136v-8
q-20 -5 -30.5 -15t-17.5 -29l-116 -344h-60z" />
    <glyph glyph-name="uni2093" unicode="&#x2093;" horiz-adv-x="416" 
d="M248 -143q20 5 20 19q0 16 -8 28l-68 102l-68 -102q-5 -7 -8.5 -13t-3.5 -11q0 -8 7 -14.5t21 -8.5v-8h-128v8q17 8 30.5 17t25.5 26l104 135l-104 158q-12 17 -25.5 27t-30.5 17v8h160v-8q-10 -2 -15 -5t-5 -11q0 -16 8 -28l68 -105l64 105q5 7 6.5 13t1.5 11
q0 8 -4.5 13t-19.5 7v8h128v-8q-17 -8 -30 -17.5t-26 -26.5l-102 -131l106 -162q12 -17 23.5 -26.5t28.5 -16.5v-8h-156v8z" />
    <glyph glyph-name="y.subs" horiz-adv-x="428" 
d="M96 -323q-48 0 -78 16.5t-30 51.5q0 26 11 39t29 13q21 0 34.5 -10t13.5 -34v-16q0 -14 5.5 -23t18.5 -9q24 0 46.5 35.5t45.5 104.5l-140 348q-8 19 -15.5 27.5t-24.5 16.5v8h152v-8q-13 -2 -22.5 -6t-9.5 -14q0 -5 1 -11t3 -13l91 -256l89 256q4 12 4 16q0 23 -36 28v8
h132v-8q-20 -5 -28 -15t-16 -29l-132 -328q-17 -43 -32 -77.5t-31 -59t-35.5 -38t-45.5 -13.5z" />
    <glyph glyph-name="z.subs" horiz-adv-x="372" 
d="M24 -143l216 360h-72q-29 0 -47.5 -4t-32 -14t-22.5 -26t-18 -40h-12l4 112h292l4 -8l-216 -360h88q31 0 50.5 6t32.5 18t21 30t16 42h12l-4 -124h-308z" />
    <glyph glyph-name="uni2080" unicode="&#x2080;" horiz-adv-x="400" 
d="M200 -135q54 0 75 50.5t21 137.5q0 85 -22 134.5t-74 49.5q-54 0 -75 -50.5t-21 -137.5q0 -85 22 -134.5t74 -49.5zM200 -159q-50 0 -84.5 17.5t-55.5 46t-30.5 66t-9.5 78.5q0 40 9.5 78.5t30.5 68t55.5 47.5t84.5 18t84.5 -17.5t55.5 -46t30.5 -66.5t9.5 -78
q0 -41 -9.5 -79t-30.5 -67.5t-55.5 -47.5t-84.5 -18z" />
    <glyph glyph-name="uni2081" unicode="&#x2081;" horiz-adv-x="400" 
d="M120 -139q19 0 33.5 9t14.5 31v248q0 29 -13 42.5t-47 13.5v12q19 3 39.5 8.5t39 12t33.5 14t24 13.5l8 -4q-2 -14 -3 -35.5t-1 -36.5v-288q0 -22 14 -31t34 -9v-12h-176v12z" />
    <glyph glyph-name="uni2082" unicode="&#x2082;" horiz-adv-x="400" 
d="M56 -111q0 26 15 47.5t37 40.5t48 38.5t48 41.5t37 49t15 63t-17 52t-47 16q-35 0 -51.5 -22t-16.5 -58q0 -11 1.5 -20t6.5 -20l-80 20q-4 9 -4 20q0 25 13 44.5t33.5 32.5t46 20t51.5 7q69 0 108.5 -24t39.5 -72q0 -33 -16 -60.5t-41 -50.5t-55 -42t-57 -36t-47.5 -33.5
t-27.5 -33.5h176q33 0 45.5 19t18.5 49h12v-128h-292v40z" />
    <glyph glyph-name="uni2083" unicode="&#x2083;" horiz-adv-x="400" 
d="M136 77h16q46 0 73 22t27 70q0 28 -14 48t-54 20q-32 0 -46 -23.5t-14 -52.5q0 -7 1 -14t3 -14l-76 20q-2 6 -3 10.5t-1 9.5q0 22 11.5 38.5t31 27.5t43.5 16.5t50 5.5q72 0 110 -22.5t38 -69.5q0 -22 -10 -39.5t-26.5 -31t-37 -22t-42.5 -11.5q25 0 49 -6t42.5 -19
t29.5 -32.5t11 -46.5q0 -32 -15 -54.5t-39 -37t-54 -21.5t-60 -7q-51 0 -91 25.5t-49 82.5l28 8q8 -41 35.5 -62.5t72.5 -21.5t68.5 24.5t23.5 63.5q0 32 -22.5 56.5t-72.5 27.5h-37v32z" />
    <glyph glyph-name="uni2084" unicode="&#x2084;" horiz-adv-x="400" 
d="M172 -139q19 0 33.5 9t14.5 31v52h-188l-12 44l192 256l84 8v-256h84l-12 -52h-72v-52q0 -22 14 -31t34 -9v-12h-172v12zM72 5h148v200z" />
    <glyph glyph-name="uni2085" unicode="&#x2085;" horiz-adv-x="400" 
d="M88 253l8 4q18 -6 53.5 -9t70.5 -3q36 0 64.5 3.5t47.5 12.5l8 -4q-16 -46 -53 -64t-79 -18q-20 0 -39.5 3.5t-37.5 8.5l-10 -112q20 8 39.5 11t39.5 3q30 0 58 -7.5t50 -22.5t35 -38.5t13 -55.5t-14 -55t-37.5 -38.5t-53 -23t-59.5 -7.5q-51 0 -89 23t-47 77l28 8
q12 -39 35.5 -57.5t68.5 -18.5t66.5 26.5t21.5 65.5q0 47 -30.5 71.5t-73.5 24.5q-19 0 -37 -5t-39 -15l-4 4z" />
    <glyph glyph-name="uni2086" unicode="&#x2086;" horiz-adv-x="400" 
d="M352 245q-86 -11 -141.5 -51.5t-74.5 -118.5q20 15 45 22.5t51 7.5q27 0 51.5 -7.5t43.5 -22.5t30 -37.5t11 -52.5q0 -31 -10.5 -57t-31 -45.5t-49.5 -30.5t-65 -11q-37 0 -67.5 9t-53 28t-35 48.5t-12.5 70.5q0 58 20 106.5t58.5 83.5t95 54.5t130.5 19.5zM210 73
q-22 0 -42 -5.5t-37 -19.5q-3 -24 -3 -51q0 -66 24.5 -101t59.5 -35q39 0 57.5 31t18.5 85q0 45 -20 70.5t-58 25.5z" />
    <glyph glyph-name="uni2087" unicode="&#x2087;" horiz-adv-x="400" 
d="M64 253h304v-52q-26 -27 -52 -67.5t-47.5 -87.5t-35 -98t-13.5 -99h-84q0 45 19 97t48 101t62.5 88.5t62.5 57.5h-176q-36 0 -53 -13.5t-23 -46.5h-12v120z" />
    <glyph glyph-name="uni2088" unicode="&#x2088;" horiz-adv-x="400" 
d="M44 -55q0 33 24 61.5t75 39.5q-17 9 -33 20t-28 25.5t-19 32.5t-7 41q0 44 41 70t107 26q63 0 103.5 -20t40.5 -68q0 -40 -30.5 -65.5t-72.5 -37.5q21 -9 42 -18.5t37 -23t26 -31.5t10 -44q0 -57 -42.5 -84.5t-113.5 -27.5q-160 0 -160 104zM280 -71q0 21 -10.5 36
t-27 27t-37.5 22t-42 21q-26 -21 -36.5 -45t-10.5 -49q0 -31 24 -55.5t64 -24.5q37 0 56.5 20t19.5 48zM136 173q0 -19 7 -33.5t19 -25.5t27.5 -19.5t33.5 -15.5q22 18 37.5 41t15.5 49q0 31 -19.5 51.5t-52.5 20.5t-50.5 -18.5t-17.5 -49.5z" />
    <glyph glyph-name="uni2089" unicode="&#x2089;" horiz-adv-x="400" 
d="M60 -143q86 11 141.5 51.5t73.5 117.5q-20 -14 -44.5 -21.5t-50.5 -7.5q-27 0 -51.5 7.5t-43.5 22.5t-30 37.5t-11 52.5q0 31 10.5 57t31 45.5t49.5 30.5t65 11q37 0 67.5 -9t53 -28t35 -48.5t12.5 -70.5q0 -58 -20 -106.5t-58.5 -83.5t-95.5 -54.5t-130 -19.5zM202 29
q21 0 41 5.5t37 19.5q2 12 3 24.5t1 26.5q0 66 -24.5 101t-59.5 35q-39 0 -57.5 -31t-18.5 -85q0 -45 20 -70.5t58 -25.5z" />
    <glyph glyph-name="dollar.subs" horiz-adv-x="440" 
d="M188 -162q-33 2 -65 9.5t-51 13.5l8 92h12q11 -42 37 -64t59 -27v172q-22 11 -43.5 23t-38.5 27.5t-27.5 35t-10.5 45.5q0 40 36.5 66.5t99.5 29.5v40h36v-41q28 -2 56 -6.5t48 -12.5v-88h-12q-11 33 -34.5 54.5t-57.5 27.5v-145q23 -11 46.5 -23t42.5 -28t31 -37t12 -49
q0 -53 -41 -82.5t-107 -32.5v-37h-36v37zM292 -63q0 27 -19.5 45.5t-48.5 33.5v-154q33 4 50.5 24t17.5 51zM144 177q0 -23 17 -39t43 -30v128q-29 -3 -44.5 -18.5t-15.5 -40.5z" />
    <glyph glyph-name="cent.subs" horiz-adv-x="440" 
d="M204 -158q-57 5 -90.5 38t-33.5 101q0 72 34 110t90 44v38h36v-36q45 -2 74.5 -20.5t29.5 -47.5q0 -17 -11 -26.5t-25 -9.5q-22 0 -28 24l-12 48q-6 2 -13 4t-15 3v-227h12q55 0 84 36h8q-26 -73 -104 -79v-41h-36v41zM148 17q0 -50 15.5 -78.5t40.5 -42.5v213
q-27 -9 -41.5 -36t-14.5 -56z" />
    <glyph glyph-name="Euro.subs" horiz-adv-x="440" 
d="M19 101h53q14 72 65.5 116t129.5 44q37 0 70 -6t62 -14l-4 -88h-12q-13 44 -44 64t-72 20q-45 0 -74.5 -36.5t-38.5 -99.5h141v-32h-144v-32h128v-32h-126q4 -30 13.5 -56.5t24 -46t34.5 -30.5t46 -11q46 0 73 26.5t39 77.5h12l4 -100q-30 -15 -63 -21.5t-69 -6.5
q-91 0 -139 45t-58 123h-51v32h48v32h-48v32z" />
    <glyph glyph-name="yen.subs" horiz-adv-x="440" 
d="M79 47h83l-87 169q-12 25 -40 28v10h149v-10q-29 -3 -29 -18q0 -4 3 -10l78 -170l80 167q3 6 3 12q0 9 -8 13t-20 6v10h115v-10q-20 -3 -28.5 -10t-16.5 -21l-91 -166h83v-30h-97v-36h97v-30h-97v-57q0 -14 12 -24.5t32 -10.5v-10h-168v10q19 0 31.5 10.5t12.5 24.5v57
h-97v30h97v36h-97v30z" />
    <glyph glyph-name="sterling.subs" horiz-adv-x="440" 
d="M350 150q-11 0 -21.5 5.5t-15.5 18.5l-17 55q-8 4 -20.5 5.5t-21.5 1.5q-34 0 -50 -18t-16 -47q0 -22 5.5 -43t11.5 -44h99v-33h-92q3 -17 3 -34q0 -47 -14 -89q22 -8 45 -13.5t52 -5.5q36 0 52 21t27 58h9q3 -26 3 -47q-2 -99 -93 -99q-33 0 -60 16t-52 33
q-14 -23 -34.5 -36t-49.5 -13q-32 0 -50.5 13.5t-18.5 39.5t22 40t51 14q14 0 27 -2t24 -4q-2 20 -10 49t-17 59h-63v33h54q-5 18 -8 34t-3 28q0 48 37 81t109 33q23 0 46.5 -5t43 -14t32 -21.5t12.5 -28.5q0 -20 -10.5 -30.5t-27.5 -10.5zM100 -135q19 0 33.5 11.5
t19.5 35.5q-12 7 -24 11t-25 4q-20 0 -31.5 -7.5t-11.5 -24.5t12 -23.5t27 -6.5z" />
    <glyph glyph-name="uni208A" unicode="&#x208a;" horiz-adv-x="440" 
d="M72 17h130v112h36v-112h130v-32h-130v-112h-36v112h-130v32z" />
    <glyph glyph-name="uni208B" unicode="&#x208b;" horiz-adv-x="440" 
d="M72 17h296v-32h-296v32z" />
    <glyph glyph-name="multiply.subs" horiz-adv-x="440" 
d="M356 93l-111 -98l111 -98l-24 -24l-112 99l-112 -99l-24 24l110 98l-110 98l24 24l112 -100l112 100z" />
    <glyph glyph-name="divide.subs" horiz-adv-x="440" 
d="M72 17h296v-32h-296v32zM220 -135q-19 0 -29.5 11.5t-10.5 28.5t10.5 28.5t29.5 11.5t29.5 -11.5t10.5 -28.5t-10.5 -28.5t-29.5 -11.5zM220 57q-19 0 -29.5 11.5t-10.5 28.5t10.5 28.5t29.5 11.5t29.5 -11.5t10.5 -28.5t-10.5 -28.5t-29.5 -11.5z" />
    <glyph glyph-name="uni208C" unicode="&#x208c;" horiz-adv-x="440" 
d="M72 -27h296v-32h-296v32zM72 61h296v-32h-296v32z" />
    <glyph glyph-name="period.subs" horiz-adv-x="192" 
d="M40 -107q0 24 15 40t41 16t41 -16t15 -40t-15 -40t-41 -16t-41 16t-15 40z" />
    <glyph glyph-name="comma.subs" horiz-adv-x="192" 
d="M12 -247q46 8 67 27.5t21 40.5q0 12 -9.5 17t-20.5 11t-20.5 16t-9.5 32q0 26 18 39t38 13q26 0 41 -15t15 -41v-4q0 -27 -5.5 -54.5t-20.5 -50t-42.5 -38.5t-71.5 -21v28z" />
    <glyph glyph-name="hyphen.subs" horiz-adv-x="272" 
d="M48 105h176v-76h-176v76z" />
    <glyph glyph-name="uni208D" unicode="&#x208d;" horiz-adv-x="324" 
d="M88 57q0 46 13 90.5t38.5 79.5t63 57t85.5 25v-16q-37 -10 -62.5 -35.5t-41 -59.5t-22 -71t-6.5 -70v-28q0 -33 6.5 -70t22 -71t41 -59.5t62.5 -35.5v-16q-48 3 -85.5 25t-63 57t-38.5 79t-13 91v28z" />
    <glyph glyph-name="uni208E" unicode="&#x208e;" horiz-adv-x="324" 
d="M36 309q48 -3 85 -25t62.5 -57t39 -79.5t13.5 -90.5v-28q0 -47 -13.5 -91t-39 -79t-62.5 -57t-85 -25v16q37 10 62.5 35.5t41 59.5t22 71t6.5 70v28q0 33 -6.5 70t-22 71t-41 59.5t-62.5 35.5v16z" />
    <glyph glyph-name="a.sups" horiz-adv-x="408" 
d="M88 756q-21 0 -28.5 13t-7.5 31q0 16 10 34t29 32.5t45.5 24t59.5 9.5q144 0 144 -120v-224q0 -23 9.5 -31.5t22.5 -8.5q9 0 17.5 2.5t14.5 5.5l4 -8q-15 -18 -35.5 -29t-44.5 -11q-26 0 -43 13t-23 42q-22 -27 -48.5 -41t-61.5 -14q-57 0 -88.5 26.5t-31.5 77.5
q0 30 15 51t38.5 35.5t52.5 23t58 14.5l64 13v63q0 45 -14 70.5t-50 25.5q-24 0 -39.5 -8.5t-24.5 -23.5v-40q0 -48 -44 -48zM172 520q19 0 43.5 7.5t44.5 21.5v139l-52 -12q-45 -11 -70.5 -32t-25.5 -60q0 -64 60 -64z" />
    <glyph glyph-name="b.sups" horiz-adv-x="452" 
d="M216 476q-20 0 -43.5 2.5t-48.5 7t-49 11t-43 15.5v8q23 2 31.5 13t8.5 31v420q0 19 -12.5 30.5t-35.5 13.5v8q42 5 71 16.5t49 27.5l8 -4v-224q17 19 41.5 29.5t54.5 10.5q37 0 67.5 -10.5t53 -34t35 -61t12.5 -90.5q0 -52 -14.5 -92.5t-40.5 -69t-63 -43.5t-82 -15z
M220 856q-26 0 -42 -8.5t-26 -19.5v-260q0 -36 17 -52t47 -16q28 0 50 14.5t36.5 40.5t22 61t7.5 76q0 76 -29.5 120t-82.5 44z" />
    <glyph glyph-name="c.sups" horiz-adv-x="380" 
d="M352 584q-18 -57 -54 -82.5t-90 -25.5q-83 0 -127.5 58t-44.5 154q0 48 13 87t36.5 67t56 43t70.5 15q60 0 100 -24.5t40 -63.5q0 -24 -13 -34t-31 -10q-12 0 -24 7.5t-16 24.5l-12 60q-10 9 -23 12.5t-25 3.5q-24 0 -41.5 -12t-28.5 -32t-16.5 -47t-5.5 -57
q0 -56 10.5 -94.5t28 -62t40.5 -33.5t49 -10q35 0 56.5 18t39.5 42z" />
    <glyph glyph-name="d.sups" horiz-adv-x="452" 
d="M308 519q-18 -19 -44.5 -31t-55.5 -12q-36 0 -67.5 11.5t-54.5 36t-36.5 62t-13.5 90.5q0 48 14 87.5t38.5 68t59 44.5t76.5 16q21 0 43.5 -6t36.5 -18v116q0 44 -56 44v8q42 5 75 16.5t53 27.5l8 -4v-532q0 -44 44 -48v-8h-120v31zM236 512q23 0 40.5 8.5t27.5 19.5v308
q-10 5 -24 8.5t-28 3.5q-32 0 -56.5 -14.5t-41 -39t-25.5 -57t-9 -69.5q0 -78 32 -123t84 -45z" />
    <glyph glyph-name="e.sups" horiz-adv-x="396" 
d="M116 720q1 -55 12 -91.5t29 -59t41.5 -32t49.5 -9.5q17 0 33.5 5.5t31 14.5t26.5 19.5t21 20.5l8 -4q-17 -53 -57.5 -80.5t-94.5 -27.5q-41 0 -74.5 15t-57 43t-36 67t-12.5 87q0 51 13 90.5t36.5 66.5t56 41t70.5 14q37 0 65.5 -13t47.5 -35t29 -51t10 -61v-16l-4 -4
h-244zM212 876q-41 0 -66 -35.5t-30 -92.5l136 4q18 1 25 12.5t7 31.5q0 33 -19.5 56.5t-52.5 23.5z" />
    <glyph glyph-name="f.sups" horiz-adv-x="256" 
d="M20 884h53q-4 27 -10.5 50.5t-6.5 57.5q0 43 32.5 65.5t79.5 22.5q60 0 88 -23t28 -53q0 -20 -12.5 -32t-31.5 -12q-20 0 -30 10t-10 34v24q0 15 -11.5 21.5t-24.5 6.5q-17 0 -30.5 -12t-13.5 -32t4 -35.5t9.5 -30.5l11 -30t8.5 -32h87v-48h-84v-292q0 -19 13.5 -32.5
t38.5 -15.5v-8h-172v8q23 2 31.5 15.5t8.5 32.5v292h-56v48z" />
    <glyph glyph-name="g.sups" horiz-adv-x="432" 
d="M200 316q-86 0 -139 20.5t-53 63.5q0 14 7 28.5t21 27.5t35.5 22.5t51.5 14.5q-34 8 -54.5 24t-20.5 39q0 26 20 45.5t69 34.5q-49 13 -75 45.5t-26 82.5q0 64 43.5 100t124.5 36q50 0 86 -15q6 31 29 49t57 18q31 0 47.5 -17t16.5 -39q0 -18 -11.5 -35t-32.5 -29l-4 4
q8 16 8 28q0 21 -13 32.5t-31 11.5q-15 0 -28.5 -9t-20.5 -23q29 -17 45 -45.5t16 -66.5q0 -65 -43 -100.5t-121 -35.5h-19t-17 2q-26 -11 -37 -21t-11 -21q0 -14 10 -22.5t38 -13.5l120 -24q57 -11 88.5 -35.5t31.5 -68.5q0 -47 -54 -77.5t-154 -30.5zM204 648
q35 0 57.5 28.5t22.5 87.5t-22.5 87.5t-57.5 28.5q-38 0 -61 -28.5t-23 -87.5t23 -87.5t61 -28.5zM150 487q-37 -12 -53.5 -34t-16.5 -45q0 -26 31 -47t89 -21q57 0 92.5 18t35.5 54q0 15 -15 28.5t-49 21.5z" />
    <glyph glyph-name="h.sups" horiz-adv-x="464" 
d="M32 488v8q23 2 31.5 15.5t8.5 32.5v440q0 19 -12.5 30.5t-35.5 13.5v8q42 5 71 16.5t49 27.5l8 -4v-230q29 23 72 38.5t84 15.5q27 0 44.5 -8.5t27 -23t13 -34t3.5 -42.5v-248q0 -19 8.5 -32.5t31.5 -15.5v-8h-160v8q23 2 31.5 15.5t8.5 32.5v224q0 44 -17.5 62t-62.5 18
q-17 0 -39.5 -4.5t-44.5 -16.5v-283q0 -19 8.5 -32.5t31.5 -15.5v-8h-160z" />
    <glyph glyph-name="uni2071" unicode="&#x2071;" horiz-adv-x="232" 
d="M36 496q23 2 31.5 15.5t8.5 32.5v264q0 19 -12.5 30.5t-35.5 13.5v8q42 5 71 16.5t49 27.5l8 -4v-356q0 -19 8.5 -32.5t31.5 -15.5v-8h-160v8zM60 1016q0 20 15 36t41 16t41 -16t15 -36t-15 -36t-41 -16t-41 16t-15 36z" />
    <glyph glyph-name="j.sups" horiz-adv-x="232" 
d="M76 808q0 19 -12.5 30.5t-35.5 13.5v8q42 5 71 16.5t49 27.5l8 -4v-312q0 -29 4.5 -51.5t9.5 -42t9.5 -38.5t4.5 -40q0 -42 -25.5 -69t-70.5 -27q-56 0 -78 22.5t-22 49.5q0 20 10.5 32t29.5 12q20 0 28 -10t8 -34v-40q4 -5 11 -6.5t13 -1.5q40 0 40 48q0 26 -8 44
t-18 36.5t-18 41t-8 58.5v236zM60 1016q0 20 15 36t41 16t41 -16t15 -36t-15 -36t-41 -16t-41 16t-15 36z" />
    <glyph glyph-name="k.sups" horiz-adv-x="436" 
d="M32 496q23 2 31.5 15.5t8.5 32.5v440q0 19 -12.5 30.5t-35.5 13.5v8q42 5 71 16.5t49 27.5l8 -4v-390l52 26l88 112q12 15 12 26q0 20 -32 26v8h144v-8q-24 -6 -41.5 -22t-30.5 -30l-80 -87l120 -197q13 -20 24.5 -30.5t31.5 -13.5v-8h-160v8q24 4 24 20q0 5 -3 11t-9 17
l-85 138l-55 -51v-87q0 -19 8.5 -32.5t31.5 -15.5v-8h-160v8z" />
    <glyph glyph-name="l.sups" horiz-adv-x="228" 
d="M32 496q23 2 31.5 15.5t8.5 32.5v440q0 19 -12.5 30.5t-35.5 13.5v8q42 5 71 16.5t49 27.5l8 -4v-532q0 -19 8.5 -32.5t31.5 -15.5v-8h-160v8z" />
    <glyph glyph-name="m.sups" horiz-adv-x="696" 
d="M508 496q23 2 31.5 15.5t8.5 32.5v224q0 44 -15.5 62t-60.5 18q-17 0 -38.5 -5t-43.5 -17q2 -8 2 -16.5v-17.5v-248q0 -19 8.5 -32.5t31.5 -15.5v-8h-160v8q23 2 31.5 15.5t8.5 32.5v224q0 44 -15.5 62t-60.5 18q-17 0 -38 -4.5t-42 -16.5v-283q0 -19 8.5 -32.5
t31.5 -15.5v-8h-160v8q23 2 31.5 15.5t8.5 32.5v264q0 19 -12.5 30.5t-35.5 13.5v8q42 5 71 16.5t49 27.5l8 -4v-53q29 23 70 38t82 15q38 0 55.5 -15.5t23.5 -41.5q29 24 72 40.5t85 16.5q27 0 43.5 -8.5t25.5 -23t12 -34t3 -42.5v-248q0 -19 8.5 -32.5t31.5 -15.5v-8h-160
v8z" />
    <glyph glyph-name="uni207F" unicode="&#x207f;" horiz-adv-x="468" 
d="M36 496q23 2 31.5 15.5t8.5 32.5v264q0 19 -12.5 30.5t-35.5 13.5v8q42 5 71 16.5t49 27.5l8 -4v-54q29 23 72 38.5t84 15.5q27 0 44.5 -8.5t27 -23t13 -34t3.5 -42.5v-248q0 -19 8.5 -32.5t31.5 -15.5v-8h-160v8q23 2 31.5 15.5t8.5 32.5v224q0 44 -17.5 62t-62.5 18
q-17 0 -39.5 -4.5t-44.5 -16.5v-283q0 -19 8.5 -32.5t31.5 -15.5v-8h-160v8z" />
    <glyph glyph-name="o.sups" horiz-adv-x="464" 
d="M232 500q52 0 80 46t28 142q0 91 -27 139.5t-81 48.5q-52 0 -80 -46t-28 -142q0 -91 27 -139.5t81 -48.5zM232 476q-48 0 -85 15.5t-61.5 43.5t-37 67t-12.5 86q0 46 12.5 85t37.5 67t61.5 44t84.5 16t85 -15.5t61.5 -43.5t37 -67t12.5 -86q0 -46 -12.5 -85t-37.5 -67
t-61.5 -44t-84.5 -16z" />
    <glyph glyph-name="p.sups" horiz-adv-x="456" 
d="M28 336q23 2 31.5 15.5t8.5 32.5v424q0 19 -12.5 30.5t-35.5 13.5v8q42 5 71 16.5t49 27.5l8 -4v-40q18 18 44.5 29t55.5 11q35 0 65 -11.5t52 -36.5t34.5 -63.5t12.5 -92.5q0 -55 -13.5 -96t-36.5 -68.5t-53.5 -41.5t-64.5 -14q-26 0 -44.5 6t-35.5 18l4 12
q9 -2 16.5 -3t15.5 -1q35 0 59.5 15t39.5 40.5t22 59t7 69.5q0 76 -28 122t-80 46q-22 0 -41 -6.5t-31 -17.5v-452q0 -19 10.5 -32.5t33.5 -15.5v-8h-164v8z" />
    <glyph glyph-name="q.sups" horiz-adv-x="456" 
d="M208 476q-36 0 -67.5 12t-54.5 37.5t-36.5 63.5t-13.5 91q0 48 14 88.5t38.5 69.5t59 45.5t76.5 16.5q21 0 43.5 -6t36.5 -18h4q22 1 39.5 11t28.5 21l8 -4v-520q0 -19 8.5 -32.5t31.5 -15.5v-8h-160v8q23 2 31.5 15.5t8.5 32.5v131q-18 -17 -43 -28t-53 -11zM236 512
q23 0 40.5 8.5t27.5 19.5v316q-10 5 -24 8.5t-28 3.5q-32 0 -56.5 -15t-41 -40.5t-25.5 -58.5t-9 -70q0 -78 32 -125t84 -47z" />
    <glyph glyph-name="r.sups" horiz-adv-x="332" 
d="M36 496q23 2 31.5 15.5t8.5 32.5v264q0 19 -12.5 30.5t-35.5 13.5v8q42 5 71 16.5t49 27.5l8 -4v-65q17 26 44.5 45.5t59.5 19.5q26 0 45 -13.5t19 -38.5q0 -27 -14.5 -39.5t-37.5 -12.5q-21 0 -32 16l-20 32q-24 0 -39 -11.5t-25 -25.5v-263q0 -25 12.5 -35.5
t35.5 -12.5v-8h-168v8z" />
    <glyph glyph-name="s.sups" horiz-adv-x="344" 
d="M36 620h12q14 -57 45.5 -88.5t78.5 -31.5q17 0 29 6.5t20 17t11.5 23t3.5 25.5q0 21 -9.5 37t-25 29t-35 24t-38.5 22q-17 10 -33 20.5t-28 24t-19.5 30t-7.5 37.5q0 53 39 78.5t97 25.5q33 0 61.5 -7t54.5 -21l4 -96h-12q-17 51 -41.5 75.5t-62.5 24.5q-34 0 -51 -19
t-17 -45q0 -29 25.5 -48t58.5 -36q21 -11 41.5 -23t37 -27t27 -35t10.5 -47q0 -56 -38.5 -88t-101.5 -32q-29 0 -64.5 7.5t-67.5 24.5z" />
    <glyph glyph-name="t.sups" horiz-adv-x="284" 
d="M76 836h-72v20q38 15 63 41t40.5 55.5t22.5 59t10 52.5h16v-180h88v-48h-88v-256q0 -29 14.5 -46.5t45.5 -17.5q12 0 25 2.5t27 9.5l4 -8q-21 -21 -45.5 -32.5t-62.5 -11.5q-48 0 -68 24t-20 72v264z" />
    <glyph glyph-name="u.sups" horiz-adv-x="472" 
d="M316 529q-29 -23 -72 -38t-84 -15q-27 0 -44.5 8.5t-27 23t-13 34t-3.5 42.5v224q0 19 -12.5 30.5t-35.5 13.5v8q42 5 71 16.5t49 27.5l8 -4v-292q0 -44 17.5 -62t62.5 -18q17 0 39.5 4.5t44.5 15.5v260q0 19 -12.5 30.5t-35.5 13.5v8q42 5 71 16.5t49 27.5l8 -4v-356
q0 -19 8.5 -32.5t31.5 -15.5v-8h-120v41z" />
    <glyph glyph-name="v.sups" horiz-adv-x="428" 
d="M52 832q-7 19 -15 27.5t-25 16.5v8h152v-8q-13 -2 -22.5 -6t-9.5 -14q0 -5 1 -11t3 -13l92 -272l88 272q4 12 4 16q0 23 -36 28v8h132v-8q-20 -5 -28 -15t-16 -29l-132 -344h-64z" />
    <glyph glyph-name="w.sups" horiz-adv-x="648" 
d="M319 727l-91 -239h-60l-112 344q-6 20 -14.5 28t-25.5 16v8h144v-8q-13 -2 -20.5 -6t-7.5 -14q0 -5 1 -11t3 -13l78 -265l79 229l-13 36q-7 19 -17 27.5t-27 16.5v8h144v-8q-13 -2 -20.5 -6t-7.5 -14q0 -5 3 -11t5 -13l93 -265l75 265q4 12 4 16q0 23 -36 28v8h136v-8
q-20 -5 -30.5 -15t-17.5 -29l-116 -344h-60z" />
    <glyph glyph-name="x.sups" horiz-adv-x="416" 
d="M248 496q20 5 20 19q0 16 -8 28l-68 102l-68 -102q-5 -7 -8.5 -13t-3.5 -11q0 -8 7 -14.5t21 -8.5v-8h-128v8q17 8 30.5 17t25.5 26l104 135l-104 158q-12 17 -25.5 27t-30.5 17v8h160v-8q-10 -2 -15 -5t-5 -11q0 -16 8 -28l68 -105l64 105q5 7 6.5 13t1.5 11
q0 8 -4.5 13t-19.5 7v8h128v-8q-17 -8 -30 -17.5t-26 -26.5l-102 -131l106 -162q12 -17 23.5 -26.5t28.5 -16.5v-8h-156v8z" />
    <glyph glyph-name="y.sups" horiz-adv-x="428" 
d="M96 316q-48 0 -78 16.5t-30 51.5q0 26 11 39t29 13q21 0 34.5 -10t13.5 -34v-16q0 -14 5.5 -23t18.5 -9q24 0 46.5 35.5t45.5 104.5l-140 348q-8 19 -15.5 27.5t-24.5 16.5v8h152v-8q-13 -2 -22.5 -6t-9.5 -14q0 -5 1 -11t3 -13l91 -256l89 256q4 12 4 16q0 23 -36 28v8
h132v-8q-20 -5 -28 -15t-16 -29l-132 -328q-17 -43 -32 -77.5t-31 -59t-35.5 -38t-45.5 -13.5z" />
    <glyph glyph-name="z.sups" horiz-adv-x="372" 
d="M24 496l216 360h-72q-29 0 -47.5 -4t-32 -14t-22.5 -26t-18 -40h-12l4 112h292l4 -8l-216 -360h88q31 0 50.5 6t32.5 18t21 30t16 42h12l-4 -124h-308z" />
    <glyph glyph-name="uni2070" unicode="&#x2070;" horiz-adv-x="400" 
d="M200 504q54 0 75 50.5t21 137.5q0 85 -22 134.5t-74 49.5q-54 0 -75 -50.5t-21 -137.5q0 -85 22 -134.5t74 -49.5zM200 480q-50 0 -84.5 17.5t-55.5 46t-30.5 66t-9.5 78.5q0 40 9.5 78.5t30.5 68t55.5 47.5t84.5 18t84.5 -17.5t55.5 -46t30.5 -66.5t9.5 -78
q0 -41 -9.5 -79t-30.5 -67.5t-55.5 -47.5t-84.5 -18z" />
    <glyph glyph-name="onesuperior" unicode="&#xb9;" horiz-adv-x="400" 
d="M120 500q19 0 33.5 9t14.5 31v248q0 29 -13 42.5t-47 13.5v12q19 3 39.5 8.5t39 12t33.5 14t24 13.5l8 -4q-2 -14 -3 -35.5t-1 -36.5v-288q0 -22 14 -31t34 -9v-12h-176v12z" />
    <glyph glyph-name="twosuperior" unicode="&#xb2;" horiz-adv-x="400" 
d="M56 528q0 26 15 47.5t37 40.5t48 38.5t48 41.5t37 49t15 63t-17 52t-47 16q-35 0 -51.5 -22t-16.5 -58q0 -11 1.5 -20t6.5 -20l-80 20q-4 9 -4 20q0 25 13 44.5t33.5 32.5t46 20t51.5 7q69 0 108.5 -24t39.5 -72q0 -33 -16 -60.5t-41 -50.5t-55 -42t-57 -36t-47.5 -33.5
t-27.5 -33.5h176q33 0 45.5 19t18.5 49h12v-128h-292v40z" />
    <glyph glyph-name="threesuperior" unicode="&#xb3;" horiz-adv-x="400" 
d="M136 716h16q46 0 73 22t27 70q0 28 -14 48t-54 20q-32 0 -46 -23.5t-14 -52.5q0 -7 1 -14t3 -14l-76 20q-2 6 -3 10.5t-1 9.5q0 22 11.5 38.5t31 27.5t43.5 16.5t50 5.5q72 0 110 -22.5t38 -69.5q0 -22 -10 -39.5t-26.5 -31t-37 -22t-42.5 -11.5q25 0 49 -6t42.5 -19
t29.5 -32.5t11 -46.5q0 -32 -15 -54.5t-39 -37t-54 -21.5t-60 -7q-51 0 -91 25.5t-49 82.5l28 8q8 -41 35.5 -62.5t72.5 -21.5t68.5 24.5t23.5 63.5q0 32 -22.5 56.5t-72.5 27.5h-37v32z" />
    <glyph glyph-name="uni2074" unicode="&#x2074;" horiz-adv-x="400" 
d="M172 500q19 0 33.5 9t14.5 31v52h-188l-12 44l192 256l84 8v-256h84l-12 -52h-72v-52q0 -22 14 -31t34 -9v-12h-172v12zM72 644h148v200z" />
    <glyph glyph-name="uni2075" unicode="&#x2075;" horiz-adv-x="400" 
d="M88 892l8 4q18 -6 53.5 -9t70.5 -3q36 0 64.5 3.5t47.5 12.5l8 -4q-16 -46 -53 -64t-79 -18q-20 0 -39.5 3.5t-37.5 8.5l-10 -112q20 8 39.5 11t39.5 3q30 0 58 -7.5t50 -22.5t35 -38.5t13 -55.5t-14 -55t-37.5 -38.5t-53 -23t-59.5 -7.5q-51 0 -89 23t-47 77l28 8
q12 -39 35.5 -57.5t68.5 -18.5t66.5 26.5t21.5 65.5q0 47 -30.5 71.5t-73.5 24.5q-19 0 -37 -5t-39 -15l-4 4z" />
    <glyph glyph-name="uni2076" unicode="&#x2076;" horiz-adv-x="400" 
d="M352 884q-86 -11 -141.5 -51.5t-74.5 -118.5q20 15 45 22.5t51 7.5q27 0 51.5 -7.5t43.5 -22.5t30 -37.5t11 -52.5q0 -31 -10.5 -57t-31 -45.5t-49.5 -30.5t-65 -11q-37 0 -67.5 9t-53 28t-35 48.5t-12.5 70.5q0 58 20 106.5t58.5 83.5t95 54.5t130.5 19.5zM210 712
q-22 0 -42 -5.5t-37 -19.5q-3 -24 -3 -51q0 -66 24.5 -101t59.5 -35q39 0 57.5 31t18.5 85q0 45 -20 70.5t-58 25.5z" />
    <glyph glyph-name="uni2077" unicode="&#x2077;" horiz-adv-x="400" 
d="M64 892h304v-52q-26 -27 -52 -67.5t-47.5 -87.5t-35 -98t-13.5 -99h-84q0 45 19 97t48 101t62.5 88.5t62.5 57.5h-176q-36 0 -53 -13.5t-23 -46.5h-12v120z" />
    <glyph glyph-name="uni2078" unicode="&#x2078;" horiz-adv-x="400" 
d="M44 584q0 33 24 61.5t75 39.5q-17 9 -33 20t-28 25.5t-19 32.5t-7 41q0 44 41 70t107 26q63 0 103.5 -20t40.5 -68q0 -40 -30.5 -65.5t-72.5 -37.5q21 -9 42 -18.5t37 -23t26 -31.5t10 -44q0 -57 -42.5 -84.5t-113.5 -27.5q-160 0 -160 104zM280 568q0 21 -10.5 36
t-27 27t-37.5 22t-42 21q-26 -21 -36.5 -45t-10.5 -49q0 -31 24 -55.5t64 -24.5q37 0 56.5 20t19.5 48zM136 812q0 -19 7 -33.5t19 -25.5t27.5 -19.5t33.5 -15.5q22 18 37.5 41t15.5 49q0 31 -19.5 51.5t-52.5 20.5t-50.5 -18.5t-17.5 -49.5z" />
    <glyph glyph-name="uni2079" unicode="&#x2079;" horiz-adv-x="400" 
d="M60 496q86 11 141.5 51.5t73.5 117.5q-20 -14 -44.5 -21.5t-50.5 -7.5q-27 0 -51.5 7.5t-43.5 22.5t-30 37.5t-11 52.5q0 31 10.5 57t31 45.5t49.5 30.5t65 11q37 0 67.5 -9t53 -28t35 -48.5t12.5 -70.5q0 -58 -20 -106.5t-58.5 -83.5t-95.5 -54.5t-130 -19.5zM202 668
q21 0 41 5.5t37 19.5q2 12 3 24.5t1 26.5q0 66 -24.5 101t-59.5 35q-39 0 -57.5 -31t-18.5 -85q0 -45 20 -70.5t58 -25.5z" />
    <glyph glyph-name="dollar.sups" horiz-adv-x="440" 
d="M188 477q-33 2 -65 9.5t-51 13.5l8 92h12q11 -42 37 -64t59 -27v172q-22 11 -43.5 23t-38.5 27.5t-27.5 35t-10.5 45.5q0 40 36.5 66.5t99.5 29.5v40h36v-41q28 -2 56 -6.5t48 -12.5v-88h-12q-11 33 -34.5 54.5t-57.5 27.5v-145q23 -11 46.5 -23t42.5 -28t31 -37t12 -49
q0 -53 -41 -82.5t-107 -32.5v-37h-36v37zM292 576q0 27 -19.5 45.5t-48.5 33.5v-154q33 4 50.5 24t17.5 51zM144 816q0 -23 17 -39t43 -30v128q-29 -3 -44.5 -18.5t-15.5 -40.5z" />
    <glyph glyph-name="cent.sups" horiz-adv-x="440" 
d="M204 481q-57 5 -90.5 38t-33.5 101q0 72 34 110t90 44v38h36v-36q45 -2 74.5 -20.5t29.5 -47.5q0 -17 -11 -26.5t-25 -9.5q-22 0 -28 24l-12 48q-6 2 -13 4t-15 3v-227h12q55 0 84 36h8q-26 -73 -104 -79v-41h-36v41zM148 656q0 -50 15.5 -78.5t40.5 -42.5v213
q-27 -9 -41.5 -36t-14.5 -56z" />
    <glyph glyph-name="Euro.sups" horiz-adv-x="440" 
d="M19 740h53q14 72 65.5 116t129.5 44q37 0 70 -6t62 -14l-4 -88h-12q-13 44 -44 64t-72 20q-45 0 -74.5 -36.5t-38.5 -99.5h141v-32h-144v-32h128v-32h-126q4 -30 13.5 -56.5t24 -46t34.5 -30.5t46 -11q46 0 73 26.5t39 77.5h12l4 -100q-30 -15 -63 -21.5t-69 -6.5
q-91 0 -139 45t-58 123h-51v32h48v32h-48v32z" />
    <glyph glyph-name="yen.sups" horiz-adv-x="440" 
d="M79 686h83l-87 169q-12 25 -40 28v10h149v-10q-29 -3 -29 -18q0 -4 3 -10l78 -170l80 167q3 6 3 12q0 9 -8 13t-20 6v10h115v-10q-20 -3 -28.5 -10t-16.5 -21l-91 -166h83v-30h-97v-36h97v-30h-97v-57q0 -14 12 -24.5t32 -10.5v-10h-168v10q19 0 31.5 10.5t12.5 24.5v57
h-97v30h97v36h-97v30z" />
    <glyph glyph-name="sterling.sups" horiz-adv-x="440" 
d="M350 789q-11 0 -21.5 5.5t-15.5 18.5l-17 55q-8 4 -20.5 5.5t-21.5 1.5q-34 0 -50 -18t-16 -47q0 -22 5.5 -43t11.5 -44h99v-33h-92q3 -17 3 -34q0 -47 -14 -89q22 -8 45 -13.5t52 -5.5q36 0 52 21t27 58h9q3 -26 3 -47q-2 -99 -93 -99q-33 0 -60 16t-52 33
q-14 -23 -34.5 -36t-49.5 -13q-32 0 -50.5 13.5t-18.5 39.5t22 40t51 14q14 0 27 -2t24 -4q-2 20 -10 49t-17 59h-63v33h54q-5 18 -8 34t-3 28q0 48 37 81t109 33q23 0 46.5 -5t43 -14t32 -21.5t12.5 -28.5q0 -20 -10.5 -30.5t-27.5 -10.5zM100 504q19 0 33.5 11.5
t19.5 35.5q-12 7 -24 11t-25 4q-20 0 -31.5 -7.5t-11.5 -24.5t12 -23.5t27 -6.5z" />
    <glyph glyph-name="uni207A" unicode="&#x207a;" horiz-adv-x="440" 
d="M72 656h130v112h36v-112h130v-32h-130v-112h-36v112h-130v32z" />
    <glyph glyph-name="uni207B" unicode="&#x207b;" horiz-adv-x="440" 
d="M72 656h296v-32h-296v32z" />
    <glyph glyph-name="multiply.sups" horiz-adv-x="440" 
d="M356 732l-111 -98l111 -98l-24 -24l-112 99l-112 -99l-24 24l110 98l-110 98l24 24l112 -100l112 100z" />
    <glyph glyph-name="divide.sups" horiz-adv-x="440" 
d="M72 656h296v-32h-296v32zM220 504q-19 0 -29.5 11.5t-10.5 28.5t10.5 28.5t29.5 11.5t29.5 -11.5t10.5 -28.5t-10.5 -28.5t-29.5 -11.5zM220 696q-19 0 -29.5 11.5t-10.5 28.5t10.5 28.5t29.5 11.5t29.5 -11.5t10.5 -28.5t-10.5 -28.5t-29.5 -11.5z" />
    <glyph glyph-name="uni207C" unicode="&#x207c;" horiz-adv-x="440" 
d="M72 612h296v-32h-296v32zM72 700h296v-32h-296v32z" />
    <glyph glyph-name="period.sups" horiz-adv-x="192" 
d="M40 532q0 24 15 40t41 16t41 -16t15 -40t-15 -40t-41 -16t-41 16t-15 40z" />
    <glyph glyph-name="comma.sups" horiz-adv-x="192" 
d="M12 392q46 8 67 27.5t21 40.5q0 12 -9.5 17t-20.5 11t-20.5 16t-9.5 32q0 26 18 39t38 13q26 0 41 -15t15 -41v-4q0 -27 -5.5 -54.5t-20.5 -50t-42.5 -38.5t-71.5 -21v28z" />
    <glyph glyph-name="hyphen.sups" horiz-adv-x="272" 
d="M48 744h176v-76h-176v76z" />
    <glyph glyph-name="uni207D" unicode="&#x207d;" horiz-adv-x="324" 
d="M88 696q0 46 13 90.5t38.5 79.5t63 57t85.5 25v-16q-37 -10 -62.5 -35.5t-41 -59.5t-22 -71t-6.5 -70v-28q0 -33 6.5 -70t22 -71t41 -59.5t62.5 -35.5v-16q-48 3 -85.5 25t-63 57t-38.5 79t-13 91v28z" />
    <glyph glyph-name="uni207E" unicode="&#x207e;" horiz-adv-x="324" 
d="M36 948q48 -3 85 -25t62.5 -57t39 -79.5t13.5 -90.5v-28q0 -47 -13.5 -91t-39 -79t-62.5 -57t-85 -25v16q37 10 62.5 35.5t41 59.5t22 71t6.5 70v28q0 33 -6.5 70t-22 71t-41 59.5t-62.5 35.5v16z" />
    <glyph glyph-name="fraction" unicode="&#x2044;" horiz-adv-x="104" 
d="M-176 0l208 372l176 364h72l-208 -372l-176 -364h-72z" />
    <glyph glyph-name="percent" unicode="%" horiz-adv-x="904" 
d="M200 352q54 0 75 50.5t21 137.5q0 85 -22 134.5t-74 49.5q-54 0 -75 -50.5t-21 -137.5q0 -85 22 -134.5t74 -49.5zM200 328q-50 0 -84.5 17.5t-55.5 46t-30.5 66t-9.5 78.5q0 40 9.5 78.5t30.5 68t55.5 47.5t84.5 18t84.5 -17.5t55.5 -46t30.5 -66.5t9.5 -78
q0 -41 -9.5 -79t-30.5 -67.5t-55.5 -47.5t-84.5 -18zM224 0l208 372l176 364h72l-208 -372l-176 -364h-72zM704 16q54 0 75 50.5t21 137.5q0 85 -22 134.5t-74 49.5q-54 0 -75 -50.5t-21 -137.5q0 -85 22 -134.5t74 -49.5zM704 -8q-50 0 -84.5 17.5t-55.5 46t-30.5 66
t-9.5 78.5q0 40 9.5 78.5t30.5 68t55.5 47.5t84.5 18t84.5 -17.5t55.5 -46t30.5 -66.5t9.5 -78q0 -41 -9.5 -79t-30.5 -67.5t-55.5 -47.5t-84.5 -18z" />
    <glyph glyph-name="perthousand" unicode="&#x2030;" horiz-adv-x="1304" 
d="M200 352q54 0 75 50.5t21 137.5q0 85 -22 134.5t-74 49.5q-54 0 -75 -50.5t-21 -137.5q0 -85 22 -134.5t74 -49.5zM200 328q-50 0 -84.5 17.5t-55.5 46t-30.5 66t-9.5 78.5q0 40 9.5 78.5t30.5 68t55.5 47.5t84.5 18t84.5 -17.5t55.5 -46t30.5 -66.5t9.5 -78
q0 -41 -9.5 -79t-30.5 -67.5t-55.5 -47.5t-84.5 -18zM224 0l208 372l176 364h72l-208 -372l-176 -364h-72zM704 16q54 0 75 50.5t21 137.5q0 85 -22 134.5t-74 49.5q-54 0 -75 -50.5t-21 -137.5q0 -85 22 -134.5t74 -49.5zM704 -8q-50 0 -84.5 17.5t-55.5 46t-30.5 66
t-9.5 78.5q0 40 9.5 78.5t30.5 68t55.5 47.5t84.5 18t84.5 -17.5t55.5 -46t30.5 -66.5t9.5 -78q0 -41 -9.5 -79t-30.5 -67.5t-55.5 -47.5t-84.5 -18zM1104 16q54 0 75 50.5t21 137.5q0 85 -22 134.5t-74 49.5q-54 0 -75 -50.5t-21 -137.5q0 -85 22 -134.5t74 -49.5zM1104 -8
q-50 0 -84.5 17.5t-55.5 46t-30.5 66t-9.5 78.5q0 40 9.5 78.5t30.5 68t55.5 47.5t84.5 18t84.5 -17.5t55.5 -46t30.5 -66.5t9.5 -78q0 -41 -9.5 -79t-30.5 -67.5t-55.5 -47.5t-84.5 -18z" />
    <glyph glyph-name="onehalf" unicode="&#xbd;" horiz-adv-x="904" 
d="M120 348q19 0 33.5 9t14.5 31v248q0 29 -13 42.5t-47 13.5v12q19 3 39.5 8.5t39 12t33.5 14t24 13.5l8 -4q-2 -14 -3 -35.5t-1 -36.5v-288q0 -22 14 -31t34 -9v-12h-176v12zM208 0l208 372l176 364h72l-208 -372l-176 -364h-72zM560 40q0 26 15 47.5t37 40.5t48 38.5
t48 41.5t37 49t15 63t-17 52t-47 16q-35 0 -51.5 -22t-16.5 -58q0 -11 1.5 -20t6.5 -20l-80 20q-4 9 -4 20q0 25 13 44.5t33.5 32.5t46 20t51.5 7q69 0 108.5 -24t39.5 -72q0 -33 -16 -60.5t-41 -50.5t-55 -42t-57 -36t-47.5 -33.5t-27.5 -33.5h176q33 0 45.5 19t18.5 49h12
v-128h-292v40z" />
    <glyph glyph-name="onethird" unicode="&#x2153;" horiz-adv-x="904" 
d="M120 348q19 0 33.5 9t14.5 31v248q0 29 -13 42.5t-47 13.5v12q19 3 39.5 8.5t39 12t33.5 14t24 13.5l8 -4q-2 -14 -3 -35.5t-1 -36.5v-288q0 -22 14 -31t34 -9v-12h-176v12zM208 0l208 372l176 364h72l-208 -372l-176 -364h-72zM640 228h16q46 0 73 22t27 70q0 28 -14 48
t-54 20q-32 0 -46 -23.5t-14 -52.5q0 -7 1 -14t3 -14l-76 20q-2 6 -3 10.5t-1 9.5q0 22 11.5 38.5t31 27.5t43.5 16.5t50 5.5q72 0 110 -22.5t38 -69.5q0 -22 -10 -39.5t-26.5 -31t-37 -22t-42.5 -11.5q25 0 49 -6t42.5 -19t29.5 -32.5t11 -46.5q0 -32 -15 -54.5t-39 -37
t-54 -21.5t-60 -7q-51 0 -91 25.5t-49 82.5l28 8q8 -41 35.5 -62.5t72.5 -21.5t68.5 24.5t23.5 63.5q0 32 -22.5 56.5t-72.5 27.5h-37v32z" />
    <glyph glyph-name="twothirds" unicode="&#x2154;" horiz-adv-x="904" 
d="M56 376q0 26 15 47.5t37 40.5t48 38.5t48 41.5t37 49t15 63t-17 52t-47 16q-35 0 -51.5 -22t-16.5 -58q0 -11 1.5 -20t6.5 -20l-80 20q-4 9 -4 20q0 25 13 44.5t33.5 32.5t46 20t51.5 7q69 0 108.5 -24t39.5 -72q0 -33 -16 -60.5t-41 -50.5t-55 -42t-57 -36t-47.5 -33.5
t-27.5 -33.5h176q33 0 45.5 19t18.5 49h12v-128h-292v40zM228 0l208 372l176 364h72l-208 -372l-176 -364h-72zM640 228h16q46 0 73 22t27 70q0 28 -14 48t-54 20q-32 0 -46 -23.5t-14 -52.5q0 -7 1 -14t3 -14l-76 20q-2 6 -3 10.5t-1 9.5q0 22 11.5 38.5t31 27.5t43.5 16.5
t50 5.5q72 0 110 -22.5t38 -69.5q0 -22 -10 -39.5t-26.5 -31t-37 -22t-42.5 -11.5q25 0 49 -6t42.5 -19t29.5 -32.5t11 -46.5q0 -32 -15 -54.5t-39 -37t-54 -21.5t-60 -7q-51 0 -91 25.5t-49 82.5l28 8q8 -41 35.5 -62.5t72.5 -21.5t68.5 24.5t23.5 63.5q0 32 -22.5 56.5
t-72.5 27.5h-37v32z" />
    <glyph glyph-name="onequarter" unicode="&#xbc;" horiz-adv-x="904" 
d="M120 348q19 0 33.5 9t14.5 31v248q0 29 -13 42.5t-47 13.5v12q19 3 39.5 8.5t39 12t33.5 14t24 13.5l8 -4q-2 -14 -3 -35.5t-1 -36.5v-288q0 -22 14 -31t34 -9v-12h-176v12zM236 0l208 372l176 364h72l-208 -372l-176 -364h-72zM676 12q19 0 33.5 9t14.5 31v52h-188
l-12 44l192 256l84 8v-256h84l-12 -52h-72v-52q0 -22 14 -31t34 -9v-12h-172v12zM576 156h148v200z" />
    <glyph glyph-name="threequarters" unicode="&#xbe;" horiz-adv-x="904" 
d="M136 564h16q46 0 73 22t27 70q0 28 -14 48t-54 20q-32 0 -46 -23.5t-14 -52.5q0 -7 1 -14t3 -14l-76 20q-2 6 -3 10.5t-1 9.5q0 22 11.5 38.5t31 27.5t43.5 16.5t50 5.5q72 0 110 -22.5t38 -69.5q0 -22 -10 -39.5t-26.5 -31t-37 -22t-42.5 -11.5q25 0 49 -6t42.5 -19
t29.5 -32.5t11 -46.5q0 -32 -15 -54.5t-39 -37t-54 -21.5t-60 -7q-51 0 -91 25.5t-49 82.5l28 8q8 -41 35.5 -62.5t72.5 -21.5t68.5 24.5t23.5 63.5q0 32 -22.5 56.5t-72.5 27.5h-37v32zM236 0l208 372l176 364h72l-208 -372l-176 -364h-72zM676 12q19 0 33.5 9t14.5 31v52
h-188l-12 44l192 256l84 8v-256h84l-12 -52h-72v-52q0 -22 14 -31t34 -9v-12h-172v12zM576 156h148v200z" />
    <glyph glyph-name="uni2155" unicode="&#x2155;" horiz-adv-x="904" 
d="M120 348q19 0 33.5 9t14.5 31v248q0 29 -13 42.5t-47 13.5v12q19 3 39.5 8.5t39 12t33.5 14t24 13.5l8 -4q-2 -14 -3 -35.5t-1 -36.5v-288q0 -22 14 -31t34 -9v-12h-176v12zM208 0l208 372l176 364h72l-208 -372l-176 -364h-72zM592 404l8 4q18 -6 53.5 -9t70.5 -3
q36 0 64.5 3.5t47.5 12.5l8 -4q-16 -46 -53 -64t-79 -18q-20 0 -39.5 3.5t-37.5 8.5l-10 -112q20 8 39.5 11t39.5 3q30 0 58 -7.5t50 -22.5t35 -38.5t13 -55.5t-14 -55t-37.5 -38.5t-53 -23t-59.5 -7.5q-51 0 -89 23t-47 77l28 8q12 -39 35.5 -57.5t68.5 -18.5t66.5 26.5
t21.5 65.5q0 47 -30.5 71.5t-73.5 24.5q-19 0 -37 -5t-39 -15l-4 4z" />
    <glyph glyph-name="uni2156" unicode="&#x2156;" horiz-adv-x="904" 
d="M56 376q0 26 15 47.5t37 40.5t48 38.5t48 41.5t37 49t15 63t-17 52t-47 16q-35 0 -51.5 -22t-16.5 -58q0 -11 1.5 -20t6.5 -20l-80 20q-4 9 -4 20q0 25 13 44.5t33.5 32.5t46 20t51.5 7q69 0 108.5 -24t39.5 -72q0 -33 -16 -60.5t-41 -50.5t-55 -42t-57 -36t-47.5 -33.5
t-27.5 -33.5h176q33 0 45.5 19t18.5 49h12v-128h-292v40zM232 0l208 372l176 364h72l-208 -372l-176 -364h-72zM592 404l8 4q18 -6 53.5 -9t70.5 -3q36 0 64.5 3.5t47.5 12.5l8 -4q-16 -46 -53 -64t-79 -18q-20 0 -39.5 3.5t-37.5 8.5l-10 -112q20 8 39.5 11t39.5 3
q30 0 58 -7.5t50 -22.5t35 -38.5t13 -55.5t-14 -55t-37.5 -38.5t-53 -23t-59.5 -7.5q-51 0 -89 23t-47 77l28 8q12 -39 35.5 -57.5t68.5 -18.5t66.5 26.5t21.5 65.5q0 47 -30.5 71.5t-73.5 24.5q-19 0 -37 -5t-39 -15l-4 4z" />
    <glyph glyph-name="uni2157" unicode="&#x2157;" horiz-adv-x="904" 
d="M136 564h16q46 0 73 22t27 70q0 28 -14 48t-54 20q-32 0 -46 -23.5t-14 -52.5q0 -7 1 -14t3 -14l-76 20q-2 6 -3 10.5t-1 9.5q0 22 11.5 38.5t31 27.5t43.5 16.5t50 5.5q72 0 110 -22.5t38 -69.5q0 -22 -10 -39.5t-26.5 -31t-37 -22t-42.5 -11.5q25 0 49 -6t42.5 -19
t29.5 -32.5t11 -46.5q0 -32 -15 -54.5t-39 -37t-54 -21.5t-60 -7q-51 0 -91 25.5t-49 82.5l28 8q8 -41 35.5 -62.5t72.5 -21.5t68.5 24.5t23.5 63.5q0 32 -22.5 56.5t-72.5 27.5h-37v32zM224 0l208 372l176 364h72l-208 -372l-176 -364h-72zM592 404l8 4q18 -6 53.5 -9
t70.5 -3q36 0 64.5 3.5t47.5 12.5l8 -4q-16 -46 -53 -64t-79 -18q-20 0 -39.5 3.5t-37.5 8.5l-10 -112q20 8 39.5 11t39.5 3q30 0 58 -7.5t50 -22.5t35 -38.5t13 -55.5t-14 -55t-37.5 -38.5t-53 -23t-59.5 -7.5q-51 0 -89 23t-47 77l28 8q12 -39 35.5 -57.5t68.5 -18.5
t66.5 26.5t21.5 65.5q0 47 -30.5 71.5t-73.5 24.5q-19 0 -37 -5t-39 -15l-4 4z" />
    <glyph glyph-name="uni2158" unicode="&#x2158;" horiz-adv-x="904" 
d="M172 348q19 0 33.5 9t14.5 31v52h-188l-12 44l192 256l84 8v-256h84l-12 -52h-72v-52q0 -22 14 -31t34 -9v-12h-172v12zM72 492h148v200zM232 0l208 372l176 364h72l-208 -372l-176 -364h-72zM592 404l8 4q18 -6 53.5 -9t70.5 -3q36 0 64.5 3.5t47.5 12.5l8 -4
q-16 -46 -53 -64t-79 -18q-20 0 -39.5 3.5t-37.5 8.5l-10 -112q20 8 39.5 11t39.5 3q30 0 58 -7.5t50 -22.5t35 -38.5t13 -55.5t-14 -55t-37.5 -38.5t-53 -23t-59.5 -7.5q-51 0 -89 23t-47 77l28 8q12 -39 35.5 -57.5t68.5 -18.5t66.5 26.5t21.5 65.5q0 47 -30.5 71.5
t-73.5 24.5q-19 0 -37 -5t-39 -15l-4 4z" />
    <glyph glyph-name="uni2159" unicode="&#x2159;" horiz-adv-x="904" 
d="M120 348q19 0 33.5 9t14.5 31v248q0 29 -13 42.5t-47 13.5v12q19 3 39.5 8.5t39 12t33.5 14t24 13.5l8 -4q-2 -14 -3 -35.5t-1 -36.5v-288q0 -22 14 -31t34 -9v-12h-176v12zM224 0l208 372l176 364h72l-208 -372l-176 -364h-72zM856 396q-86 -11 -141.5 -51.5
t-74.5 -118.5q20 15 45 22.5t51 7.5q27 0 51.5 -7.5t43.5 -22.5t30 -37.5t11 -52.5q0 -31 -10.5 -57t-31 -45.5t-49.5 -30.5t-65 -11q-37 0 -67.5 9t-53 28t-35 48.5t-12.5 70.5q0 58 20 106.5t58.5 83.5t95 54.5t130.5 19.5zM714 224q-22 0 -42 -5.5t-37 -19.5
q-3 -24 -3 -51q0 -66 24.5 -101t59.5 -35q39 0 57.5 31t18.5 85q0 45 -20 70.5t-58 25.5z" />
    <glyph glyph-name="uni215A" unicode="&#x215a;" horiz-adv-x="904" 
d="M88 740l8 4q18 -6 53.5 -9t70.5 -3q36 0 64.5 3.5t47.5 12.5l8 -4q-16 -46 -53 -64t-79 -18q-20 0 -39.5 3.5t-37.5 8.5l-10 -112q20 8 39.5 11t39.5 3q30 0 58 -7.5t50 -22.5t35 -38.5t13 -55.5t-14 -55t-37.5 -38.5t-53 -23t-59.5 -7.5q-51 0 -89 23t-47 77l28 8
q12 -39 35.5 -57.5t68.5 -18.5t66.5 26.5t21.5 65.5q0 47 -30.5 71.5t-73.5 24.5q-19 0 -37 -5t-39 -15l-4 4zM236 0l208 372l176 364h72l-208 -372l-176 -364h-72zM856 396q-86 -11 -141.5 -51.5t-74.5 -118.5q20 15 45 22.5t51 7.5q27 0 51.5 -7.5t43.5 -22.5t30 -37.5
t11 -52.5q0 -31 -10.5 -57t-31 -45.5t-49.5 -30.5t-65 -11q-37 0 -67.5 9t-53 28t-35 48.5t-12.5 70.5q0 58 20 106.5t58.5 83.5t95 54.5t130.5 19.5zM714 224q-22 0 -42 -5.5t-37 -19.5q-3 -24 -3 -51q0 -66 24.5 -101t59.5 -35q39 0 57.5 31t18.5 85q0 45 -20 70.5
t-58 25.5z" />
    <glyph glyph-name="oneeighth" unicode="&#x215b;" horiz-adv-x="904" 
d="M120 348q19 0 33.5 9t14.5 31v248q0 29 -13 42.5t-47 13.5v12q19 3 39.5 8.5t39 12t33.5 14t24 13.5l8 -4q-2 -14 -3 -35.5t-1 -36.5v-288q0 -22 14 -31t34 -9v-12h-176v12zM212 0l208 372l176 364h72l-208 -372l-176 -364h-72zM548 96q0 33 24 61.5t75 39.5
q-17 9 -33 20t-28 25.5t-19 32.5t-7 41q0 44 41 70t107 26q63 0 103.5 -20t40.5 -68q0 -40 -30.5 -65.5t-72.5 -37.5q21 -9 42 -18.5t37 -23t26 -31.5t10 -44q0 -57 -42.5 -84.5t-113.5 -27.5q-160 0 -160 104zM784 80q0 21 -10.5 36t-27 27t-37.5 22t-42 21
q-26 -21 -36.5 -45t-10.5 -49q0 -31 24 -55.5t64 -24.5q37 0 56.5 20t19.5 48zM640 324q0 -19 7 -33.5t19 -25.5t27.5 -19.5t33.5 -15.5q22 18 37.5 41t15.5 49q0 31 -19.5 51.5t-52.5 20.5t-50.5 -18.5t-17.5 -49.5z" />
    <glyph glyph-name="threeeighths" unicode="&#x215c;" horiz-adv-x="904" 
d="M136 564h16q46 0 73 22t27 70q0 28 -14 48t-54 20q-32 0 -46 -23.5t-14 -52.5q0 -7 1 -14t3 -14l-76 20q-2 6 -3 10.5t-1 9.5q0 22 11.5 38.5t31 27.5t43.5 16.5t50 5.5q72 0 110 -22.5t38 -69.5q0 -22 -10 -39.5t-26.5 -31t-37 -22t-42.5 -11.5q25 0 49 -6t42.5 -19
t29.5 -32.5t11 -46.5q0 -32 -15 -54.5t-39 -37t-54 -21.5t-60 -7q-51 0 -91 25.5t-49 82.5l28 8q8 -41 35.5 -62.5t72.5 -21.5t68.5 24.5t23.5 63.5q0 32 -22.5 56.5t-72.5 27.5h-37v32zM224 0l208 372l176 364h72l-208 -372l-176 -364h-72zM548 96q0 33 24 61.5t75 39.5
q-17 9 -33 20t-28 25.5t-19 32.5t-7 41q0 44 41 70t107 26q63 0 103.5 -20t40.5 -68q0 -40 -30.5 -65.5t-72.5 -37.5q21 -9 42 -18.5t37 -23t26 -31.5t10 -44q0 -57 -42.5 -84.5t-113.5 -27.5q-160 0 -160 104zM784 80q0 21 -10.5 36t-27 27t-37.5 22t-42 21
q-26 -21 -36.5 -45t-10.5 -49q0 -31 24 -55.5t64 -24.5q37 0 56.5 20t19.5 48zM640 324q0 -19 7 -33.5t19 -25.5t27.5 -19.5t33.5 -15.5q22 18 37.5 41t15.5 49q0 31 -19.5 51.5t-52.5 20.5t-50.5 -18.5t-17.5 -49.5z" />
    <glyph glyph-name="fiveeighths" unicode="&#x215d;" horiz-adv-x="904" 
d="M88 740l8 4q18 -6 53.5 -9t70.5 -3q36 0 64.5 3.5t47.5 12.5l8 -4q-16 -46 -53 -64t-79 -18q-20 0 -39.5 3.5t-37.5 8.5l-10 -112q20 8 39.5 11t39.5 3q30 0 58 -7.5t50 -22.5t35 -38.5t13 -55.5t-14 -55t-37.5 -38.5t-53 -23t-59.5 -7.5q-51 0 -89 23t-47 77l28 8
q12 -39 35.5 -57.5t68.5 -18.5t66.5 26.5t21.5 65.5q0 47 -30.5 71.5t-73.5 24.5q-19 0 -37 -5t-39 -15l-4 4zM224 0l208 372l176 364h72l-208 -372l-176 -364h-72zM548 96q0 33 24 61.5t75 39.5q-17 9 -33 20t-28 25.5t-19 32.5t-7 41q0 44 41 70t107 26q63 0 103.5 -20
t40.5 -68q0 -40 -30.5 -65.5t-72.5 -37.5q21 -9 42 -18.5t37 -23t26 -31.5t10 -44q0 -57 -42.5 -84.5t-113.5 -27.5q-160 0 -160 104zM784 80q0 21 -10.5 36t-27 27t-37.5 22t-42 21q-26 -21 -36.5 -45t-10.5 -49q0 -31 24 -55.5t64 -24.5q37 0 56.5 20t19.5 48zM640 324
q0 -19 7 -33.5t19 -25.5t27.5 -19.5t33.5 -15.5q22 18 37.5 41t15.5 49q0 31 -19.5 51.5t-52.5 20.5t-50.5 -18.5t-17.5 -49.5z" />
    <glyph glyph-name="seveneighths" unicode="&#x215e;" horiz-adv-x="904" 
d="M64 740h304v-52q-26 -27 -52 -67.5t-47.5 -87.5t-35 -98t-13.5 -99h-84q0 45 19 97t48 101t62.5 88.5t62.5 57.5h-176q-36 0 -53 -13.5t-23 -46.5h-12v120zM184 0l208 372l176 364h72l-208 -372l-176 -364h-72zM548 96q0 33 24 61.5t75 39.5q-17 9 -33 20t-28 25.5
t-19 32.5t-7 41q0 44 41 70t107 26q63 0 103.5 -20t40.5 -68q0 -40 -30.5 -65.5t-72.5 -37.5q21 -9 42 -18.5t37 -23t26 -31.5t10 -44q0 -57 -42.5 -84.5t-113.5 -27.5q-160 0 -160 104zM784 80q0 21 -10.5 36t-27 27t-37.5 22t-42 21q-26 -21 -36.5 -45t-10.5 -49
q0 -31 24 -55.5t64 -24.5q37 0 56.5 20t19.5 48zM640 324q0 -19 7 -33.5t19 -25.5t27.5 -19.5t33.5 -15.5q22 18 37.5 41t15.5 49q0 31 -19.5 51.5t-52.5 20.5t-50.5 -18.5t-17.5 -49.5z" />
    <glyph glyph-name="uni03A9" unicode="&#x3a9;" horiz-adv-x="760" 
d="M380 712q-54 0 -92.5 -21.5t-63.5 -60t-36.5 -91.5t-11.5 -115q0 -50 9 -94.5t28.5 -80.5t48.5 -61.5t70 -35.5v-152h-264l-16 152h12q19 -60 59.5 -90t92.5 -30q14 0 31.5 2t36.5 10v84q-41 6 -79 32.5t-67.5 66.5t-47.5 89t-18 100q0 75 20.5 136t60 104.5t96.5 67.5
t131 24q73 0 130.5 -24t97 -67.5t60 -104.5t20.5 -136q0 -51 -18 -100t-47.5 -89t-68 -66.5t-78.5 -32.5v-84q19 -8 36.5 -10t31.5 -2q52 0 92.5 30t59.5 90h12l-16 -152h-264v152q40 10 69.5 35.5t49 61.5t28.5 80.5t9 94.5q0 62 -11.5 115t-36.5 91.5t-63.5 60t-92.5 21.5
z" />
    <glyph glyph-name="uni0394" unicode="&#x394;" horiz-adv-x="648" 
d="M52 0l252 748h48l248 -748h-548zM128 40h359l-180 579z" />
    <glyph glyph-name="uni03BC" unicode="&#x3bc;" horiz-adv-x="576" 
d="M92 408q0 46 -56 52v12q24 3 42.5 9.5t34 14t28.5 16t27 16.5l12 -4v-424q16 -26 43 -39t57 -13q32 0 62.5 13.5t49.5 37.5v309q0 46 -56 52v12q24 3 42.5 9.5t34 14t28.5 16t27 16.5l12 -4v-456q0 -27 14.5 -40t41.5 -16v-12h-144v65q-20 -39 -56 -58t-76 -19
q-22 0 -44.5 6t-39.5 18q0 -56 2.5 -109.5t9.5 -102.5h-96v608z" />
    <glyph glyph-name="uni00AD" unicode="&#xad;" horiz-adv-x="340" 
d="M60 320h220v-96h-220v96z" />
    <glyph glyph-name="uni2219" unicode="&#x2219;" horiz-adv-x="336" 
d="M168 196q-33 0 -50.5 19t-17.5 49t17.5 49t50.5 19t50.5 -19t17.5 -49t-17.5 -49t-50.5 -19z" />
    <glyph glyph-name="uni02C9" unicode="&#x2c9;" horiz-adv-x="552" 
d="M140 692h288l-16 -64h-288z" />
    <glyph glyph-name="uni2215" unicode="&#x2215;" horiz-adv-x="104" 
d="M-176 0l208 372l176 364h72l-208 -372l-176 -364h-72z" />
    <glyph glyph-name="AEacute" unicode="&#x1fc;" horiz-adv-x="884" 
d="M0 12q30 6 44.5 19.5t27.5 36.5l320 564q5 9 10.5 19.5t5.5 24.5q0 25 -18.5 33.5t-41.5 10.5v16h480l16 -164h-12q-24 66 -75.5 99t-120.5 33q-48 0 -78 -9t-30 -39v-224h144q24 0 38.5 15.5t17.5 36.5h12v-144h-12q-6 52 -56 52h-144v-315q2 -29 31 -37t77 -8
q34 0 67 11.5t61.5 31.5t50 48t33.5 61h12l-16 -184h-464v12q52 6 52 56v136h-220l-72 -136q-3 -6 -5.5 -12.5t-2.5 -11.5q0 -15 13 -22.5t31 -9.5v-12h-176v12zM432 244v370l-198 -370h198zM592 980l84 -44l-208 -128l-16 16z" />
    </font>
</defs>
</svg>
